<svg viewBox="184.10000000000014 236.84210526315792 1867.3 1763.157894736842" xmlns="http://www.w3.org/2000/svg" xmlns:xlink="http://www.w3.org/1999/xlink" overflow="visible" width="1867.3px" height="1763.157894736842px"><defs><rect id="masterspot-illustrationusing-computer-path-1" x="0" y="0" width="1400" height="928"/></defs><g id="Master/Spot Illustration/Using Computer" stroke="none" stroke-width="1" fill="none" fill-rule="evenodd"><g id="Left-Character" transform="translate(0.000000, 200.000000)"><g id="Chair" transform="translate(100.000000, 800.000000)"><path d="M941.542884,676.160734 L684.053737,676.160734 C667.19581,676.160734 653.52976,662.494684 653.52976,645.636757 C653.52976,642.085519 654.149465,638.56152 655.36099,635.223331 C664.554049,609.893135 686.568189,591.395917 713.103656,586.705484 L904.099227,552.944933 C917.970005,550.493122 928.080175,538.43914 928.080175,524.353337 C928.080175,510.903711 917.177099,500.000634 903.727473,500.000634 L567.63737,500.000634 L567.63737,500.000634 L509.050884,206.429423 C499.718882,159.667667 458.668452,126 410.984618,126 L222,126 L222,126 L322,676 L377,676 L283,1000 L363,1000 L458.798636,842.123848 C476.9287,812.245502 509.34179,794 544.290535,794 L877.510771,794 C909.261552,794 939.125614,809.078135 957.977065,834.626812 L1080,1000 L1080,1000 L1199.73532,1000 L1026.29203,723.079836 C1008.0083,693.88797 975.987908,676.160734 941.542884,676.160734 Z" id="Chair-back" fill="#EFB489"/><path d="M1127.5,945 C1118.90685,954.547949 1106.66502,960 1093.81956,960 L933,960 L933,960 L873,843 L1073,843 L1128.57249,914.100096 C1135.75998,923.295861 1135.30777,936.324697 1127.5,945 Z" id="Path-62" fill="#D8704E"/><path d="M1025.60177,828.345507 L1149.4168,830.811935 C1160.4603,831.031925 1169.59117,822.257733 1169.81116,811.214229 C1169.95021,804.233541 1166.43878,797.68565 1160.54702,793.939104 L1081.11027,743.425535 L1081.11027,743.425535 L1014.64628,725.775102 L997.228042,790.562474 C992.926305,806.562839 1002.40992,823.020943 1018.41028,827.32268 C1020.75717,827.953646 1023.17203,828.297106 1025.60177,828.345507 Z" id="Fill-21" fill="#DBDAC6" transform="translate(1104.021496, 779.004184) rotate(-64.000000) translate(-1104.021496, -779.004184)"/><path d="M754.516682,500.226325 L400,501.101129 L400,501.101129 L400,564.729184 C400,626.163668 449.888201,675.965099 511.429722,675.965099 L767.168735,675.965099 L994.228998,869 L1079,769 L906.250555,569.358016 C868.148199,525.324126 812.74685,500.082636 754.516682,500.226325 Z" id="Fill-27" fill="#A9B4FF"/><path d="M725.225328,500.249252 L380,501.101129 L380,501.101129 L380,564.729184 C380,626.163668 429.888201,675.965099 491.429722,675.965099 L747.168735,675.965099 L964.228998,899 L1059,814 L886.38816,581.146286 C848.561584,530.118161 788.744576,500.092512 725.225328,500.249252 Z" id="Fill-27" fill="#A9B4FF"/><path d="M1030.66176,871.064172 L1143.23814,871.119407 C1154.28383,871.124827 1163.24253,862.174916 1163.24795,851.129223 C1163.25126,844.377839 1159.84817,838.080465 1154.19874,834.383814 L1080.90569,786.425138 L1080.90569,786.425138 L1005.88974,783.491259 L1000.8048,838.292413 C999.273995,854.790087 1011.40704,869.405055 1027.90472,870.935857 C1028.82127,871.020903 1029.74126,871.06372 1030.66176,871.064172 Z" id="Fill-21" fill="#DBDAC6" transform="translate(1104.077933, 827.321807) rotate(-44.000000) translate(-1104.077933, -827.321807)"/><path d="M750.542884,676.160734 L493.053737,676.160734 C476.19581,676.160734 462.52976,662.494684 462.52976,645.636757 C462.52976,642.085519 463.149465,638.56152 464.36099,635.223331 C473.554049,609.893135 495.568189,591.395917 522.103656,586.705484 L713.099227,552.944933 C726.970005,550.493122 737.080175,538.43914 737.080175,524.353337 C737.080175,510.903711 726.177099,500.000634 712.727473,500.000634 L296.63737,500.000634 L296.63737,500.000634 L222,126 L216.238733,127.944428 C172.640706,142.658762 144.711081,185.224899 148.568623,231.077041 L186,676 L186,676 L92,1000 L172,1000 L267.798636,842.123848 C285.9287,812.245502 318.34179,794 353.290535,794 L686.510771,794 C718.261552,794 748.125614,809.078135 766.977065,834.626812 L889,1000 L889,1000 L1008.73532,1000 L835.292033,723.079836 C817.008304,693.88797 784.987908,676.160734 750.542884,676.160734 Z" id="Chair-front" fill="#D8704E"/><path d="M807.28633,514.212474 C843.23986,526.423106 878.837899,559.124207 914.261219,612.17694 L915.276,613.702 L1058.693,808.552 L1144.14881,790.424888 C1152.89368,788.569916 1161.96675,791.338796 1168.18382,797.732891 L1168.49746,798.061134 C1178.22865,808.424211 1177.81883,824.65456 1167.65281,834.515661 L1167.34176,834.81252 L1142.73813,857.91593 L1137.26187,852.08407 L1161.8655,828.98066 C1169.11241,822.175638 1169.47063,810.7843 1162.6656,803.537393 C1158.44526,799.043 1152.22562,797.027679 1146.18606,798.174934 L1145.80884,798.250761 L1055.30726,817.448067 L908.778544,618.371122 L908.6654,618.209172 C874.125209,566.073035 839.757911,534.097468 805.744278,522.143635 L804.71367,521.787526 L807.28633,514.212474 Z" id="Path-61" fill="#000" fill-rule="nonzero"/></g><g id="Head" transform="translate(560.999650, 572.000000)" fill="#CCB2FF"><path d="M173.4931,66.499221 C182.1061,110.758221 197.9031,184.720221 112.0001,190.645221 C47.3491,195.103221 34.1221,133.336221 28.0001,98.645221 C19.0001,47.645221 36.0001,13.645221 84.0001,2.64522101 C149.3581,-12.333779 168.3391,40.016221 173.4931,66.499221"/><path d="M140,217 L140,172 L66,172 L64,214 L-6.39488462e-13,246.644721 L37.2,279.966721 C78.318,316.799721 141.503,313.346721 178.363,272.252721 L201.333,246.644721 L140,217 Z" id="Neck"/></g><g id="Hair" transform="translate(403.999650, 378.000000) scale(1 1)"><g id="Hair/Pompadour 2" stroke="none" stroke-width="1" fill="none" fill-rule="evenodd"><path d="M233.462549,362 C233.462549,362 38.3973679,300.339269 58.4459419,234.158492 C82.3950701,155.098267 154.33363,212.132788 154.33363,212.132788 C154.33363,212.132788 293.761895,-127.204189 413.355161,52.4885863 C537.733256,239.370472 233.462549,362 233.462549,362" id="Hair" fill="#CCB2FF"/></g></g><g id="Face" transform="translate(592.999650, 622.000000) scale(1 1)" fill="#000"><g id="Face/Joy" stroke="none" stroke-width="1" fill="none" fill-rule="evenodd"><path d="M138.007134,13.7702134 L145.857426,12.2297866 L147.549095,20.8795674 L148.018253,23.3396028 C150.609344,37.0644778 152.103078,47.4422921 152.719024,57.8208348 L152.76153,58.5622057 C153.98411,80.6614745 150.609705,98.5962452 141.031202,112.508343 C129.646431,129.04392 110.03365,138.785988 81.1510446,140.92809 L80.2729757,140.990675 L79.7270243,133.009325 C106.810648,131.156714 124.44055,122.497958 134.441949,107.971632 C142.846582,95.7644971 145.907418,79.4963265 144.773744,59.0041074 L144.689081,57.5786659 C144.070509,47.8319356 142.627723,37.9089558 140.153411,24.804129 L139.313239,20.428357 L138.007134,13.7702134 Z" id="Stroke" fill="#000" fill-rule="nonzero"/><path d="M69.2960622,41.3611777 C73.6428499,31.9223266 84.1941459,28.5822275 93.4636887,33.0439982 C94.4902431,33.5381165 95.718734,34.6252244 97.1491612,36.3053218 C98.0063928,37.312193 98.1679403,38.738128 97.5576764,39.9112493 C96.9815028,41.0188383 95.7339867,41.6022219 94.5145797,41.3343114 L90.0931795,40.3629051 L90.0931795,40.3629051 C84.2789536,39.3841272 79.6261768,40.6177516 76.1348493,44.0637782 C75.701543,44.4914622 74.9916259,45.055657 74.0050979,45.7563628 C72.8378417,46.585428 71.3098349,46.7072721 70.0259468,46.0736574 C68.8492633,45.4929496 68.2893558,44.1267425 68.7200906,42.8872777 C68.9800934,42.1390909 69.1720839,41.6303909 69.2960622,41.3611777 Z" id="Eye-L" fill="#000" fill-rule="nonzero" transform="translate(84.570459, 40.088476) rotate(13.000000) translate(-84.570459, -40.088476)"/><path d="M107.725603,39.3611777 C112.072391,29.9223266 122.623687,26.5822275 131.893229,31.0439982 C132.919784,31.5381165 134.148275,32.6252244 135.578702,34.3053218 C136.435933,35.312193 136.597481,36.738128 135.987217,37.9112493 C135.411043,39.0188383 134.163527,39.6022219 132.94412,39.3343114 L128.52272,38.3629051 L128.52272,38.3629051 C122.708494,37.3841272 118.055718,38.6177516 114.56439,42.0637782 C114.131084,42.4914622 113.421167,43.055657 112.434639,43.7563628 C111.267382,44.585428 109.739376,44.7072721 108.455487,44.0736574 C107.278804,43.4929496 106.718897,42.1267425 107.149631,40.8872777 C107.409634,40.1390909 107.601625,39.6303909 107.725603,39.3611777 Z" id="Eye-R" fill="#000" fill-rule="nonzero" transform="translate(123.000000, 38.088476) scale(-1, 1) rotate(16.000000) translate(-123.000000, -38.088476)"/></g></g><g id="Torso" transform="translate(0.000000, 372.000000)"><mask id="masterspot-illustrationusing-computer-mask-2" fill="#ffffff"><use xlink:href="#masterspot-illustrationusing-computer-path-1" fill="#ffffff"/></mask><g id="Mask"/><g mask="url(#masterspot-illustrationusing-computer-mask-2)"><g transform="translate(100.000000, 288.000000) scale(1 1)" id="Upper Body"><defs><path d="M346,1 L403,44 C455.330837,60.5927043 498.49333,98.0479325 522.293031,147.519222 L574,255 L574,255 L617,159 L692,193 L637.210403,321.803615 C619.915873,362.46093 572.93662,381.40021 532.279305,364.10568 C517.498602,357.818366 504.952779,347.227337 496.274699,333.711035 L465,285 L465,285 C484.333333,388.333333 494.666667,454.666667 496,484 C497.333333,513.333333 487.666667,530 467,534 L122.243501,534 C67.0150256,534 22.2435006,489.228475 22.2435006,434 C22.2435006,427.344215 22.9079885,420.705057 24.2270788,414.181295 L66.6882657,204.183034 C82.3396526,126.776718 138.279412,63.6979364 213.259839,38.9060209 L216,38 L216,38 L271,0 L324.45715,50.637 L346,1 Z" id="upper-bodydotted-shirt-path-1"/></defs><g id="Upper Body/Dotted Shirt" stroke="none" stroke-width="1" fill="none" fill-rule="evenodd"><g id="Shirt" transform="translate(255.000000, 106.000000)"><mask id="upper-bodydotted-shirt-mask-2" fill="#ffffff"><use xlink:href="#upper-bodydotted-shirt-path-1" fill="#ffffff"/></mask><use id="Mask" fill="#FFEFEB" xlink:href="#upper-bodydotted-shirt-path-1"/><path d="M-19,528 C-7.954305,528 1,536.954305 1,548 C1,559.045695 -7.954305,568 -19,568 C-30.045695,568 -39,559.045695 -39,548 C-39,536.954305 -30.045695,528 -19,528 Z M61,528 C72.045695,528 81,536.954305 81,548 C81,559.045695 72.045695,568 61,568 C49.954305,568 41,559.045695 41,548 C41,536.954305 49.954305,528 61,528 Z M141,528 C152.045695,528 161,536.954305 161,548 C161,559.045695 152.045695,568 141,568 C129.954305,568 121,559.045695 121,548 C121,536.954305 129.954305,528 141,528 Z M221,528 C232.045695,528 241,536.954305 241,548 C241,559.045695 232.045695,568 221,568 C209.954305,568 201,559.045695 201,548 C201,536.954305 209.954305,528 221,528 Z M301,528 C312.045695,528 321,536.954305 321,548 C321,559.045695 312.045695,568 301,568 C289.954305,568 281,559.045695 281,548 C281,536.954305 289.954305,528 301,528 Z M381,528 C392.045695,528 401,536.954305 401,548 C401,559.045695 392.045695,568 381,568 C369.954305,568 361,559.045695 361,548 C361,536.954305 369.954305,528 381,528 Z M461,528 C472.045695,528 481,536.954305 481,548 C481,559.045695 472.045695,568 461,568 C449.954305,568 441,559.045695 441,548 C441,536.954305 449.954305,528 461,528 Z M541,528 C552.045695,528 561,536.954305 561,548 C561,559.045695 552.045695,568 541,568 C529.954305,568 521,559.045695 521,548 C521,536.954305 529.954305,528 541,528 Z M621,528 C632.045695,528 641,536.954305 641,548 C641,559.045695 632.045695,568 621,568 C609.954305,568 601,559.045695 601,548 C601,536.954305 609.954305,528 621,528 Z M-19,448 C-7.954305,448 1,456.954305 1,468 C1,479.045695 -7.954305,488 -19,488 C-30.045695,488 -39,479.045695 -39,468 C-39,456.954305 -30.045695,448 -19,448 Z M61,448 C72.045695,448 81,456.954305 81,468 C81,479.045695 72.045695,488 61,488 C49.954305,488 41,479.045695 41,468 C41,456.954305 49.954305,448 61,448 Z M141,448 C152.045695,448 161,456.954305 161,468 C161,479.045695 152.045695,488 141,488 C129.954305,488 121,479.045695 121,468 C121,456.954305 129.954305,448 141,448 Z M221,448 C232.045695,448 241,456.954305 241,468 C241,479.045695 232.045695,488 221,488 C209.954305,488 201,479.045695 201,468 C201,456.954305 209.954305,448 221,448 Z M301,448 C312.045695,448 321,456.954305 321,468 C321,479.045695 312.045695,488 301,488 C289.954305,488 281,479.045695 281,468 C281,456.954305 289.954305,448 301,448 Z M381,448 C392.045695,448 401,456.954305 401,468 C401,479.045695 392.045695,488 381,488 C369.954305,488 361,479.045695 361,468 C361,456.954305 369.954305,448 381,448 Z M461,448 C472.045695,448 481,456.954305 481,468 C481,479.045695 472.045695,488 461,488 C449.954305,488 441,479.045695 441,468 C441,456.954305 449.954305,448 461,448 Z M541,448 C552.045695,448 561,456.954305 561,468 C561,479.045695 552.045695,488 541,488 C529.954305,488 521,479.045695 521,468 C521,456.954305 529.954305,448 541,448 Z M621,448 C632.045695,448 641,456.954305 641,468 C641,479.045695 632.045695,488 621,488 C609.954305,488 601,479.045695 601,468 C601,456.954305 609.954305,448 621,448 Z M-19,368 C-7.954305,368 1,376.954305 1,388 C1,399.045695 -7.954305,408 -19,408 C-30.045695,408 -39,399.045695 -39,388 C-39,376.954305 -30.045695,368 -19,368 Z M61,368 C72.045695,368 81,376.954305 81,388 C81,399.045695 72.045695,408 61,408 C49.954305,408 41,399.045695 41,388 C41,376.954305 49.954305,368 61,368 Z M141,368 C152.045695,368 161,376.954305 161,388 C161,399.045695 152.045695,408 141,408 C129.954305,408 121,399.045695 121,388 C121,376.954305 129.954305,368 141,368 Z M221,368 C232.045695,368 241,376.954305 241,388 C241,399.045695 232.045695,408 221,408 C209.954305,408 201,399.045695 201,388 C201,376.954305 209.954305,368 221,368 Z M301,368 C312.045695,368 321,376.954305 321,388 C321,399.045695 312.045695,408 301,408 C289.954305,408 281,399.045695 281,388 C281,376.954305 289.954305,368 301,368 Z M381,368 C392.045695,368 401,376.954305 401,388 C401,399.045695 392.045695,408 381,408 C369.954305,408 361,399.045695 361,388 C361,376.954305 369.954305,368 381,368 Z M461,368 C472.045695,368 481,376.954305 481,388 C481,399.045695 472.045695,408 461,408 C449.954305,408 441,399.045695 441,388 C441,376.954305 449.954305,368 461,368 Z M541,368 C552.045695,368 561,376.954305 561,388 C561,399.045695 552.045695,408 541,408 C529.954305,408 521,399.045695 521,388 C521,376.954305 529.954305,368 541,368 Z M621,368 C632.045695,368 641,376.954305 641,388 C641,399.045695 632.045695,408 621,408 C609.954305,408 601,399.045695 601,388 C601,376.954305 609.954305,368 621,368 Z M-19,288 C-7.954305,288 1,296.954305 1,308 C1,319.045695 -7.954305,328 -19,328 C-30.045695,328 -39,319.045695 -39,308 C-39,296.954305 -30.045695,288 -19,288 Z M61,288 C72.045695,288 81,296.954305 81,308 C81,319.045695 72.045695,328 61,328 C49.954305,328 41,319.045695 41,308 C41,296.954305 49.954305,288 61,288 Z M141,288 C152.045695,288 161,296.954305 161,308 C161,319.045695 152.045695,328 141,328 C129.954305,328 121,319.045695 121,308 C121,296.954305 129.954305,288 141,288 Z M221,288 C232.045695,288 241,296.954305 241,308 C241,319.045695 232.045695,328 221,328 C209.954305,328 201,319.045695 201,308 C201,296.954305 209.954305,288 221,288 Z M301,288 C312.045695,288 321,296.954305 321,308 C321,319.045695 312.045695,328 301,328 C289.954305,328 281,319.045695 281,308 C281,296.954305 289.954305,288 301,288 Z M381,288 C392.045695,288 401,296.954305 401,308 C401,319.045695 392.045695,328 381,328 C369.954305,328 361,319.045695 361,308 C361,296.954305 369.954305,288 381,288 Z M461,288 C472.045695,288 481,296.954305 481,308 C481,319.045695 472.045695,328 461,328 C449.954305,328 441,319.045695 441,308 C441,296.954305 449.954305,288 461,288 Z M541,288 C552.045695,288 561,296.954305 561,308 C561,319.045695 552.045695,328 541,328 C529.954305,328 521,319.045695 521,308 C521,296.954305 529.954305,288 541,288 Z M621,288 C632.045695,288 641,296.954305 641,308 C641,319.045695 632.045695,328 621,328 C609.954305,328 601,319.045695 601,308 C601,296.954305 609.954305,288 621,288 Z M-19,208 C-7.954305,208 1,216.954305 1,228 C1,239.045695 -7.954305,248 -19,248 C-30.045695,248 -39,239.045695 -39,228 C-39,216.954305 -30.045695,208 -19,208 Z M61,208 C72.045695,208 81,216.954305 81,228 C81,239.045695 72.045695,248 61,248 C49.954305,248 41,239.045695 41,228 C41,216.954305 49.954305,208 61,208 Z M141,208 C152.045695,208 161,216.954305 161,228 C161,239.045695 152.045695,248 141,248 C129.954305,248 121,239.045695 121,228 C121,216.954305 129.954305,208 141,208 Z M221,208 C232.045695,208 241,216.954305 241,228 C241,239.045695 232.045695,248 221,248 C209.954305,248 201,239.045695 201,228 C201,216.954305 209.954305,208 221,208 Z M301,208 C312.045695,208 321,216.954305 321,228 C321,239.045695 312.045695,248 301,248 C289.954305,248 281,239.045695 281,228 C281,216.954305 289.954305,208 301,208 Z M381,208 C392.045695,208 401,216.954305 401,228 C401,239.045695 392.045695,248 381,248 C369.954305,248 361,239.045695 361,228 C361,216.954305 369.954305,208 381,208 Z M461,208 C472.045695,208 481,216.954305 481,228 C481,239.045695 472.045695,248 461,248 C449.954305,248 441,239.045695 441,228 C441,216.954305 449.954305,208 461,208 Z M541,208 C552.045695,208 561,216.954305 561,228 C561,239.045695 552.045695,248 541,248 C529.954305,248 521,239.045695 521,228 C521,216.954305 529.954305,208 541,208 Z M621,208 C632.045695,208 641,216.954305 641,228 C641,239.045695 632.045695,248 621,248 C609.954305,248 601,239.045695 601,228 C601,216.954305 609.954305,208 621,208 Z M-19,128 C-7.954305,128 1,136.954305 1,148 C1,159.045695 -7.954305,168 -19,168 C-30.045695,168 -39,159.045695 -39,148 C-39,136.954305 -30.045695,128 -19,128 Z M61,128 C72.045695,128 81,136.954305 81,148 C81,159.045695 72.045695,168 61,168 C49.954305,168 41,159.045695 41,148 C41,136.954305 49.954305,128 61,128 Z M141,128 C152.045695,128 161,136.954305 161,148 C161,159.045695 152.045695,168 141,168 C129.954305,168 121,159.045695 121,148 C121,136.954305 129.954305,128 141,128 Z M221,128 C232.045695,128 241,136.954305 241,148 C241,159.045695 232.045695,168 221,168 C209.954305,168 201,159.045695 201,148 C201,136.954305 209.954305,128 221,128 Z M301,128 C312.045695,128 321,136.954305 321,148 C321,159.045695 312.045695,168 301,168 C289.954305,168 281,159.045695 281,148 C281,136.954305 289.954305,128 301,128 Z M381,128 C392.045695,128 401,136.954305 401,148 C401,159.045695 392.045695,168 381,168 C369.954305,168 361,159.045695 361,148 C361,136.954305 369.954305,128 381,128 Z M461,128 C472.045695,128 481,136.954305 481,148 C481,159.045695 472.045695,168 461,168 C449.954305,168 441,159.045695 441,148 C441,136.954305 449.954305,128 461,128 Z M541,128 C552.045695,128 561,136.954305 561,148 C561,159.045695 552.045695,168 541,168 C529.954305,168 521,159.045695 521,148 C521,136.954305 529.954305,128 541,128 Z M621,128 C632.045695,128 641,136.954305 641,148 C641,159.045695 632.045695,168 621,168 C609.954305,168 601,159.045695 601,148 C601,136.954305 609.954305,128 621,128 Z M-19,48 C-7.954305,48 1,56.954305 1,68 C1,79.045695 -7.954305,88 -19,88 C-30.045695,88 -39,79.045695 -39,68 C-39,56.954305 -30.045695,48 -19,48 Z M61,48 C72.045695,48 81,56.954305 81,68 C81,79.045695 72.045695,88 61,88 C49.954305,88 41,79.045695 41,68 C41,56.954305 49.954305,48 61,48 Z M141,48 C152.045695,48 161,56.954305 161,68 C161,79.045695 152.045695,88 141,88 C129.954305,88 121,79.045695 121,68 C121,56.954305 129.954305,48 141,48 Z M221,48 C232.045695,48 241,56.954305 241,68 C241,79.045695 232.045695,88 221,88 C209.954305,88 201,79.045695 201,68 C201,56.954305 209.954305,48 221,48 Z M301,48 C312.045695,48 321,56.954305 321,68 C321,79.045695 312.045695,88 301,88 C289.954305,88 281,79.045695 281,68 C281,56.954305 289.954305,48 301,48 Z M381,48 C392.045695,48 401,56.954305 401,68 C401,79.045695 392.045695,88 381,88 C369.954305,88 361,79.045695 361,68 C361,56.954305 369.954305,48 381,48 Z M461,48 C472.045695,48 481,56.954305 481,68 C481,79.045695 472.045695,88 461,88 C449.954305,88 441,79.045695 441,68 C441,56.954305 449.954305,48 461,48 Z M541,48 C552.045695,48 561,56.954305 561,68 C561,79.045695 552.045695,88 541,88 C529.954305,88 521,79.045695 521,68 C521,56.954305 529.954305,48 541,48 Z M621,48 C632.045695,48 641,56.954305 641,68 C641,79.045695 632.045695,88 621,88 C609.954305,88 601,79.045695 601,68 C601,56.954305 609.954305,48 621,48 Z" id="Combined-Shape" fill="#FFD4CB" mask="url(#upper-bodydotted-shirt-mask-2)" transform="translate(301.000000, 308.000000) rotate(15.000000) translate(-301.000000, -308.000000)"/></g><path d="M1043.77647,171.88 C1044.66953,168.677 1042.80724,165.355 1039.60486,164.435 C1036.52377,163.551 1033.2843,165.209 1032.20682,168.221 L1022.67687,194.849 L1028.28378,164.784 C1028.93328,161.302 1026.64801,157.949 1023.16499,157.271 C1019.58975,156.575 1016.14482,158.959 1015.54644,162.543 L1010.82356,190.817 L1012.77606,162.202 C1013.00458,158.847 1010.33944,156 1006.96868,156 C1004.08102,156 1001.62938,158.111 1001.20841,160.961 L997.353526,187.054 L997.777503,164.935 C997.83263,162.058 995.55839,159.671 992.674747,159.582 C989.953478,159.497 987.615091,161.495 987.282324,164.192 L985.056196,182.207 L935.314603,189.938 C914.833419,193.122 897.438345,206.605 889.283558,225.618 L876,263 L941.150091,295 L959.191654,254 L1017.97002,225.682 C1025.93237,221.799 1031.849,214.701 1034.22146,206.181 L1043.77647,171.88 Z" id="Hand-Color" fill="#CCB2FF"/><path d="M582.995199,184.804079 L604.538349,624.108679 L596.547951,624.500521 L575.004801,185.195921 L582.995199,184.804079 Z M480.550518,148.157768 L514.419,213.433 L579.42128,151.598164 L646.309,202.048 L654.055815,156.168276 L661.944185,157.500054 L652.00613,216.36501 L580.02,162.069 L512.22114,226.566515 L473.449482,151.842232 L480.550518,148.157768 Z" id="Combined-Shape" fill="#000" fill-rule="nonzero"/><path d="M500.4835,550 L601.02451,572.522687 L610.861074,564.652339 C623.633733,554.43238 642.358447,557.034842 651.868557,570.35097 L670.152007,595.950838 C674.332023,601.804378 673.868797,609.784661 669.038867,615.11451 L657.992325,627.305304 C651.528125,634.439087 642.12918,640 632.508255,640 L498,640 L500.4835,550 Z" id="Hand-Color" fill="#CCB2FF"/><polygon id="Stroke-103" fill="#000" fill-rule="nonzero" points="420.017061 314.101424 427.918239 315.354976 394.918239 523.354976 387.017061 522.101424"/><polygon id="Stroke-105" fill="#000" fill-rule="nonzero" points="375.607383 512.728043 489.607383 545.728043 487.382918 553.412557 373.382918 520.412557"/><polygon id="Stroke-107" fill="#000" fill-rule="nonzero" points="636.353718 595.345691 641.654309 589.353718 673.646282 617.654309 668.345691 623.646282"/><polygon id="Stroke-109" fill="#000" fill-rule="nonzero" points="623.859748 621.361738 626.638262 613.859748 661.140252 626.638262 658.361738 634.140252"/><polygon id="Stroke-111" fill="#000" fill-rule="nonzero" points="712.965894 313.478768 735.965894 488.478768 728.034106 489.521232 705.034106 314.521232"/><path d="M480,640 L517.506672,640 L523.978361,555.006459 C524.270339,551.059436 521.577767,547.515597 517.702337,546.745154 L489.560873,541.152456 C484.724806,540.191398 480.218584,543.895912 480.218584,548.833933 L480,640 Z" id="Fill-113" fill="#FFD4CB"/><path d="M869.776896,280.75029 L941.613347,313.279444 C945.940892,315.239419 951.0068,313.049744 952.575199,308.543007 L958.542886,291.404767 C959.8831,287.556035 958.191143,283.302068 954.582032,281.449421 L885.350279,245.89304 C881.175189,243.748503 876.07042,245.609174 874.227003,249.946395 L865.654618,270.11086 C863.918817,274.19531 865.751273,278.927735 869.776896,280.75029" id="Fill-115" fill="#FFD4CB"/></g></g></g></g></g><g id="Speech-Bubble" transform="translate(1345.000000, 674.500000) scale(-1, 1) translate(-1345.000000, -674.500000) translate(1041.000000, 261.000000)" fill="#000" fill-rule="nonzero"><path d="M304,0 C471.894564,0 608,136.105436 608,304 C608,413.178395 550.445987,508.91433 464.0228,562.522965 C542.239199,640.275222 555.390585,728.731256 503.314385,826.874863 L503.314385,826.874863 L496.247593,823.125137 L497.763047,820.235629 C547.130951,724.987662 532.933407,640.21071 455.000901,564.875954 L456.94879,566.779078 C412.020686,592.985671 359.763735,608 304,608 C136.105436,608 0,471.894564 0,304 C0,136.105436 136.105436,0 304,0 Z M304,8 C140.523714,8 8,140.523714 8,304 C8,467.476286 140.523714,600 304,600 C467.476286,600 600,467.476286 600,304 C600,140.523714 467.476286,8 304,8 Z" id="Combined-Shape"/></g><g id="Object" transform="translate(1347.000000, 565.000000) rotate(-10.000000) translate(-1347.000000, -565.000000) translate(1047.000000, 265.000000) scale(1.2 1.2)"><g id="Object/Blood Bag" stroke="none" stroke-width="1" fill="none" fill-rule="evenodd"><g id="Group" transform="translate(150.000000, 77.000000)"><path d="M110,0 C120.930636,-2.0079252e-15 129.813225,8.76872859 129.997093,19.6555106 L130,20 L180,20 C191.045695,20 200,28.954305 200,40 L200,210 C200,237.614237 177.614237,260 150,260 L138.739601,260.000869 C134.298871,277.2527 118.638081,290 100,290 C81.3619188,290 65.701129,277.2527 61.2603987,260.000869 L50,260 C22.3857625,260 3.38176876e-15,237.614237 0,210 L0,40 C-1.3527075e-15,28.954305 8.954305,20 20,20 L70,20 C70,8.954305 78.954305,2.02906125e-15 90,0 L110,0 Z M105,15 L95,15 C92.2385763,15 90,17.2385763 90,20 C90,22.7614237 92.2385763,25 95,25 L95,25 L105,25 C107.761424,25 110,22.7614237 110,20 C110,17.2385763 107.761424,15 105,15 L105,15 Z" id="Combined-Shape" fill="#DFE9EE"/><path d="M30,40 L170,40 C175.522847,40 180,44.4771525 180,50 L180,212.5 C180,227.687831 167.687831,240 152.5,240 L130.542476,240 C127.094576,240 123.889877,241.776197 122.062493,244.700011 L112.5,260 C108.185275,266.903559 99.0910594,269.002225 92.1875,264.6875 C90.2893663,263.501166 88.6863336,261.898134 87.5,260 L77.9375066,244.700011 C76.1101231,241.776197 72.9054239,240 69.4575236,240 L47.5,240 C32.3121694,240 20,227.687831 20,212.5 L20,50 C20,44.4771525 24.4771525,40 30,40 Z" id="Rectangle" fill="#FF9191"/><path d="M104,276 L104,290.188612 C104,301.219835 97.0252136,311.028158 86.6416971,314.665943 L86.2649111,314.794733 C79.0566869,317.197475 74.1574396,323.874212 74.003724,331.444406 L74,331.811388 L74,350 L66,350 L66,331.811388 C66,320.780165 72.9747864,310.971842 83.3583029,307.334057 L83.7350889,307.205267 C90.9433131,304.802525 95.8425604,298.125788 95.996276,290.555594 L96,290.188612 L96,276 L104,276 Z" id="Path-87" fill="#000" fill-rule="nonzero"/><rect id="Rectangle" fill="#FFF" x="50" y="85" width="100" height="100"/><path d="M98,141.5 L98,149.5 L40,149.5 L40,141.5 L98,141.5 Z M160,121.5 L160,129.5 L40,129.5 L40,121.5 L160,121.5 Z M160,101 L160,109 L40,109 L40,101 L160,101 Z" id="Combined-Shape" fill="#000" fill-rule="nonzero"/></g></g></g><g id="Table" transform="translate(847.000000, 1451.000000)"><path d="M433,549 L518.585349,181.838855 C527.027173,145.623427 559.310352,120 596.496662,120 L769.503338,120 C806.689648,120 838.972827,145.623427 847.414651,181.838855 L933,549 L933,549 L993,549 L893,80 L473,80 L373,549 L433,549 Z" id="Path-59" fill="#E7D6A0"/><path d="M1180,0 L1180,40 L893,80 C893,103.195959 874.195959,122 851,122 L721.955,122 L813,549 L753,549 L667.414651,181.838855 C658.972827,145.623427 626.689648,120 589.503338,120 L589.503338,120 L416.496662,120 C379.310352,120 347.027173,145.623427 338.585349,181.838855 L338.585349,181.838855 L253,549 L193,549 L293,80 L0,40 L0,0 L1180,0 Z" id="Combined-Shape" fill="#CCB465"/></g><g id="Laptop" transform="translate(878.000000, 1135.518879)"><path d="M30,315.481121 C13.4314575,315.481121 -5.09561708e-13,302.049664 -5.1159077e-13,285.481121 L296.721,285.481 L400.627834,-3.69482223e-13 C416.227133,5.6776808 424.31877,22.8820126 418.744017,38.5183914 L320,315.477 L320,315.481121 L30,315.481121 Z" id="Combined-Shape" fill="#6F858E"/><path d="M383.180508,37.2777668 L390.687253,40.0434097 L302.163932,280.320996 C300.173765,285.722877 295.085682,289.345069 289.35233,289.477371 L289.027128,289.481121 L20,289.481121 L20,281.481121 L289.027128,281.481121 C291.4571,281.481121 293.638051,280.016852 294.565732,277.788563 L294.657187,277.555354 L383.180508,37.2777668 Z" id="Path-68" fill="#000" fill-rule="nonzero"/></g><g id="Plant" transform="translate(1536.000000, 1000.000000)"><rect id="Rectangle" fill="#6F858E" x="50" y="432" width="200" height="20"/><path d="M150,0 C191.421356,0 225,22.3857625 225,50 C225,56.0966351 223.363268,61.9384175 220.366762,67.3407096 C253.34879,85.3421364 275,115.648304 275,150 C275,191.207608 243.844077,226.593732 199.349114,241.904866 C199.776875,244.538309 200,247.243097 200,250 C200,277.614237 177.614237,300 150,300 C122.385763,300 100,277.614237 100,250 C100,247.243097 100.223125,244.538309 100.652302,241.902707 C56.1559228,226.593732 25,191.207608 25,150 C25,115.648304 46.6512099,85.3421364 79.6321006,67.3387212 C76.6367315,61.9384175 75,56.0966351 75,50 C75,22.3857625 108.578644,0 150,0 Z" id="Combined-Shape" fill="#8ED1B0" fill-rule="nonzero"/><path d="M150,54 C154.334914,54 157.864543,57.4478378 157.996193,61.7508207 L158,62 L158,377 C158,381.418278 154.418278,385 150,385 C145.665086,385 142.135457,381.552162 142.003807,377.249179 L142,377 L142,62 C142,57.581722 145.581722,54 150,54 Z" id="Path-98" fill="#CAEFDD" fill-rule="nonzero"/><path d="M25.6155281,352 L274.384472,352 C285.430167,352 294.384472,360.954305 294.384472,372 C294.384472,373.635236 294.183925,375.2643 293.787322,376.850713 L283.787322,416.850713 C281.561487,425.754053 273.561825,432 264.384472,432 L35.6155281,432 C26.4381753,432 18.4385131,425.754053 16.2126781,416.850713 L6.21267813,376.850713 C3.53370359,366.134814 10.0489175,355.276125 20.7648156,352.59715 C22.3512277,352.200547 23.980292,352 25.6155281,352 Z" id="Rectangle" fill="#DAE6EB"/></g></g></svg>