<svg viewBox="1387.5 1620.3007518796994 225.0000000000002 413.53383458646584" xmlns="http://www.w3.org/2000/svg" overflow="visible" xmlns:xlink="http://www.w3.org/1999/xlink" width="225.0000000000002px" height="413.53383458646584px"><g id="Master/Stickers/Blood bag" stroke="none" stroke-width="1" fill="none" fill-rule="evenodd"><g id="Group" transform="translate(1400.000000, 1654.000000)"><path d="M110,0 C120.930636,-2.0079252e-15 129.813225,8.76872859 129.997093,19.6555106 L130,20 L180,20 C191.045695,20 200,28.954305 200,40 L200,210 C200,237.614237 177.614237,260 150,260 L138.739601,260.000869 C134.298871,277.2527 118.638081,290 100,290 C81.3619188,290 65.701129,277.2527 61.2603987,260.000869 L50,260 C22.3857625,260 3.38176876e-15,237.614237 0,210 L0,40 C-1.3527075e-15,28.954305 8.954305,20 20,20 L70,20 C70,8.954305 78.954305,2.02906125e-15 90,0 L110,0 Z M105,15 L95,15 C92.2385763,15 90,17.2385763 90,20 C90,22.7614237 92.2385763,25 95,25 L95,25 L105,25 C107.761424,25 110,22.7614237 110,20 C110,17.2385763 107.761424,15 105,15 L105,15 Z" id="Combined-Shape" fill="#DFE9EE"/><path d="M30,40 L170,40 C175.522847,40 180,44.4771525 180,50 L180,212.5 C180,227.687831 167.687831,240 152.5,240 L130.542476,240 C127.094576,240 123.889877,241.776197 122.062493,244.700011 L112.5,260 C108.185275,266.903559 99.0910594,269.002225 92.1875,264.6875 C90.2893663,263.501166 88.6863336,261.898134 87.5,260 L77.9375066,244.700011 C76.1101231,241.776197 72.9054239,240 69.4575236,240 L47.5,240 C32.3121694,240 20,227.687831 20,212.5 L20,50 C20,44.4771525 24.4771525,40 30,40 Z" id="Rectangle" fill="#FF9191"/><path d="M104,276 L104,290.188612 C104,301.219835 97.0252136,311.028158 86.6416971,314.665943 L86.2649111,314.794733 C79.0566869,317.197475 74.1574396,323.874212 74.003724,331.444406 L74,331.811388 L74,350 L66,350 L66,331.811388 C66,320.780165 72.9747864,310.971842 83.3583029,307.334057 L83.7350889,307.205267 C90.9433131,304.802525 95.8425604,298.125788 95.996276,290.555594 L96,290.188612 L96,276 L104,276 Z" id="Path-87" fill="#000" fill-rule="nonzero"/><rect id="Rectangle" fill="#FFF" x="50" y="85" width="100" height="100"/><path d="M98,141.5 L98,149.5 L40,149.5 L40,141.5 L98,141.5 Z M160,121.5 L160,129.5 L40,129.5 L40,121.5 L160,121.5 Z M160,101 L160,109 L40,109 L40,101 L160,101 Z" id="Combined-Shape" fill="#000" fill-rule="nonzero"/></g></g></svg>