<svg viewBox="53.25 125.42944785276075 505.8749999999999 418.09815950920245" fill="none" xmlns="http://www.w3.org/2000/svg" xmlns:xlink="http://www.w3.org/1999/xlink" overflow="visible" width="505.8749999999999px" height="418.09815950920245px"><g id="Master/Spot Illustration/Support"><g id="Support"><path id="Fill 19" fill-rule="evenodd" clip-rule="evenodd" d="M551.355 414.33H165.101C164.824 414.33 164.601 414.106 164.601 413.83C164.601 413.554 164.824 413.33 165.101 413.33H551.355C551.631 413.33 551.855 413.554 551.855 413.83C551.855 414.106 551.631 414.33 551.355 414.33" fill="black"/><g id="Store Option" transform="translate(221.966 131.829) scale(0.8454545454545455 0.8473684210526315)"><g id="Store Option/Bucket Hat"><g id="Bucket Hat"><g id="Group 9"><path id="Hat" fill-rule="evenodd" clip-rule="evenodd" d="M89.725 65.4998L80.577 71.4998L74.58 88.4288L74.5 88.4378L68.499 97.3458H150.075L143.075 88.4378H143.077L138.077 71.4998L129.325 65.4998H89.725Z" fill="#4B69FD"/><path id="Fill 7" fill-rule="evenodd" clip-rule="evenodd" d="M128.165 75.4844C127.889 75.4844 127.665 75.7084 127.665 75.9844V84.0404C127.665 84.3164 127.889 84.5404 128.165 84.5404C128.441 84.5404 128.665 84.3164 128.665 84.0404V75.9844C128.665 75.7084 128.441 75.4844 128.165 75.4844V75.4844ZM115.272 75.4844C114.996 75.4844 114.772 75.7084 114.772 75.9844V84.0404C114.772 84.3164 114.996 84.5404 115.272 84.5404C115.549 84.5404 115.772 84.3164 115.772 84.0404V75.9844C115.772 75.7084 115.549 75.4844 115.272 75.4844V75.4844ZM102.381 75.4844C102.104 75.4844 101.881 75.7084 101.881 75.9844V84.0404C101.881 84.3164 102.104 84.5404 102.381 84.5404C102.657 84.5404 102.881 84.3164 102.881 84.0404V75.9844C102.881 75.7084 102.657 75.4844 102.381 75.4844V75.4844ZM89.4889 75.4844C89.2129 75.4844 88.9889 75.7084 88.9889 75.9844V84.0404C88.9889 84.3164 89.2129 84.5404 89.4889 84.5404C89.7659 84.5404 89.9889 84.3164 89.9889 84.0404V75.9844C89.9889 75.7084 89.7659 75.4844 89.4889 75.4844V75.4844ZM134.592 71.4214H83.0619C82.7859 71.4214 82.5619 71.6444 82.5619 71.9214C82.5619 72.1974 82.7859 72.4214 83.0619 72.4214H134.592C134.868 72.4214 135.092 72.1974 135.092 71.9214C135.092 71.6444 134.868 71.4214 134.592 71.4214V71.4214ZM69.4389 96.8464L74.7659 88.9384H142.833L149.048 96.8464H69.4389ZM80.9919 71.8264L89.8759 66.0004H129.17L137.647 71.8114L142.408 87.9384H75.2849L80.9919 71.8264ZM150.47 97.0384L143.53 88.2064L138.557 71.3584C138.524 71.2484 138.455 71.1524 138.36 71.0884L129.608 65.0884C129.524 65.0304 129.426 65.0004 129.325 65.0004H89.7269C89.6289 65.0004 89.5339 65.0284 89.4519 65.0824L80.3029 71.0824C80.2119 71.1414 80.1429 71.2304 80.1049 71.3334L74.1739 88.0794C74.1439 88.1064 74.1069 88.1254 74.0849 88.1594L68.0849 97.0674C67.9819 97.2204 67.9719 97.4184 68.0589 97.5824C68.1449 97.7454 68.3149 97.8464 68.4999 97.8464H150.076C150.268 97.8464 150.442 97.7374 150.525 97.5654C150.609 97.3934 150.588 97.1884 150.47 97.0384V97.0384Z" fill="black"/></g><path id="Combined Shape" fill-rule="evenodd" clip-rule="evenodd" d="M40.7319 144.289H102.562C104.298 144.289 105.706 142.882 105.706 141.145C105.706 139.409 104.298 138.001 102.562 138.001H40.7319C38.9959 138.001 37.5879 139.409 37.5879 141.145C37.5879 142.882 38.9959 144.289 40.7319 144.289ZM40.7325 155.826H127.538C129.274 155.826 130.682 154.418 130.682 152.682C130.682 150.946 129.274 149.538 127.538 149.538H40.7325C38.9965 149.538 37.5885 150.946 37.5885 152.682C37.5885 154.418 38.9965 155.826 40.7325 155.826Z" fill="#EEF2F8"/><path id="Combined Shape_2" fill-rule="evenodd" clip-rule="evenodd" d="M30.7521 30.4499C30.7521 27.3299 33.2901 24.7919 36.4101 24.7919H182.861C185.981 24.7919 188.519 27.3299 188.519 30.4499V125.969H30.7521V30.4499ZM29.7521 126.479V159.085C29.7521 162.756 32.7391 165.743 36.4101 165.743H182.861C186.532 165.743 189.519 162.756 189.519 159.085V30.4499C189.519 26.7789 186.532 23.7919 182.861 23.7919H36.4101C32.7391 23.7919 29.7521 26.7789 29.7521 30.4499V126.459C29.752 126.462 29.752 126.465 29.752 126.469C29.752 126.472 29.752 126.475 29.7521 126.479ZM30.7521 126.969H188.519V159.085C188.519 162.205 185.981 164.743 182.861 164.743H36.4101C33.2901 164.743 30.7521 162.205 30.7521 159.085V126.969Z" fill="black"/></g></g></g><g id="Internet Window"><path id="Fill 23" fill-rule="evenodd" clip-rule="evenodd" d="M469.856 382.355H319.035C313.898 382.355 309.734 378.191 309.734 373.054L310.279 255.93C310.279 250.793 314.443 246.629 319.58 246.629H470.401C475.538 246.629 479.702 250.793 479.702 255.93L479.157 373.054C479.157 378.191 474.993 382.355 469.856 382.355" fill="white"/><path id="Fill 25" fill-rule="evenodd" clip-rule="evenodd" d="M319.58 247.129C314.727 247.129 310.779 251.077 310.779 255.93L310.234 373.057C310.234 377.907 314.182 381.855 319.035 381.855H469.856C474.708 381.855 478.657 377.907 478.657 373.054L479.202 255.927C479.202 251.077 475.254 247.129 470.401 247.129H319.58ZM469.856 382.855H319.035C313.631 382.855 309.234 378.459 309.234 373.054L309.779 255.927C309.779 250.525 314.176 246.129 319.58 246.129H470.401C475.805 246.129 480.202 250.525 480.202 255.93L479.657 373.057C479.657 378.459 475.26 382.855 469.856 382.855V382.855Z" fill="black"/><path id="Fill 27" fill-rule="evenodd" clip-rule="evenodd" d="M470.402 246.629H319.582C314.444 246.629 310.28 250.793 310.28 255.93L310.268 260.423H479.691L479.703 255.93C479.703 250.793 475.539 246.629 470.402 246.629" fill="#EEF2F8"/><path id="Fill 29" fill-rule="evenodd" clip-rule="evenodd" d="M310.769 259.923H479.192L479.203 255.928C479.203 251.077 475.255 247.129 470.402 247.129H319.582C314.728 247.129 310.78 251.077 310.78 255.93L310.769 259.923ZM480.189 260.923H309.766L309.78 255.928C309.78 250.526 314.177 246.129 319.582 246.129H470.402C475.806 246.129 480.203 250.526 480.203 255.93L480.189 260.923Z" fill="black"/><path id="Fill 31" fill-rule="evenodd" clip-rule="evenodd" d="M320.632 254.247C320.632 255.95 319.252 257.33 317.549 257.33C315.846 257.33 314.465 255.95 314.465 254.247C314.465 252.544 315.846 251.164 317.549 251.164C319.252 251.164 320.632 252.544 320.632 254.247" fill="#FF4200"/><path id="Fill 33" fill-rule="evenodd" clip-rule="evenodd" d="M317.549 251.664C316.125 251.664 314.966 252.823 314.966 254.247C314.966 255.672 316.125 256.831 317.549 256.831C318.973 256.831 320.132 255.672 320.132 254.247C320.132 252.823 318.973 251.664 317.549 251.664M317.549 257.831C315.573 257.831 313.966 256.223 313.966 254.247C313.966 252.271 315.573 250.664 317.549 250.664C319.525 250.664 321.132 252.271 321.132 254.247C321.132 256.223 319.525 257.831 317.549 257.831" fill="black"/><path id="Fill 35" fill-rule="evenodd" clip-rule="evenodd" d="M331.645 254.247C331.645 255.95 330.265 257.33 328.562 257.33C326.859 257.33 325.478 255.95 325.478 254.247C325.478 252.544 326.859 251.164 328.562 251.164C330.265 251.164 331.645 252.544 331.645 254.247" fill="#FFBA00"/><path id="Fill 37" fill-rule="evenodd" clip-rule="evenodd" d="M328.562 251.664C327.138 251.664 325.979 252.823 325.979 254.247C325.979 255.672 327.138 256.831 328.562 256.831C329.986 256.831 331.145 255.672 331.145 254.247C331.145 252.823 329.986 251.664 328.562 251.664M328.562 257.831C326.586 257.831 324.979 256.223 324.979 254.247C324.979 252.271 326.586 250.664 328.562 250.664C330.538 250.664 332.145 252.271 332.145 254.247C332.145 256.223 330.538 257.831 328.562 257.831" fill="black"/><path id="Fill 39" fill-rule="evenodd" clip-rule="evenodd" d="M342.657 254.247C342.657 255.95 341.277 257.33 339.574 257.33C337.871 257.33 336.49 255.95 336.49 254.247C336.49 252.544 337.871 251.164 339.574 251.164C341.277 251.164 342.657 252.544 342.657 254.247" fill="#009E80"/><path id="Fill 41" fill-rule="evenodd" clip-rule="evenodd" d="M339.574 251.664C338.15 251.664 336.991 252.823 336.991 254.247C336.991 255.672 338.15 256.831 339.574 256.831C340.998 256.831 342.157 255.672 342.157 254.247C342.157 252.823 340.998 251.664 339.574 251.664M339.574 257.831C337.598 257.831 335.991 256.223 335.991 254.247C335.991 252.271 337.598 250.664 339.574 250.664C341.55 250.664 343.157 252.271 343.157 254.247C343.157 256.223 341.55 257.831 339.574 257.831" fill="black"/><path id="Fill 43" fill-rule="evenodd" clip-rule="evenodd" d="M405.044 369.886H326.451C324.249 369.886 322.463 368.1 322.463 365.898V337.803C322.463 335.6 324.249 333.815 326.451 333.815H405.044C407.247 333.815 409.032 335.6 409.032 337.803V365.898C409.032 368.1 407.247 369.886 405.044 369.886" fill="#EEF2F8"/><path id="Fill 45" fill-rule="evenodd" clip-rule="evenodd" d="M462.873 370.744H422.596C420.393 370.744 418.608 368.959 418.608 366.756V278.39C418.608 276.187 420.393 274.402 422.596 274.402H462.873C465.075 274.402 466.861 276.187 466.861 278.39V366.756C466.861 368.959 465.075 370.744 462.873 370.744" fill="#EEF2F8"/><path id="Fill 47" fill-rule="evenodd" clip-rule="evenodd" d="M403.458 286.072H328.037C324.958 286.072 322.463 283.576 322.463 280.498C322.463 277.42 324.958 274.925 328.037 274.925H403.458C406.537 274.925 409.032 277.42 409.032 280.498C409.032 283.576 406.537 286.072 403.458 286.072" fill="#EEF2F8"/><path id="Fill 49" fill-rule="evenodd" clip-rule="evenodd" d="M403.458 305.593H328.037C324.958 305.593 322.463 303.098 322.463 300.019C322.463 296.941 324.958 294.446 328.037 294.446H403.458C406.537 294.446 409.032 296.941 409.032 300.019C409.032 303.098 406.537 305.593 403.458 305.593" fill="#EEF2F8"/><path id="Fill 51" fill-rule="evenodd" clip-rule="evenodd" d="M403.458 325.114H328.037C324.958 325.114 322.463 322.619 322.463 319.54C322.463 316.462 324.958 313.967 328.037 313.967H403.458C406.537 313.967 409.032 316.462 409.032 319.54C409.032 322.619 406.537 325.114 403.458 325.114" fill="#EEF2F8"/><path id="Fill 21" fill-rule="evenodd" clip-rule="evenodd" d="M462.88 369.886H422.338C420.135 369.886 418.35 368.1 418.35 365.898V278.912C418.35 276.71 420.135 274.925 422.338 274.925H462.88C465.083 274.925 466.868 276.71 466.868 278.912V365.898C466.868 368.1 465.083 369.886 462.88 369.886" fill="#EEF2F8"/></g><g id="Support Person" transform="translate(373 108) scale(1 1)"><g id="Support Person/Boy"><g id="Group 6"><path id="Fill 1" fill-rule="evenodd" clip-rule="evenodd" d="M174.682 99.6204C174.682 141.075 141.076 174.682 99.6196 174.682C58.1636 174.682 24.5576 141.075 24.5576 99.6204C24.5576 58.1644 58.1636 24.5584 99.6196 24.5584C141.076 24.5584 174.682 58.1644 174.682 99.6204" fill="#EEF2F8"/></g><g id="Character"><path id="Mask" fill-rule="evenodd" clip-rule="evenodd" d="M174.682 99.6204C174.682 141.075 141.076 174.682 99.6196 174.682C58.1636 174.682 24.5576 141.075 24.5576 99.6204C24.5576 58.1644 58.1636 24.5584 99.6196 24.5584C141.076 24.5584 174.682 58.1644 174.682 99.6204" fill="#EEF2F8"/><mask id="mask0520b3a05-4fb1-4428-b082-dc7ae6908b4a" mask-type="alpha" maskUnits="userSpaceOnUse" x="24" y="24" width="151" height="151" fill="#ffffff"><path id="Mask_2" fill-rule="evenodd" clip-rule="evenodd" d="M174.682 99.6204C174.682 141.075 141.076 174.682 99.6196 174.682C58.1636 174.682 24.5576 141.075 24.5576 99.6204C24.5576 58.1644 58.1636 24.5584 99.6196 24.5584C141.076 24.5584 174.682 58.1644 174.682 99.6204" fill="#ffffff"/></mask><g mask="url(#mask0520b3a05-4fb1-4428-b082-dc7ae6908b4a)"><g id="Body"><path id="Sweater" fill-rule="evenodd" clip-rule="evenodd" d="M221.798 233.271C221.798 233.271 216.188 222.391 203.807 173.529C191.426 124.666 146.213 113.786 146.213 113.786V113.788C139.674 111.701 132.869 110.349 125.914 109.799C125.882 109.796 125.851 109.792 125.819 109.79C124.761 109.708 123.698 109.648 122.634 109.603C122.526 109.598 122.418 109.588 122.31 109.584C121.143 109.539 119.972 109.515 118.799 109.515H111.573C111.572 109.519 111.569 109.522 111.567 109.526L111.51 109.515C111.51 109.516 111.51 109.516 111.51 109.516L111.504 109.515C109.569 113.59 104.777 116.482 99.1547 116.495C93.5327 116.482 88.7407 113.59 86.8067 109.515L86.8007 109.516C86.8007 109.516 86.7997 109.516 86.7997 109.515L86.7437 109.526C86.7407 109.522 86.7387 109.519 86.7377 109.515H79.5117C78.3387 109.515 77.1677 109.539 76.0007 109.584C75.8927 109.588 75.7847 109.598 75.6767 109.603C74.6117 109.648 73.5487 109.708 72.4907 109.79C72.4597 109.792 72.4277 109.796 72.3967 109.799C65.4417 110.349 58.6357 111.701 52.0977 113.788V113.786C52.0977 113.786 6.88372 124.666 -5.49628 173.529C-17.8773 222.391 -23.4883 233.271 -23.4883 233.271H19.6397C19.6397 233.271 27.1607 198.833 40.4757 179.15C39.5027 195.659 36.4577 222.143 36.4577 222.143H161.852C161.852 222.143 158.808 195.659 157.834 179.15C171.15 198.833 178.671 233.271 178.671 233.271H221.798Z" fill="#409B81"/><path id="Fill 3" fill-rule="evenodd" clip-rule="evenodd" d="M179.08 232.759H220.998C219.595 229.581 213.884 215.384 203.31 173.654C191.306 126.276 147.669 114.683 146.131 114.292C146.106 114.288 146.081 114.283 146.057 114.275C139.507 112.185 132.716 110.85 125.872 110.309C125.87 110.309 125.773 110.3 125.771 110.3C124.727 110.218 123.67 110.158 122.612 110.114L122.29 110.096C121.129 110.051 119.966 110.027 118.798 110.027H111.822C109.65 114.265 104.72 116.993 99.1556 117.007C93.5896 116.993 88.6596 114.265 86.4886 110.027H79.5116C78.3446 110.027 77.1806 110.051 76.0196 110.096L75.6996 110.113C74.6396 110.158 73.5826 110.218 72.5306 110.3C65.5936 110.85 58.8026 112.185 52.2526 114.275C52.2276 114.283 52.2036 114.288 52.1786 114.292C50.6306 114.686 7.00156 126.282 -5.00044 173.654C-15.5744 215.384 -21.2854 229.581 -22.6884 232.759H19.2296C20.1276 228.83 27.6086 197.255 40.0516 178.862C40.1806 178.671 40.4226 178.591 40.6406 178.664C40.8576 178.738 40.9996 178.948 40.9866 179.179C40.1016 194.177 37.4776 217.682 37.0306 221.631H161.279C160.832 217.682 158.208 194.177 157.323 179.179C157.309 178.948 157.452 178.738 157.67 178.664C157.888 178.591 158.129 178.671 158.258 178.862C170.701 197.255 178.182 228.83 179.08 232.759M221.798 233.783H178.67C178.43 233.783 178.222 233.615 178.17 233.38C178.098 233.046 170.922 200.644 158.465 181.045C159.535 197.418 162.332 221.83 162.361 222.085C162.378 222.231 162.332 222.375 162.234 222.485C162.137 222.593 161.998 222.655 161.852 222.655H36.4576C36.3116 222.655 36.1726 222.593 36.0756 222.485C35.9776 222.375 35.9326 222.231 35.9486 222.085C35.9776 221.83 38.7746 197.418 39.8446 181.045C27.3876 200.644 20.2116 233.046 20.1396 233.38C20.0886 233.615 19.8796 233.783 19.6396 233.783H-23.4884C-23.6664 233.783 -23.8324 233.691 -23.9254 233.538C-24.0184 233.385 -24.0244 233.196 -23.9434 233.037C-23.8874 232.928 -18.1984 221.573 -5.99344 173.402C6.32056 124.802 51.5226 113.398 51.9776 113.287C51.9796 113.287 51.9806 113.286 51.9826 113.286C58.5946 111.18 65.4496 109.835 72.3556 109.289C73.5146 109.196 74.5826 109.137 75.6546 109.091L75.9816 109.071C77.1546 109.027 78.3306 109.003 79.5116 109.003H86.7376C86.7606 109.002 86.7846 109.002 86.7996 109.003C86.9966 109.003 87.1836 109.117 87.2686 109.295C89.1906 113.345 93.8576 115.971 99.1556 115.983C104.453 115.971 109.119 113.345 111.041 109.295C111.131 109.107 111.31 108.976 111.532 109.004C111.545 109.003 111.559 109.003 111.573 109.003H118.798C119.979 109.003 121.156 109.027 122.329 109.071L122.657 109.092C123.726 109.137 124.795 109.196 125.859 109.28C125.862 109.28 125.958 109.289 125.962 109.289C132.86 109.835 139.715 111.18 146.327 113.286C146.329 113.286 146.33 113.287 146.332 113.287C146.787 113.398 191.989 124.802 204.303 173.402C216.528 221.651 222.197 232.928 222.253 233.036C222.335 233.196 222.328 233.385 222.235 233.537C222.143 233.691 221.976 233.783 221.798 233.783" fill="black"/></g><g id="Head"><path id="Combined Shape" fill-rule="evenodd" clip-rule="evenodd" d="M103.849 91.4334C111.497 88.9177 117.052 81.3558 117.052 72.4177C117.052 61.4237 108.648 52.5117 98.2807 52.5117C87.9147 52.5117 79.5107 61.4237 79.5107 72.4177C79.5107 81.3561 85.0659 88.9183 92.7141 91.4337L86.6851 110.235C86.9271 110.745 87.2151 111.238 87.5421 111.708C89.8391 114.998 94.1371 117.217 99.0711 117.217H99.0721C102.596 117.217 105.796 116.085 108.173 114.24C109.6 113.132 110.73 111.767 111.457 110.235L105.429 91.4334H103.849ZM101.157 92.0915C100.219 92.2444 99.2588 92.3237 98.2807 92.3237C97.4178 92.3237 96.5684 92.2619 95.7364 92.1424C96.5687 92.2623 97.4185 92.3244 98.2821 92.3244C99.2596 92.3244 100.22 92.2447 101.157 92.0915Z" fill="#DCAD7F"/><path id="Combined Shape_2" fill-rule="evenodd" clip-rule="evenodd" d="M80.024 72.4182C80.024 61.7232 88.214 53.0242 98.282 53.0242C108.349 53.0242 116.54 61.7232 116.54 72.4182C116.54 81.5679 110.543 89.2591 102.505 91.2886C99.7738 91.972 96.8931 91.98 94.1558 91.3127C86.0687 89.3207 80.024 81.6046 80.024 72.4182ZM92.0747 91.7509C84.4786 89.0085 79 81.3778 79 72.4182C79 61.1592 87.65 52.0002 98.282 52.0002C108.914 52.0002 117.564 61.1592 117.564 72.4182C117.564 80.8223 112.744 88.0572 105.877 91.1853C105.893 91.2141 105.906 91.2447 105.917 91.277L111.946 110.08C111.986 110.204 111.977 110.338 111.921 110.456C111.171 112.035 109.984 113.483 108.488 114.644C105.925 116.634 102.582 117.729 99.0716 117.729C94.1676 117.729 89.5886 115.535 87.1226 112.002C86.7776 111.508 86.4756 110.987 86.2226 110.455C86.1666 110.338 86.1576 110.204 86.1976 110.08L92.0747 91.7509ZM94.4194 92.4246C93.9582 92.3257 93.5005 92.2089 93.0476 92.074L87.2356 110.197C87.4446 110.615 87.6896 111.023 87.9626 111.416C90.2406 114.679 94.4966 116.706 99.0706 116.706C102.355 116.706 105.476 115.687 107.86 113.836C109.173 112.816 110.223 111.561 110.908 110.196L105.056 91.945H103.929C103.559 92.0645 103.187 92.1719 102.811 92.2673C101.358 92.6391 99.8414 92.8362 98.282 92.8362C96.9595 92.8362 95.6677 92.6945 94.4194 92.4246Z" fill="black"/><path id="Fill 10" fill-rule="evenodd" clip-rule="evenodd" d="M93.0232 78.5496C93.0022 78.5496 92.9822 78.5486 92.9612 78.5456L89.8232 78.1646C89.6762 78.1466 89.5442 78.0666 89.4612 77.9446C89.3782 77.8206 89.3522 77.6696 89.3902 77.5266L90.3402 73.9126C90.4132 73.6396 90.6922 73.4756 90.9662 73.5486C91.2392 73.6196 91.4022 73.9006 91.3302 74.1726L90.5292 77.2186L93.0842 77.5286C93.3652 77.5636 93.5652 77.8186 93.5312 78.0996C93.4992 78.3586 93.2782 78.5496 93.0232 78.5496" fill="black"/><path id="Fill 12" fill-rule="evenodd" clip-rule="evenodd" d="M98.2819 71.9832C98.2819 72.9102 97.8099 73.6602 97.2279 73.6602C96.6449 73.6602 96.1729 72.9102 96.1729 71.9832C96.1729 71.0572 96.6449 70.3062 97.2279 70.3062C97.8099 70.3062 98.2819 71.0572 98.2819 71.9832" fill="black"/><path id="Fill 14" fill-rule="evenodd" clip-rule="evenodd" d="M88.0465 71.9832C88.0465 72.9102 87.5745 73.6602 86.9915 73.6602C86.4095 73.6602 85.9375 72.9102 85.9375 71.9832C85.9375 71.0572 86.4095 70.3062 86.9915 70.3062C87.5745 70.3062 88.0465 71.0572 88.0465 71.9832" fill="black"/><path id="Fill 16" fill-rule="evenodd" clip-rule="evenodd" d="M99.8562 67.992C99.7372 67.992 99.6192 67.951 99.5232 67.868C97.9712 66.538 96.2052 66.55 96.1832 66.555C95.8952 66.573 95.6672 66.335 95.6612 66.053C95.6562 65.77 95.8782 65.538 96.1602 65.531C96.2462 65.525 98.3312 65.497 100.189 67.093C100.404 67.276 100.428 67.599 100.244 67.814C100.143 67.931 100 67.992 99.8562 67.992" fill="black"/><path id="Fill 18" fill-rule="evenodd" clip-rule="evenodd" d="M84.3622 67.992C84.2182 67.992 84.0752 67.931 83.9742 67.813C83.7902 67.599 83.8142 67.276 84.0292 67.092C85.8872 65.498 87.9692 65.527 88.0592 65.531C88.3412 65.538 88.5632 65.77 88.5572 66.053C88.5522 66.335 88.3122 66.575 88.0362 66.555C88.0262 66.569 86.2482 66.537 84.6952 67.869C84.5992 67.951 84.4812 67.992 84.3622 67.992" fill="black"/><path id="Fill 20" fill-rule="evenodd" clip-rule="evenodd" d="M93.076 84.5427C91.1 84.5427 89.622 83.5727 89.599 83.5577C89.365 83.3987 89.303 83.0837 89.459 82.8487C89.617 82.6127 89.934 82.5507 90.169 82.7067C90.295 82.7917 93.29 84.7307 96.232 82.3547C96.452 82.1767 96.773 82.2127 96.951 82.4317C97.129 82.6507 97.095 82.9747 96.875 83.1507C95.566 84.2087 94.236 84.5427 93.076 84.5427" fill="black"/></g><g id="Hair"><path id="Fill 1_2" fill-rule="evenodd" clip-rule="evenodd" d="M120.295 80.2497C117.998 84.5077 114.396 87.5227 109.669 87.5227L109.274 78.7217C109.39 78.7317 109.502 78.7557 109.621 78.7557C111.594 78.7557 113.195 77.1637 113.21 75.1927C113.215 74.4377 112.867 73.7077 112.377 73.1317C111.053 71.5777 109.948 71.4577 108.955 71.6457L107.988 63.1797C107.777 61.3367 106.217 59.9437 104.362 59.9437H86.3378C82.2638 59.9437 79.1018 56.4007 79.5538 52.3527C80.4988 43.8887 85.0338 32.8477 103.953 44.6717C113.452 50.6077 119.412 56.8207 121.49 63.1377C123.348 68.7847 123.116 75.0167 120.295 80.2497" fill="#FCBD21"/><g id="Group 5"><path id="Fill 3_2" fill-rule="evenodd" clip-rule="evenodd" d="M109.809 79.2633L110.158 86.9993C114.08 86.8103 117.504 84.3443 119.842 80.0063C122.47 75.1343 122.893 69.0443 121.003 63.2973C118.978 57.1443 113.15 51.0233 103.681 45.1043C96.0591 40.3413 90.1511 38.9143 86.1271 40.8633C81.9551 42.8813 80.5271 48.2553 80.0631 52.4093C79.8631 54.1973 80.4351 55.9903 81.6321 57.3283C82.8291 58.6643 84.5421 59.4323 86.3371 59.4323H104.362C106.479 59.4323 108.255 61.0173 108.496 63.1213L109.404 71.0713C110.332 71.0103 111.474 71.2833 112.766 72.7993C113.388 73.5303 113.727 74.3813 113.721 75.1973C113.705 77.3773 111.968 79.1643 109.809 79.2633M109.668 88.0343C109.395 88.0343 109.169 87.8203 109.158 87.5463L108.761 78.7433C108.754 78.5953 108.813 78.4513 108.919 78.3493C109.028 78.2473 109.177 78.2023 109.321 78.2103L109.462 78.2283C109.514 78.2353 109.567 78.2433 109.621 78.2433C111.305 78.2433 112.685 76.8733 112.697 75.1893C112.702 74.6193 112.449 74.0063 111.986 73.4633C110.78 72.0463 109.862 71.9953 109.048 72.1483C108.913 72.1743 108.765 72.1423 108.65 72.0563C108.536 71.9723 108.46 71.8433 108.445 71.7023L107.478 63.2373C107.298 61.6523 105.958 60.4553 104.362 60.4553H86.3371C84.2521 60.4553 82.2591 59.5653 80.8701 58.0113C79.4781 56.4553 78.8131 54.3713 79.0441 52.2953C79.7501 45.9723 82.0461 41.7003 85.6821 39.9413C90.0471 37.8293 96.2851 39.2743 104.223 44.2373C113.902 50.2853 119.873 56.5913 121.975 62.9773C123.953 68.9903 123.505 75.3743 120.745 80.4923C118.122 85.3563 114.189 88.0343 109.668 88.0343" fill="black"/></g><path id="Fill 6" fill-rule="evenodd" clip-rule="evenodd" d="M118.709 75.0202C118.709 78.7202 115.709 81.7192 112.01 81.7192C108.31 81.7192 105.311 78.7202 105.311 75.0202C105.311 71.3212 108.31 68.3222 112.01 68.3222C115.709 68.3222 118.709 71.3212 118.709 75.0202" fill="black"/><path id="Fill 8" fill-rule="evenodd" clip-rule="evenodd" d="M96.3155 86.7301C96.0195 86.7301 95.7735 86.4981 95.7595 86.1991C95.7445 85.8911 95.9815 85.6291 96.2895 85.6141C96.3975 85.6091 107.119 84.9751 111.505 75.8201C111.638 75.5411 111.971 75.4241 112.25 75.5571C112.527 75.6901 112.645 76.0231 112.512 76.3011C107.834 86.0681 96.4575 86.7241 96.3425 86.7291C96.3345 86.7301 96.3255 86.7301 96.3155 86.7301" fill="black"/><g id="Group 12"><path id="Fill 10_2" fill-rule="evenodd" clip-rule="evenodd" d="M79.558 73.7174C79.249 73.7174 78.999 73.4684 78.999 73.1594V67.4424C78.999 58.7384 86.843 51.6594 96.485 51.6594C106.126 51.6594 113.97 58.7384 113.97 67.4424V72.3894C113.97 72.6974 113.72 72.9474 113.412 72.9474C113.103 72.9474 112.854 72.6974 112.854 72.3894V67.4424C112.854 59.3554 105.51 52.7764 96.485 52.7764C87.458 52.7764 80.116 59.3554 80.116 67.4424V73.1594C80.116 73.4684 79.866 73.7174 79.558 73.7174" fill="black"/></g></g></g></g><path id="Fill 3_3" fill-rule="evenodd" clip-rule="evenodd" d="M99.62 25.1165C58.539 25.1165 25.117 58.5385 25.117 99.6205C25.117 140.701 58.539 174.124 99.62 174.124C140.701 174.124 174.123 140.701 174.123 99.6205C174.123 58.5385 140.701 25.1165 99.62 25.1165M99.62 175.241C57.923 175.241 24 141.318 24 99.6205C24 57.9235 57.923 24.0005 99.62 24.0005C141.317 24.0005 175.24 57.9235 175.24 99.6205C175.24 141.318 141.317 175.241 99.62 175.241" fill="black"/></g></g></g><g id="Button" transform="translate(406.096 342.978) scale(1 1)"><g id="Button/Remove from the Car"><g id="Remove from the car button"><path id="Fill 148" fill-rule="evenodd" clip-rule="evenodd" d="M101.859 53.7334H23.0122C19.4152 53.7334 16.5002 50.8174 16.5002 47.2214V26.0124C16.5002 22.4154 19.4152 19.5004 23.0122 19.5004H101.859C105.455 19.5004 108.371 22.4154 108.371 26.0124V47.2214C108.371 50.8174 105.455 53.7334 101.859 53.7334" fill="#FF5613"/><path id="Fill 150" fill-rule="evenodd" clip-rule="evenodd" d="M23.012 20C19.697 20 17 22.697 17 26.012V47.221C17 50.536 19.697 53.233 23.012 53.233H101.859C105.174 53.233 107.871 50.536 107.871 47.221V26.012C107.871 22.697 105.174 20 101.859 20H23.012ZM101.859 54.233H23.012C19.145 54.233 16 51.088 16 47.221V26.012C16 22.146 19.145 19 23.012 19H101.859C105.726 19 108.871 22.146 108.871 26.012V47.221C108.871 51.088 105.726 54.233 101.859 54.233V54.233Z" fill="black"/><path id="Combined Shape" fill-rule="evenodd" clip-rule="evenodd" d="M68.4411 29.1148L66.8324 29.1148L52.0071 29.1148C51.8371 29.1148 51.7311 29.2078 51.6841 29.2628C51.6361 29.3178 51.5591 29.4358 51.5841 29.6048L52.7121 37.2248C52.8541 38.1838 53.6931 38.9078 54.6631 38.9078H65.7851C66.7551 38.9078 67.5941 38.1838 67.7361 37.2248L68.8631 29.6048C68.8881 29.4358 68.8121 29.3188 68.7641 29.2628C68.7161 29.2078 68.6111 29.1148 68.4411 29.1148ZM66.8324 28.1148H68.4411H69.3484C69.8174 28.1148 70.2644 27.9128 70.5744 27.5618C71.0734 26.9948 71.7934 26.6698 72.5494 26.6698H73.7914C74.0674 26.6698 74.2914 26.8928 74.2914 27.1698C74.2914 27.4458 74.0674 27.6698 73.7914 27.6698H72.5494C72.0804 27.6698 71.6344 27.8708 71.3244 28.2228C70.9232 28.6777 70.3798 28.9768 69.7907 29.0773C69.8645 29.2913 69.8871 29.522 69.8531 29.7508L68.7251 37.3708C68.5111 38.8178 67.2471 39.9078 65.7851 39.9078H55.789C55.5986 40.5955 54.9674 41.1015 54.2198 41.1015H53.8188C53.4728 41.1015 53.1908 41.3825 53.1908 41.7285C53.1908 42.0745 53.4728 42.3565 53.8188 42.3565H56.5984L56.6004 42.3565L56.6024 42.3565H64.1409L64.1429 42.3565L64.1449 42.3565H67.7268C68.0028 42.3565 68.2268 42.5805 68.2268 42.8565C68.2268 43.1325 68.0028 43.3565 67.7268 43.3565H65.9333C66.132 43.6776 66.2469 44.0559 66.2469 44.4605C66.2469 45.6205 65.3029 46.5645 64.1429 46.5645C62.9829 46.5645 62.0389 45.6205 62.0389 44.4605C62.0389 44.0559 62.1537 43.6776 62.3525 43.3565H58.3908C58.5895 43.6776 58.7044 44.0559 58.7044 44.4605C58.7044 45.6205 57.7604 46.5645 56.6004 46.5645C55.4404 46.5645 54.4964 45.6205 54.4964 44.4605C54.4964 44.0559 54.6112 43.6776 54.81 43.3565H53.8188C52.9218 43.3565 52.1908 42.6265 52.1908 41.7285C52.1908 40.8315 52.9218 40.1015 53.8188 40.1015H54.2198C54.3975 40.1015 54.5584 40.0271 54.6728 39.9078H54.6631C53.2011 39.9078 51.9371 38.8178 51.7231 37.3708L50.5951 29.7508C50.5341 29.3398 50.6551 28.9238 50.9271 28.6098C51.1981 28.2948 51.5921 28.1148 52.0071 28.1148H66.8324ZM64.1429 43.3565L64.1449 43.3565C64.753 43.3576 65.2469 43.8522 65.2469 44.4605C65.2469 45.0685 64.7519 45.5645 64.1429 45.5645C63.5349 45.5645 63.0389 45.0685 63.0389 44.4605C63.0389 43.8522 63.5337 43.3576 64.1408 43.3565L64.1429 43.3565ZM56.5983 43.3565C55.9912 43.3576 55.4964 43.8522 55.4964 44.4605C55.4964 45.0685 55.9924 45.5645 56.6004 45.5645C57.2094 45.5645 57.7044 45.0685 57.7044 44.4605C57.7044 43.8522 57.2105 43.3576 56.6024 43.3565L56.6004 43.3565L56.5983 43.3565ZM62.2495 36.7583C62.4447 36.9534 62.7615 36.9534 62.9566 36.7583C63.1518 36.5631 63.1518 36.2463 62.9566 36.0511L60.9165 34.011L62.9566 31.9709C63.1518 31.7757 63.1518 31.4589 62.9566 31.2637C62.7615 31.0686 62.4447 31.0686 62.2495 31.2637L60.2094 33.3039L58.1688 31.2633C57.9737 31.0682 57.6569 31.0682 57.4617 31.2633C57.2666 31.4585 57.2666 31.7753 57.4617 31.9704L59.5023 34.011L57.4617 36.0516C57.2666 36.2467 57.2666 36.5635 57.4617 36.7587C57.6569 36.9538 57.9737 36.9538 58.1688 36.7587L60.2094 34.7181L62.2495 36.7583Z" fill="black"/></g></g></g><g id="Master/Character/Torso" transform="matrix(-1 0 0 1 484 118.9) scale(1 1)"><g id="Master/Character/Torso"><g id="Head 2" transform="translate(189.79 120) scale(1 1)"><g id="Head 2/Funny"><path id="Path 2" fill-rule="evenodd" clip-rule="evenodd" d="M16 65.8323C16 65.8323 21.5224 62.2244 20.5403 47.3243C20.5403 47.3243 29.274 51.4116 38.8022 44.5006L41 65.6603C41 65.6603 34.3939 73.164 27.4671 72.4363C20.5403 71.7086 16 65.8323 16 65.8323Z" fill="#8b4500"/><path id="Path 2 Copy" fill-rule="evenodd" clip-rule="evenodd" d="M20.7523 46.8715C26.3989 49.514 32.2957 48.6022 38.5087 44.0959C38.8203 43.8698 39.2598 44.066 39.2996 44.449L41.4974 65.6086C41.5118 65.7474 41.4675 65.8859 41.3753 65.9907C36.8731 71.1047 32.2136 73.4377 27.4149 72.9335C22.6587 72.4339 18.7133 70.1617 15.6044 66.1381C15.426 65.9072 15.4824 65.5733 15.7266 65.4138C19.2108 63.1374 20.6854 57.1264 20.0414 47.3572C20.0164 46.9776 20.4077 46.7102 20.7523 46.8715ZM40.479 65.492L38.392 45.4L37.9797 45.6795C32.2505 49.4704 26.6918 50.3258 21.3497 48.2176L21.088 48.111L21.1011 48.3404C21.5662 57.3108 20.1823 63.143 16.8667 65.8193L16.719 65.934L16.9567 66.2216C19.711 69.4853 23.0863 71.3695 27.1017 71.89L27.5194 71.939C31.9564 72.4051 36.3189 70.2208 40.6248 65.3299L40.479 65.492Z" fill="black"/><g id="Head"><path id="Combined Shape" fill-rule="evenodd" clip-rule="evenodd" d="M27.485 48.7008C17.392 48.7008 9.20996 40.0248 9.20996 29.3208C9.20996 18.6168 17.392 9.93982 27.485 9.93982C37.578 9.93982 45.76 18.6168 45.76 29.3208C45.76 40.0248 37.578 48.7008 27.485 48.7008Z" fill="#8b4500"/><path id="Fill 18" fill-rule="evenodd" clip-rule="evenodd" d="M27.485 10.4399C17.684 10.4399 9.70996 18.9099 9.70996 29.3209C9.70996 39.7319 17.684 48.2009 27.485 48.2009C37.286 48.2009 45.26 39.7319 45.26 29.3209C45.26 18.9099 37.286 10.4399 27.485 10.4399M27.485 49.2009C17.132 49.2009 8.70996 40.2829 8.70996 29.3209C8.70996 18.3579 17.132 9.43994 27.485 9.43994C37.838 9.43994 46.26 18.3579 46.26 29.3209C46.26 40.2829 37.838 49.2009 27.485 49.2009" fill="black"/><path id="Fill 21" fill-rule="evenodd" clip-rule="evenodd" d="M22.3651 35.2921C22.3451 35.2921 22.3251 35.2911 22.3041 35.2891L19.2491 34.9181C19.1061 34.9001 18.9771 34.8221 18.8961 34.7021C18.8151 34.5831 18.7891 34.4341 18.8261 34.2941L19.7521 30.7751C19.8231 30.5091 20.0961 30.3511 20.3631 30.4191C20.6291 30.4901 20.7891 30.7631 20.7191 31.0301L19.9391 33.9941L22.4251 34.2951C22.6991 34.3291 22.8941 34.5781 22.8611 34.8521C22.8301 35.1061 22.6151 35.2921 22.3651 35.2921" fill="black"/><path id="Fill 22" fill-rule="evenodd" clip-rule="evenodd" d="M27.4851 28.8979C27.4851 29.7989 27.0261 30.5299 26.4591 30.5299C25.8911 30.5299 25.4321 29.7989 25.4321 28.8979C25.4321 27.9959 25.8911 27.2649 26.4591 27.2649C27.0261 27.2649 27.4851 27.9959 27.4851 28.8979" fill="black"/><path id="Fill 23" fill-rule="evenodd" clip-rule="evenodd" d="M17.5203 28.8979C17.5203 29.7989 17.0603 30.5299 16.4933 30.5299C15.9263 30.5299 15.4663 29.7989 15.4663 28.8979C15.4663 27.9959 15.9263 27.2649 16.4933 27.2649C17.0603 27.2649 17.5203 27.9959 17.5203 28.8979" fill="black"/><path id="Fill 24" fill-rule="evenodd" clip-rule="evenodd" d="M29.0188 25.0131C28.9028 25.0131 28.7878 24.9731 28.6928 24.8921C27.1708 23.5861 25.4648 23.6191 25.4438 23.6141C25.1638 23.6141 24.9388 23.4011 24.9318 23.1251C24.9258 22.8491 25.1438 22.6201 25.4198 22.6141C25.5038 22.6151 27.5368 22.5821 29.3448 24.1341C29.5538 24.3131 29.5778 24.6291 29.3978 24.8391C29.2988 24.9541 29.1598 25.0131 29.0188 25.0131" fill="black"/><path id="Fill 25" fill-rule="evenodd" clip-rule="evenodd" d="M13.9334 25.0131C13.7924 25.0131 13.6534 24.9541 13.5544 24.8391C13.3744 24.6291 13.3984 24.3141 13.6074 24.1341C15.4144 22.5821 17.4474 22.6111 17.5324 22.6141C17.8074 22.6201 18.0244 22.8481 18.0194 23.1241C18.0144 23.3991 17.7974 23.5851 17.5104 23.6141C17.4854 23.6111 15.7614 23.6031 14.2594 24.8921C14.1644 24.9731 14.0494 25.0131 13.9334 25.0131" fill="black"/><path id="Fill 26" fill-rule="evenodd" clip-rule="evenodd" d="M22.0183 41.1421C20.4003 41.1421 19.1463 40.6431 19.1193 40.6321C18.8643 40.5271 18.7423 40.2361 18.8473 39.9801C18.9513 39.7251 19.2433 39.6021 19.4983 39.7061C19.6973 39.7881 24.3933 41.6351 26.7873 37.2821C26.9203 37.0401 27.2253 36.9521 27.4663 37.0841C27.7083 37.2171 27.7963 37.5211 27.6633 37.7631C26.1603 40.4981 23.8553 41.1421 22.0183 41.1421" fill="black"/><path id="Fill 27" fill-rule="evenodd" clip-rule="evenodd" d="M24.7944 40.0698C24.7944 40.0698 26.3494 43.5018 27.9764 41.8748C29.6044 40.2468 26.9824 38.7488 26.9824 38.7488" fill="#FF4200"/><path id="Fill 28" fill-rule="evenodd" clip-rule="evenodd" d="M27.0572 42.8121C26.9552 42.8121 26.8602 42.8021 26.7762 42.7871C25.3992 42.5361 24.4432 40.5071 24.3392 40.2761C24.2252 40.0251 24.3362 39.7291 24.5882 39.6151C24.8402 39.5011 25.1362 39.6121 25.2492 39.8631C25.5622 40.5501 26.3022 41.6851 26.9552 41.8031C27.0972 41.8301 27.3172 41.8271 27.6232 41.5211C27.9162 41.2281 28.0402 40.9441 28.0022 40.6531C27.9152 39.9971 27.0572 39.3691 26.7332 39.1821C26.4942 39.0441 26.4112 38.7391 26.5492 38.5001C26.6852 38.2611 26.9912 38.1761 27.2302 38.3141C27.3922 38.4071 28.8242 39.2591 28.9932 40.5191C29.0492 40.9391 28.9802 41.5781 28.3302 42.2281C27.8712 42.6871 27.4172 42.8121 27.0572 42.8121" fill="black"/></g></g></g><g id="Hair 2" transform="translate(107.79 57) scale(1 1)"><g id="Hair 2/Short Peaks"><g id="Group 6"><path id="Hair" fill-rule="evenodd" clip-rule="evenodd" d="M134.575 90.7824C133.662 99.1624 128.935 107.236 121.202 107.236L120.806 98.4344C120.922 98.4464 121.034 98.4694 121.154 98.4694C123.127 98.4694 124.728 96.8774 124.743 94.9074C124.748 94.1514 124.4 93.4224 123.91 92.8454C122.586 91.2924 121.481 91.1714 120.487 91.3584L119.52 82.8934C119.31 81.0504 117.75 79.6584 115.894 79.6584H94.2918C94.2918 79.6584 89.8958 55.3774 94.9278 56.2354C99.9588 57.0944 99.5328 60.4684 103.583 56.0724C107.633 51.6774 111.071 54.0944 113.402 57.1634C115.734 60.2304 120.884 50.8504 124.547 54.2794C129.081 58.5234 126.886 61.8394 134.739 60.5304C139.368 59.7604 134.678 90.2664 134.575 90.7824" fill="#fecb51"/><path id="Fill 3" fill-rule="evenodd" clip-rule="evenodd" d="M121.342 98.9778L121.691 106.714C129.029 106.369 133.244 98.2668 134.066 90.7268C134.069 90.7138 134.071 90.6978 134.073 90.6838C134.453 88.6918 137.974 63.9918 135.236 61.1888C135.071 61.0208 134.941 61.0158 134.823 61.0358C129.436 61.9358 128.423 60.7048 126.973 58.2628C126.338 57.1958 125.619 55.9858 124.196 54.6538C122.684 53.2388 120.842 54.4348 118.404 56.2808C116.435 57.7738 114.4 59.3208 112.993 57.4738C111.395 55.3688 109.784 54.2628 108.206 54.1888C106.814 54.1238 105.383 54.8738 103.959 56.4178C101.182 59.4328 100.193 59.0818 98.3913 58.0738C97.5593 57.6078 96.5233 57.0278 94.8413 56.7408C94.5453 56.6928 94.3243 56.7628 94.1133 56.9768C91.8093 59.3038 93.7053 73.3738 94.7203 79.1458H115.895C118.011 79.1458 119.788 80.7318 120.029 82.8348L120.937 90.7848C121.851 90.7408 123.007 90.9988 124.299 92.5138C124.921 93.2448 125.26 94.0958 125.254 94.9128C125.238 97.0928 123.501 98.8788 121.342 98.9778M121.201 107.749C120.927 107.749 120.702 107.534 120.691 107.26L120.294 98.4568C120.287 98.3088 120.346 98.1648 120.454 98.0628C120.562 97.9598 120.703 97.9098 120.859 97.9248L120.991 97.9428C121.044 97.9498 121.099 97.9578 121.154 97.9578C122.838 97.9578 124.218 96.5888 124.23 94.9038C124.235 94.3338 123.982 93.7208 123.519 93.1778C122.316 91.7638 121.395 91.7058 120.581 91.8618C120.44 91.8868 120.297 91.8548 120.183 91.7708C120.069 91.6868 119.993 91.5578 119.978 91.4158L119.011 82.9518C118.83 81.3658 117.49 80.1688 115.895 80.1688H94.2913C94.0433 80.1688 93.8313 79.9928 93.7873 79.7488C93.4133 77.6808 90.2223 59.4528 93.3853 56.2558C93.8303 55.8068 94.3883 55.6248 95.0133 55.7308C96.8683 56.0478 98.0373 56.7028 98.8913 57.1808C100.358 58.0008 100.854 58.2788 103.205 55.7248C104.845 53.9458 106.563 53.0568 108.254 53.1658C110.15 53.2558 112.018 54.4978 113.81 56.8538C114.518 57.7858 115.617 57.1098 117.787 55.4648C119.947 53.8278 122.637 51.7898 124.897 53.9068C126.425 55.3378 127.217 56.6688 127.853 57.7408C129.123 59.8758 129.703 60.8518 134.655 60.0258C135.151 59.9448 135.607 60.1008 135.973 60.4778C139.318 63.9248 135.255 89.8208 135.082 90.8518C134.19 98.9938 129.468 107.749 121.201 107.749" fill="black"/></g></g></g><g id="Torso Upper Body" transform="translate(1 41.7684) scale(1 1)"><g id="Torso Upper Body/Pointing Up"><g id="Group 10"><path id="Sweater" fill-rule="evenodd" clip-rule="evenodd" d="M254.006 255.09H145.59C145.59 255.09 156.357 218.333 157.471 203.482C157.471 203.482 64.6496 187.897 40.1436 83.7456H103.315C103.315 83.7456 132.233 158.171 205.743 141.47C207.682 145.554 212.49 148.451 218.129 148.451C223.769 148.451 228.577 145.554 230.516 141.47L239.616 142.014C253.09 142.819 266.349 146.118 278.418 152.161C297.466 161.698 319.074 180.307 322.694 216.105C329.377 282.194 282.595 270.313 282.595 270.313C282.595 270.313 266.258 266.043 254.006 254.348" fill="#FCBD21"/><g id="Group 5"><path id="Fill 3" fill-rule="evenodd" clip-rule="evenodd" d="M310.679 263.749C299.032 273.796 282.883 269.856 282.724 269.818C282.563 269.775 266.37 265.44 254.359 253.978C254.352 253.972 254.343 253.97 254.336 253.963C254.329 253.957 254.326 253.948 254.319 253.942L226.532 232.493L260.509 193.663L294.78 220.346C295.003 220.519 295.325 220.478 295.499 220.257C295.672 220.033 295.632 219.712 295.409 219.538L277.222 205.378L276.298 194.896C276.273 194.616 276.025 194.427 275.743 194.432C275.461 194.456 275.253 194.704 275.278 194.986L276.119 204.519L260.756 192.558C260.542 192.39 260.235 192.421 260.056 192.625L225.403 232.228C225.31 232.335 225.265 232.475 225.279 232.616C225.293 232.756 225.363 232.885 225.475 232.971L253.467 254.578H146.272C147.721 249.558 156.95 217.192 157.98 203.539C158.001 203.36 158.476 199.101 157.98 194.882C157.946 194.601 157.69 194.39 157.411 194.434C157.13 194.466 156.93 194.72 156.963 195.001C157.344 198.244 157.125 201.593 157.015 202.874C153.414 202.17 131.958 197.499 108.237 182.216C84.4565 166.894 53.5005 137.476 40.7915 84.2579H102.97C104.031 86.8259 111.48 104.019 126.6 119.231C141.619 134.343 167.474 150.537 205.464 142.058C207.662 146.266 212.582 148.964 218.129 148.964C223.701 148.964 228.641 146.241 230.824 142.001L239.586 142.524C253.484 143.355 266.472 146.752 278.189 152.62C296.243 161.658 318.53 180.019 322.185 216.155C324.509 239.145 320.638 255.157 310.679 263.749M323.203 216.053C319.502 179.453 296.931 160.858 278.648 151.704C266.806 145.774 253.684 142.343 239.647 141.503L230.546 140.959C230.343 140.946 230.143 141.061 230.054 141.249C228.125 145.313 223.444 147.939 218.129 147.939C212.815 147.939 208.135 145.313 206.206 141.249C206.103 141.034 205.862 140.911 205.63 140.971C167.901 149.546 142.236 133.501 127.351 118.534C111.185 102.281 103.864 83.7449 103.792 83.5609C103.716 83.3639 103.526 83.2329 103.315 83.2329H40.1445C39.9875 83.2329 39.8395 83.3059 39.7425 83.4279C39.6455 83.5509 39.6095 83.7109 39.6455 83.8619C52.3435 137.83 83.6735 167.616 107.72 183.101C131.754 198.577 153.51 203.239 156.924 203.899C155.646 218.815 145.205 254.583 145.099 254.946C145.053 255.101 145.084 255.268 145.18 255.396C145.277 255.525 145.429 255.602 145.59 255.602H254.006C254.164 255.602 254.305 255.53 254.399 255.418C266.519 266.546 282.304 270.767 282.469 270.81C282.543 270.828 285.82 271.63 290.497 271.63C296.425 271.63 304.6 270.341 311.34 264.531C321.573 255.71 325.564 239.399 323.203 216.053" fill="black"/></g><path id="Skin" fill-rule="evenodd" clip-rule="evenodd" d="M74.6453 40.207C73.2953 38.918 71.3373 38.35 69.5683 38.946C68.8013 39.206 68.0833 39.674 67.6193 40.486L49.3433 18.023C47.7803 16.067 44.8043 15.99 43.1903 17.903C41.4373 19.981 39.8903 22.884 40.9393 26.03C42.9813 32.157 44.5993 34.731 44.5993 34.731C42.3113 33.962 39.7913 34.809 38.4303 36.802L37.9663 37.481C37.2163 38.579 36.8993 39.915 37.0753 41.233L37.5443 44.756L36.4583 44.911C34.6823 45.165 33.1193 46.216 32.2153 47.767C31.4643 49.053 31.2303 50.576 31.5613 52.028L31.9753 53.853L31.4013 54.082C29.4453 54.864 28.0213 56.589 27.6243 58.657C27.4253 59.689 27.4863 60.755 27.8193 61.751C29.2563 66.05 33.9343 77.436 42.5573 75.016C42.5573 75.016 43.6713 82.08 49.9823 83.746H96.5793L97.1053 76.247C97.7133 67.588 94.4323 59.108 88.1553 53.112L74.6453 40.207ZM236.554 179.348L231.049 169.096C228.223 163.834 221.489 162.134 216.505 165.424C212.947 162.815 209.927 161.114 207.633 160.022C205.02 158.779 201.901 159.793 200.529 162.341L200.38 162.618C198.901 165.363 200.062 168.744 202.872 170.097C216.445 176.629 220.589 184.917 220.589 184.917C214.79 179.117 205.366 174.405 199.112 171.685C195.632 170.172 192 171.829 190.072 175.241C190.072 175.241 190.033 175.302 189.971 175.411C188.4 178.196 190.07 181.707 193.2 182.356L193.372 182.393C189.442 181.936 188.106 186.464 188.106 186.464C186.766 189.298 188.245 192.63 191.221 193.613C204.103 197.87 208.708 203.481 208.708 203.481C204.096 201.54 199.978 200.685 196.8 200.338C193.248 199.951 190.144 202.707 190.144 206.28C190.144 209.411 192.56 212.013 195.683 212.241L208.268 213.165C209.672 213.269 211.065 213.492 212.432 213.833C216.913 214.954 220.988 217.313 224.19 220.642L230.49 227.19L252.942 201.53L236.554 179.348Z" fill="#8b4500"/><path id="Fill 8" fill-rule="evenodd" clip-rule="evenodd" d="M96.5954 76.2118L96.1024 83.2328H50.0504C44.9814 81.8568 43.4614 76.6928 43.1374 75.2938C44.1784 74.7788 44.8704 74.0368 45.1544 73.0568C45.3614 72.3458 45.3364 71.5908 45.1924 70.8708C45.7184 71.2758 46.3264 71.6248 47.0154 71.8418C48.4644 72.2948 49.9854 72.0788 51.5364 71.1908C53.1274 70.2808 54.0744 69.0848 54.3504 67.6358C54.6324 66.1548 54.1494 64.7258 53.6484 63.7258C57.5764 64.7758 60.8854 61.6798 60.9584 61.6068C65.8314 55.7578 59.1514 48.4478 59.0684 48.3598L45.0044 34.4108C44.7854 34.0438 43.2754 31.4208 41.4254 25.8678C40.6194 23.4528 41.3454 20.8848 43.5814 18.2338C44.2424 17.4508 45.1984 16.9838 46.2464 17.0238C47.3024 17.0378 48.2854 17.5188 48.9464 18.3458L67.0324 40.5748L66.3934 42.1728C64.9274 45.8388 65.1434 49.9428 66.9884 53.4348L71.8884 62.7108C71.6604 63.4008 71.1734 65.5178 71.9454 69.5418C71.9924 69.7878 72.2074 69.9578 72.4474 69.9578C72.4794 69.9578 72.5124 69.9548 72.5444 69.9488C72.8224 69.8958 73.0044 69.6268 72.9504 69.3508C72.4704 66.8458 72.5054 65.1488 72.6344 64.1238L74.5924 67.8288C74.6844 68.0028 74.8614 68.1028 75.0454 68.1028C75.1264 68.1028 75.2084 68.0828 75.2844 68.0438C75.5344 67.9108 75.6294 67.6018 75.4974 67.3518L67.8934 52.9568C66.1894 49.7318 65.9894 45.9408 67.3444 42.5528L68.0764 40.7228C68.4264 40.1198 68.9824 39.6858 69.7324 39.4318C71.2404 38.9208 73.0304 39.3708 74.2924 40.5768L87.8024 53.4818C93.9894 59.3918 97.1944 67.6768 96.5954 76.2118V76.2118ZM28.3054 61.5888C28.0054 60.6898 27.9434 59.7098 28.1264 58.7548C28.4934 56.8488 29.7894 55.2778 31.5924 54.5568L31.8164 54.4668L42.7444 67.8708C42.8134 68.0088 43.0294 68.4268 43.4094 68.9678C43.9364 69.9758 44.5374 71.5078 44.1714 72.7718C43.9414 73.5628 43.3574 74.1378 42.3894 74.5298C34.3284 76.7688 29.8554 66.2278 28.3054 61.5888V61.5888ZM32.6574 48.0248C33.4884 46.6008 34.8994 45.6498 36.5314 45.4188L37.3334 45.3038L52.0024 63.0008C52.0024 63.0008 52.0024 63.0008 52.0034 63.0018C52.0554 63.0688 53.7614 65.2708 53.3444 67.4478C53.1254 68.5888 52.3464 69.5478 51.0284 70.3008C49.7364 71.0408 48.4914 71.2298 47.3274 70.8658C45.9244 70.4268 44.8844 69.2728 44.2724 68.4088C43.9294 67.7648 43.6254 67.3368 43.5914 67.2898C43.5884 67.2858 43.5834 67.2838 43.5794 67.2798C43.5764 67.2748 43.5764 67.2708 43.5734 67.2668L32.4484 53.6198L32.0604 51.9148C31.7584 50.5848 31.9694 49.2018 32.6574 48.0248V48.0248ZM38.3894 37.7708L38.8534 37.0908C40.0594 35.3228 42.3014 34.5578 44.3364 35.1908L58.3334 49.0708C58.3954 49.1388 64.4674 55.7958 60.2114 60.9068C60.0644 61.0478 56.5714 64.2918 52.7184 62.2608L38.0324 44.5418L37.5824 41.1648C37.4234 39.9718 37.7104 38.7658 38.3894 37.7708V37.7708ZM74.9994 39.8368C73.4424 38.3498 71.2994 37.8208 69.4054 38.4618C68.6574 38.7138 68.0504 39.1098 67.5914 39.6418L49.7434 17.7028C48.8934 16.6398 47.6234 16.0188 46.2604 16.0008C44.9144 15.9748 43.6574 16.5568 42.7994 17.5738C40.3524 20.4748 39.5414 23.4548 40.4534 26.1918C41.7954 30.2188 42.9504 32.7168 43.6024 33.9828C41.4474 33.7268 39.2634 34.6718 38.0074 36.5128L37.5444 37.1918C36.7214 38.3968 36.3754 39.8558 36.5684 41.3008L36.9704 44.3198L36.3864 44.4038C34.4434 44.6818 32.7624 45.8128 31.7734 47.5078C30.9544 48.9108 30.7014 50.5578 31.0624 52.1418L31.3794 53.5388L31.2114 53.6068C29.0834 54.4588 27.5544 56.3108 27.1214 58.5618C26.9054 59.6888 26.9784 60.8478 27.3344 61.9128C31.9994 75.8718 38.9044 76.3398 42.1624 75.6398C42.5724 77.3908 44.2664 82.7668 49.8524 84.2398C49.8954 84.2508 49.9394 84.2578 49.9834 84.2578H96.5794C96.8484 84.2578 97.0714 84.0498 97.0904 83.7818L97.6164 76.2838C98.2364 67.4428 94.9174 58.8628 88.5094 52.7418L74.9994 39.8368ZM230.472 226.434L224.559 220.287C221.286 216.885 217.136 214.482 212.556 213.337C211.165 212.989 209.734 212.759 208.306 212.654L195.721 211.731C192.881 211.523 190.656 209.129 190.656 206.28C190.656 204.732 191.316 203.251 192.467 202.218C193.479 201.312 194.793 200.815 196.146 200.815C196.345 200.815 196.545 200.825 196.744 200.847C200.673 201.275 204.631 202.32 208.509 203.952C208.727 204.043 208.978 203.976 209.118 203.786C209.259 203.599 209.253 203.338 209.104 203.155C208.912 202.922 204.257 197.382 191.382 193.128C190.084 192.698 189.034 191.739 188.5 190.493C187.968 189.255 187.993 187.9 188.597 186.608C188.604 186.585 189.317 184.239 191.132 183.274C191.753 182.944 192.441 182.813 193.187 182.876L194.329 183.113C194.382 183.125 194.433 183.121 194.484 183.116C199.327 184.238 209.52 187.452 216.378 195.587C216.479 195.707 216.624 195.769 216.77 195.769C216.886 195.769 217.003 195.73 217.099 195.649C217.316 195.466 217.343 195.144 217.161 194.927C209.026 185.278 196.369 182.372 192.823 181.726C191.687 181.353 190.77 180.532 190.264 179.42C189.707 178.192 189.763 176.823 190.417 175.663L190.518 175.493C192.414 172.138 195.786 170.796 198.907 172.155C205.523 175.03 214.592 179.644 220.227 185.278C220.405 185.456 220.686 185.48 220.888 185.332C221.092 185.187 221.159 184.913 221.047 184.689C220.875 184.343 216.669 176.169 203.094 169.636C201.839 169.03 200.912 167.978 200.487 166.667C200.073 165.393 200.195 164.04 200.831 162.86L200.98 162.584C202.22 160.281 205.046 159.358 207.414 160.485C208.728 161.111 210.075 161.847 211.441 162.666C212.631 163.471 226.393 172.819 237.917 182.053L252.286 201.503L230.472 226.434ZM224.461 164.55C227.082 165.212 229.319 166.956 230.598 169.338L235.857 179.118C229.137 173.872 222.065 168.805 217.365 165.513C219.512 164.303 222.058 163.943 224.461 164.55V164.55ZM253.355 201.226L237.006 179.105L231.5 168.854C230.085 166.22 227.611 164.288 224.711 163.557C221.928 162.851 218.965 163.31 216.525 164.806C214.986 163.689 213.463 162.683 211.962 161.781C211.946 161.771 211.928 161.759 211.925 161.756C211.917 161.751 211.908 161.751 211.901 161.746C210.529 160.925 209.176 160.191 207.854 159.562C204.993 158.2 201.578 159.315 200.079 162.098L199.929 162.375C199.16 163.804 199.012 165.441 199.513 166.983C200.019 168.539 201.162 169.842 202.65 170.558C210.391 174.284 215.044 178.615 217.581 181.585C212.004 177.193 204.818 173.608 199.316 171.216C195.744 169.661 191.76 171.214 189.641 174.965C189.641 174.965 189.597 175.034 189.526 175.159C188.709 176.608 188.638 178.316 189.332 179.844C189.754 180.773 190.432 181.551 191.266 182.098C191.054 182.173 190.847 182.266 190.645 182.374C188.448 183.545 187.648 186.207 187.643 186.245C186.95 187.71 186.919 189.406 187.558 190.896C188.208 192.411 189.485 193.579 191.061 194.1C199.25 196.805 204.075 200.087 206.454 202.058C203.275 200.925 200.056 200.177 196.855 199.829C195.006 199.626 193.16 200.22 191.783 201.456C190.416 202.683 189.632 204.441 189.632 206.28C189.632 209.661 192.274 212.504 195.646 212.752L208.231 213.676C209.601 213.776 210.973 213.997 212.308 214.331C216.701 215.429 220.682 217.733 223.821 220.997L230.121 227.546C230.218 227.646 230.351 227.702 230.49 227.702H230.502C230.645 227.698 230.781 227.636 230.875 227.527L253.328 201.867C253.487 201.687 253.498 201.419 253.355 201.226V201.226Z" fill="black"/></g></g></g></g></g></g></svg>