<svg viewBox="72.24999999999994 35.490654205607484 433.50000000000006 239.01869158878498" fill="none" xmlns="http://www.w3.org/2000/svg" xmlns:xlink="http://www.w3.org/1999/xlink" overflow="visible" width="433.50000000000006px" height="239.01869158878498px"><g id="Master/Background/Neighborhood"><g id="Background" transform="scale(1 1)"><g id="Background/Neighborhood"><g id="Group 91"><path id="Path" fill-rule="evenodd" clip-rule="evenodd" d="M262.119 214.306C262.119 214.03 261.895 213.806 261.619 213.806H96.9702C96.6942 213.806 96.4702 214.03 96.4702 214.306C96.4702 214.582 96.6942 214.806 96.9702 214.806H261.619C261.895 214.806 262.119 214.582 262.119 214.306V214.306Z" fill="black"/><path id="Path_2" fill-rule="evenodd" clip-rule="evenodd" d="M489.765 190.919H376.216C375.94 190.919 375.716 191.142 375.716 191.419C375.716 191.695 375.94 191.919 376.216 191.919H418.324V270.425C418.324 270.702 418.547 270.925 418.824 270.925C419.1 270.925 419.324 270.702 419.324 270.425V191.919H489.765C490.041 191.919 490.265 191.695 490.265 191.419C490.265 191.142 490.041 190.919 489.765 190.919V190.919Z" fill="black"/><path id="Path_3" fill-rule="evenodd" clip-rule="evenodd" d="M502.954 182.034L443.729 122.808C443.635 122.715 443.508 122.662 443.375 122.662H357.726C357.661 122.662 357.597 122.675 357.536 122.701C357.474 122.726 357.418 122.763 357.372 122.809L295.458 184.723C295.263 184.918 295.263 185.235 295.458 185.43C295.556 185.528 295.684 185.577 295.812 185.577C295.94 185.577 296.068 185.528 296.165 185.43L357.726 123.869L417.617 183.759H357.318C357.041 183.759 356.818 183.983 356.818 184.259C356.818 184.535 357.041 184.759 357.318 184.759H418.824C419.026 184.759 419.208 184.638 419.286 184.451C419.363 184.264 419.32 184.049 419.177 183.906L358.933 123.662H443.168L502.247 182.741C502.345 182.839 502.473 182.888 502.601 182.888C502.729 182.888 502.857 182.839 502.954 182.741C503.15 182.546 503.15 182.229 502.954 182.034V182.034Z" fill="black"/><path id="Path_4" fill-rule="evenodd" clip-rule="evenodd" d="M353.099 86.401C353.375 86.387 353.587 86.152 353.573 85.876C353.554 85.5 353.544 85.122 353.544 84.742C353.544 72.444 363.55 62.438 375.848 62.438C377.529 62.438 379.222 62.633 380.881 63.015C381.133 63.075 381.396 62.925 381.472 62.673C385.322 49.912 397.326 41 410.663 41C418.848 41 426.534 44.201 432.303 50.013C432.486 50.197 432.778 50.21 432.978 50.045C435.751 47.733 439.268 46.459 442.882 46.459C451.108 46.459 457.896 52.888 458.337 61.095C458.345 61.241 458.417 61.377 458.534 61.466C458.65 61.555 458.799 61.588 458.943 61.556C460.411 61.235 461.906 61.073 463.388 61.073C474.81 61.073 484.103 70.366 484.103 81.788C484.103 83.129 483.971 84.481 483.71 85.805C483.657 86.076 483.834 86.339 484.104 86.392C484.137 86.399 484.17 86.402 484.202 86.402C484.436 86.402 484.645 86.237 484.692 85.998C484.965 84.61 485.103 83.194 485.103 81.788C485.103 69.814 475.362 60.073 463.388 60.073C462.024 60.073 460.65 60.204 459.294 60.463C458.545 52.004 451.445 45.459 442.882 45.459C439.187 45.459 435.586 46.71 432.692 48.99C426.77 43.189 418.966 40 410.663 40C397.043 40 384.769 48.998 380.652 61.941C379.065 61.607 377.451 61.438 375.848 61.438C362.998 61.438 352.544 71.892 352.544 84.742C352.544 85.139 352.554 85.535 352.574 85.927C352.588 86.203 352.833 86.417 353.099 86.401V86.401Z" fill="black"/><path id="Path_5" fill-rule="evenodd" clip-rule="evenodd" d="M228.812 210.115C229.007 210.31 229.324 210.31 229.519 210.115C229.714 209.919 229.714 209.603 229.519 209.408L152.773 132.661C152.585 132.473 152.253 132.473 152.066 132.661L74.1462 210.58C73.9513 210.776 73.9513 211.092 74.1462 211.287C74.2442 211.385 74.3722 211.434 74.5002 211.434C74.6282 211.434 74.7563 211.385 74.8533 211.287L152.419 133.722L228.812 210.115Z" fill="black"/><path id="Path_6" fill-rule="evenodd" clip-rule="evenodd" d="M276.132 224.645H111.483C111.206 224.645 110.983 224.869 110.983 225.145C110.983 225.422 111.206 225.645 111.483 225.645H276.132C276.409 225.645 276.632 225.422 276.632 225.145C276.632 224.869 276.409 224.645 276.132 224.645V224.645Z" fill="black"/><path id="Path_7" fill-rule="evenodd" clip-rule="evenodd" d="M104.714 139.938C104.99 139.925 105.202 139.69 105.189 139.414C105.176 139.147 105.168 138.878 105.168 138.607C105.168 129.867 112.279 122.757 121.019 122.757C122.213 122.757 123.416 122.895 124.596 123.167C124.848 123.227 125.111 123.077 125.186 122.825C127.929 113.734 136.48 107.385 145.982 107.385C151.813 107.385 157.287 109.665 161.397 113.806C161.579 113.99 161.872 114.003 162.072 113.838C164.035 112.201 166.525 111.3 169.083 111.3C174.906 111.3 179.711 115.85 180.023 121.66C180.031 121.806 180.103 121.942 180.22 122.031C180.336 122.119 180.484 122.153 180.629 122.121C181.671 121.893 182.733 121.778 183.786 121.778C191.898 121.778 198.497 128.377 198.497 136.489C198.497 137.442 198.404 138.402 198.218 139.342C198.165 139.613 198.341 139.876 198.612 139.93C198.645 139.936 198.677 139.939 198.709 139.939C198.943 139.939 199.153 139.774 199.2 139.535C199.397 138.531 199.497 137.506 199.497 136.489C199.497 127.826 192.449 120.778 183.786 120.778C182.85 120.778 181.908 120.863 180.977 121.032C180.361 114.969 175.244 110.3 169.083 110.3C166.443 110.3 163.87 111.179 161.786 112.785C157.525 108.654 151.931 106.385 145.982 106.385C136.197 106.385 127.376 112.821 124.367 122.095C123.26 121.87 122.136 121.757 121.019 121.757C111.727 121.757 104.168 129.316 104.168 138.607C104.168 138.894 104.176 139.18 104.19 139.464C104.203 139.739 104.439 139.953 104.714 139.938V139.938Z" fill="black"/></g></g></g></g></svg>