<svg viewBox="133.23749999999995 146.1730769230769 654.075 446.9755244755245" fill="none" xmlns="http://www.w3.org/2000/svg" xmlns:xlink="http://www.w3.org/1999/xlink" overflow="visible" width="654.075px" height="446.9755244755245px"><g id="Master/Scenes/Address"><path id="Floor" fill-rule="evenodd" clip-rule="evenodd" d="M785.137 588.345H183.5C183.224 588.345 183 588.121 183 587.845C183 587.569 183.224 587.345 183.5 587.345H785.137C785.413 587.345 785.637 587.569 785.637 587.845C785.637 588.121 785.413 588.345 785.137 588.345" fill="black"/><g id="Address"><path id="Map" fill-rule="evenodd" clip-rule="evenodd" d="M516.065 193.776L516.093 183.776H452.77C452.486 183.776 452.202 183.8 451.921 183.848L354.961 200.539L286.171 169C285.338 171.13 284.865 173.44 284.865 175.865L284.855 179.397L390.615 227.887L284.671 244.564L284.642 254.691L294.957 253.067L384.988 370.967L335.84 342.827L335.817 342.814L284.477 313.419L284.445 324.922L327.384 349.508L312.224 396.972H284.242L284.213 406.972H315.876C318.051 406.972 319.976 405.566 320.638 403.493L336.259 354.589L401.499 391.944C401.517 391.954 401.537 391.962 401.554 391.972C401.647 392.024 401.742 392.068 401.837 392.114C401.892 392.14 401.944 392.171 401.999 392.194L473.819 423.243L462.224 454.649L402.148 425.033C399.826 423.89 397.013 424.705 395.667 426.917L382.47 448.584L334.006 469.81L284.119 440.897L284.086 452.437L331.184 479.733C331.957 480.18 332.822 480.407 333.691 480.407C334.373 480.407 335.056 480.268 335.697 479.987L373.404 463.472L355.674 492.584C355.673 492.584 355.673 492.585 355.673 492.586C355.661 492.606 355.652 492.63 355.64 492.65C355.497 492.893 355.38 493.149 355.281 493.411C355.267 493.446 355.246 493.476 355.233 493.512C355.22 493.548 355.218 493.584 355.207 493.62C355.115 493.896 355.041 494.178 354.999 494.467C354.997 494.481 354.994 494.496 354.992 494.51C354.961 494.733 354.945 494.958 354.945 495.184V541.287H364.945V502.263L474.946 541.287H504.853L367.416 492.529L401.829 436.025L458.742 464.082L451.86 482.721C451.147 484.652 451.691 486.824 453.23 488.191C454.166 489.022 455.352 489.453 456.551 489.453C457.326 489.453 458.104 489.273 458.824 488.906L515.315 460.068L515.347 448.824L465.672 474.182L484.84 422.264C485.76 419.773 484.572 416.997 482.134 415.943L412.734 385.941L496.663 302.266H515.759L515.788 292.266H494.596C493.273 292.266 492.003 292.791 491.066 293.725L404.494 380.035L306.189 251.299L408.542 235.188C410.72 234.845 412.417 233.116 412.717 230.931C413.018 228.747 411.853 226.623 409.848 225.704L371.052 207.917L453.197 193.776H516.065Z" fill="#EEF2F8"/><path id="Geolocalization" fill-rule="evenodd" clip-rule="evenodd" d="M400.027 335.285C388.57 335.285 379.284 325.998 379.284 314.542C379.284 303.086 388.57 293.799 400.027 293.799C411.483 293.799 420.77 303.086 420.77 314.542C420.77 325.998 411.483 335.285 400.027 335.285M400.027 272.4C377.186 272.4 358.668 290.917 358.668 313.759C358.668 322.404 361.324 330.427 365.861 337.064C366.014 337.389 366.194 337.711 366.4 338.026L395.779 382.778C397.786 385.836 402.268 385.836 404.276 382.778L434.927 336.086C435.128 335.78 435.291 335.466 435.431 335.148C439.21 328.907 441.386 321.587 441.386 313.759C441.386 290.917 422.869 272.4 400.027 272.4" fill="#FF5613"/><path id="Fill 9" fill-rule="evenodd" clip-rule="evenodd" d="M379.783 314.542C379.783 303.38 388.864 294.299 400.026 294.299C411.188 294.299 420.269 303.38 420.269 314.542C420.269 325.704 411.188 334.785 400.026 334.785C388.864 334.785 379.783 325.704 379.783 314.542V314.542ZM421.269 314.542C421.269 302.829 411.74 293.299 400.026 293.299C388.312 293.299 378.783 302.829 378.783 314.542C378.783 326.255 388.312 335.785 400.026 335.785C411.74 335.785 421.269 326.255 421.269 314.542V314.542ZM400.026 395.412C370.165 395.412 350.105 390.065 350.105 385.071C350.105 380.658 365.785 375.976 390.038 374.945L395.36 383.052C396.395 384.629 398.139 385.571 400.025 385.571H400.026C401.913 385.571 403.657 384.63 404.693 383.052L410.012 374.948C434.264 375.979 449.947 380.659 449.947 385.071C449.947 390.065 429.887 395.412 400.026 395.412V395.412ZM366.817 337.752C366.627 337.461 366.457 337.158 366.273 336.782C361.624 329.981 359.167 322.021 359.167 313.759C359.167 291.229 377.496 272.9 400.026 272.9C422.556 272.9 440.886 291.229 440.886 313.759C440.886 321.225 438.851 328.532 434.973 334.946C434.83 335.27 434.678 335.553 434.509 335.812L403.857 382.503C403.007 383.798 401.575 384.571 400.026 384.571C398.477 384.571 397.046 383.798 396.196 382.503L366.817 337.752ZM450.947 385.071C450.947 378.98 431.874 374.997 410.643 373.988L435.346 336.36C435.545 336.055 435.722 335.725 435.858 335.407C439.802 328.894 441.886 321.408 441.886 313.759C441.886 290.678 423.107 271.9 400.026 271.9C376.945 271.9 358.167 290.678 358.167 313.759C358.167 322.223 360.684 330.379 365.408 337.277C365.572 337.625 365.764 337.97 365.981 338.301L389.409 373.987C368.179 374.995 349.105 378.98 349.105 385.071C349.105 392.17 374.996 396.412 400.026 396.412C425.056 396.412 450.947 392.17 450.947 385.071V385.071ZM437.256 370.074C436.987 370.015 436.72 370.187 436.661 370.458C436.603 370.728 436.775 370.993 437.045 371.051C445.589 372.889 456.947 376.34 456.947 385.071C456.947 393.803 445.589 397.254 437.045 399.091C436.775 399.149 436.603 399.415 436.661 399.685C436.712 399.92 436.919 400.08 437.149 400.08C437.184 400.08 437.22 400.077 437.256 400.069C446.137 398.159 457.947 394.527 457.947 385.071C457.947 375.617 446.137 371.984 437.256 370.074V370.074ZM363.008 399.091C354.464 397.254 343.105 393.803 343.105 385.071C343.105 376.34 354.464 372.889 363.008 371.051C363.277 370.993 363.449 370.728 363.391 370.458C363.333 370.187 363.07 370.015 362.797 370.074C353.915 371.984 342.105 375.617 342.105 385.071C342.105 394.527 353.915 398.159 362.797 400.069C362.833 400.077 362.868 400.08 362.903 400.08C363.134 400.08 363.341 399.92 363.391 399.685C363.449 399.415 363.277 399.149 363.008 399.091V399.091Z" fill="black"/><g id="Device" transform="translate(193.026 60.5713) scale(1 1)"><g id="Device/Phone"><g id="Phone"><path id="Fill 3" fill-rule="evenodd" clip-rule="evenodd" d="M304.088 525.905H108.162C98.4075 525.905 90.5005 517.998 90.5005 508.243V479.795H321.751V508.243C321.751 517.998 313.843 525.905 304.088 525.905" fill="black"/><path id="Fill 9" fill-rule="evenodd" clip-rule="evenodd" d="M206.126 488.679C199.034 488.679 193.265 494.449 193.265 501.54C193.265 508.633 199.034 514.403 206.126 514.403C213.218 514.403 218.988 508.633 218.988 501.54C218.988 494.449 213.218 488.679 206.126 488.679M206.126 515.403C198.483 515.403 192.265 509.184 192.265 501.54C192.265 493.897 198.483 487.679 206.126 487.679C213.77 487.679 219.988 493.897 219.988 501.54C219.988 509.184 213.77 515.403 206.126 515.403" fill="white"/><path id="Fill 1" fill-rule="evenodd" clip-rule="evenodd" d="M110.479 96C100.348 96 92.106 104.242 92.106 114.373L91 507.033C91 517.163 99.242 525.405 109.373 525.405H302.878C313.009 525.405 321.251 517.163 321.251 507.032L322.357 114.372C322.357 104.242 314.115 96 303.984 96H110.479ZM302.878 526.405H109.373C98.691 526.405 90 517.715 90 507.032L91.106 114.372C91.106 103.691 99.797 95 110.479 95H303.984C314.666 95 323.357 103.691 323.357 114.373L322.251 507.033C322.251 517.715 313.56 526.405 302.878 526.405V526.405Z" fill="black"/></g></g></g></g><g id="Plant" transform="translate(100 220) scale(0.9895104895104895 1.002717391304348)"><g id="Plant/Small Leaves"><g id="Small Leaves"><path id="Fill 1" fill-rule="evenodd" clip-rule="evenodd" d="M73.5589 282.193C60.7569 277.63 45.8929 282.288 44.0309 284.375C41.8499 286.818 39.2269 301.758 45.2129 313.96C53.7879 331.44 69.7179 344.187 88.5279 349.214L128.739 359.962L113.499 321.23C106.37 303.111 91.8989 288.73 73.5589 282.193M162.266 258.038C157.248 244.511 143.324 235.593 140.356 235.502C136.881 235.394 122.937 243.447 117.091 256.637C108.717 275.534 109.209 297.187 117.945 315.919L136.62 355.963L157.741 317.152C167.621 298.998 169.454 277.417 162.266 258.038" fill="#4B69FD"/><path id="Fill 3" fill-rule="evenodd" clip-rule="evenodd" d="M137.185 353.878L140.596 243.892C140.605 243.615 140.387 243.385 140.112 243.376H140.096C139.827 243.376 139.605 243.59 139.596 243.86L136.184 353.848L118.398 315.708C109.621 296.885 109.311 275.428 117.548 256.84C123.23 244.02 136.724 236 140.272 236C140.294 236 140.318 236.001 140.34 236.001C143.016 236.084 156.843 244.857 161.797 258.212C168.868 277.276 167.229 298.672 157.301 316.913L137.185 353.878ZM88.6571 348.731C69.7651 343.682 54.0931 330.928 45.6621 313.74C39.8111 301.814 42.2501 287.121 44.4041 284.708C45.5661 283.405 52.9751 280.765 61.6191 280.765C65.4461 280.765 69.5161 281.283 73.3911 282.664C91.4251 289.092 105.874 303.215 113.035 321.412L127.504 358.19L50.2521 289.256C50.0451 289.071 49.7291 289.091 49.5461 289.296C49.3631 289.503 49.3801 289.819 49.5861 290.003L126.837 358.936L88.6571 348.731ZM162.735 257.864C157.775 244.493 143.872 235.11 140.372 235.002C140.347 235.001 140.323 235.001 140.297 235.001C136.57 235.001 122.479 243.246 116.634 256.435C108.28 275.288 108.592 297.046 117.492 316.13L136.116 356.066L135.82 365.61L129.16 359.667L113.964 321.047C106.699 302.58 92.0331 288.247 73.7271 281.722C61.0621 277.209 45.8581 281.576 43.6581 284.042C41.1121 286.895 38.7901 302.002 44.7631 314.181C53.3231 331.628 69.2271 344.573 88.3991 349.697L128.495 360.414L135.954 367.07C135.973 367.088 135.998 367.096 136.019 367.109C136.044 367.126 136.068 367.145 136.096 367.156C136.135 367.173 136.176 367.18 136.219 367.185C136.237 367.188 136.252 367.196 136.271 367.197H136.287C136.356 367.197 136.422 367.182 136.482 367.156C136.497 367.15 136.508 367.138 136.523 367.13C136.568 367.106 136.61 367.077 136.646 367.04C136.65 367.036 136.656 367.035 136.66 367.03C136.674 367.014 136.68 366.992 136.693 366.974C136.713 366.943 136.735 366.914 136.748 366.879C136.76 366.848 136.764 366.817 136.77 366.785C136.774 366.761 136.786 366.738 136.787 366.713L137.116 356.098L158.18 317.392C168.246 298.896 169.906 277.199 162.735 257.864V257.864Z" fill="black"/></g></g></g><g id="Master/Character/Sitting" transform="translate(363.402 123) scale(1 1)"><g id="Master/Character/Sitting"><g id="Lower Body Sitting" transform="translate(17 227) scale(1 1)"><g id="Lower Body Sitting/Simple Chair"><g id="Simple Chair"><path id="Chair" fill-rule="evenodd" clip-rule="evenodd" d="M238.448 139.834V78.2976C238.448 76.1436 236.701 74.3966 234.547 74.3966H154.652C152.498 74.3966 150.751 76.1436 150.751 78.2976V139.834H146.458C146.458 145.133 150.754 149.428 156.052 149.428H166.983V235.415C166.983 236.554 167.906 237.477 169.046 237.477H174.286C175.425 237.477 176.349 236.554 176.349 235.415V149.428H212.85V235.415C212.85 236.554 213.774 237.477 214.913 237.477H220.154C221.293 237.477 222.216 236.554 222.216 235.415V149.428H233.147C238.446 149.428 242.741 145.133 242.741 139.834H238.448Z" fill="#5D2E00"/><path id="Fill 3" fill-rule="evenodd" clip-rule="evenodd" d="M176.349 148.92H212.85C213.131 148.92 213.359 149.148 213.359 149.428V235.415C213.359 236.272 214.056 236.969 214.913 236.969H220.154C221.011 236.969 221.708 236.272 221.708 235.415V149.428C221.708 149.148 221.935 148.92 222.216 148.92H233.147C237.986 148.92 241.954 145.117 242.219 140.342H238.448C238.167 140.342 237.94 140.115 237.94 139.834V78.2975C237.94 76.4265 236.418 74.9045 234.547 74.9045H154.652C152.782 74.9045 151.26 76.4265 151.26 78.2975V139.834C151.26 140.115 151.032 140.342 150.751 140.342H146.981C147.245 145.117 151.213 148.92 156.053 148.92H166.983C167.264 148.92 167.492 149.148 167.492 149.428V235.415C167.492 236.272 168.189 236.969 169.046 236.969H174.286C175.143 236.969 175.841 236.272 175.841 235.415V149.428C175.841 149.148 176.068 148.92 176.349 148.92M220.154 237.985H214.913C213.495 237.985 212.342 236.832 212.342 235.415V149.937H176.857V235.415C176.857 236.832 175.704 237.985 174.286 237.985H169.046C167.628 237.985 166.475 236.832 166.475 235.415V149.937H156.053C150.482 149.937 145.95 145.405 145.95 139.834C145.95 139.553 146.178 139.326 146.458 139.326H150.243V78.2975C150.243 75.8665 152.221 73.8885 154.652 73.8885H234.547C236.978 73.8885 238.956 75.8665 238.956 78.2975V139.326H242.741C243.022 139.326 243.249 139.553 243.249 139.834C243.249 145.405 238.718 149.937 233.147 149.937H222.724V235.415C222.724 236.832 221.571 237.985 220.154 237.985" fill="black"/><path id="Fill 7" fill-rule="evenodd" clip-rule="evenodd" d="M242.741 140.342H151.751C151.47 140.342 151.243 140.114 151.243 139.834C151.243 139.553 151.47 139.325 151.751 139.325H242.741C243.022 139.325 243.249 139.553 243.249 139.834C243.249 140.114 243.022 140.342 242.741 140.342" fill="black"/><path id="Fill 11" fill-rule="evenodd" clip-rule="evenodd" d="M226.673 149.936H162.526C162.245 149.936 162.018 149.708 162.018 149.428C162.018 149.147 162.245 148.919 162.526 148.919H226.673C226.954 148.919 227.181 149.147 227.181 149.428C227.181 149.708 226.954 149.936 226.673 149.936" fill="black"/><path id="Shoes" fill-rule="evenodd" clip-rule="evenodd" d="M147.012 218.035H88.8725L88.7185 218.174C85.9725 220.644 82.5885 222.294 78.9505 222.933L74.8825 223.648L71.8565 224.18C64.8745 225.407 59.0845 230.283 56.6875 236.954L56.4995 237.477H149.539L147.012 218.035Z" fill="#4B69FD"/><path id="Fill 15" fill-rule="evenodd" clip-rule="evenodd" d="M57.2114 236.977H148.969L146.572 218.535L89.0534 218.545C86.2344 221.082 82.7704 222.769 79.0364 223.426L71.9434 224.673C65.2054 225.856 59.5744 230.565 57.2114 236.977M149.538 237.977H56.4994C56.3364 237.977 56.1844 237.898 56.0904 237.765C55.9974 237.631 55.9744 237.461 56.0294 237.308L56.2174 236.786C58.6694 229.961 64.6284 224.943 71.7704 223.687L78.8634 222.44C82.4124 221.817 85.7044 220.213 88.3834 217.802L88.5374 217.664C88.6294 217.581 88.7484 217.535 88.8724 217.535H147.011C147.263 217.535 147.474 217.722 147.507 217.971L150.034 237.413C150.053 237.555 150.009 237.699 149.914 237.807C149.819 237.915 149.682 237.977 149.538 237.977" fill="black"/><path id="Skin" fill-rule="evenodd" clip-rule="evenodd" d="M138.764 185.884C139.48 174.997 130.842 165.297 119.436 165.297C119.406 165.297 119.377 165.3 119.347 165.3C119.318 165.3 119.29 165.297 119.262 165.297C116.744 165.297 114.36 165.805 112.191 166.713C106.903 168.849 102.688 173.261 100.933 178.951L88.8726 218.035H147.012L138.764 185.884Z" fill="#fbefe3"/><path id="Fill 19" fill-rule="evenodd" clip-rule="evenodd" d="M89.5499 217.535H146.367L138.279 186.008C138.266 185.957 138.261 185.904 138.265 185.851C138.604 180.698 136.754 175.557 133.188 171.75C129.593 167.911 124.709 165.797 119.436 165.797L119.274 165.798H119.268C116.877 165.798 114.565 166.261 112.383 167.174C107.086 169.314 103.089 173.66 101.41 179.098L89.5499 217.535ZM147.012 218.535H88.8729C88.7139 218.535 88.5639 218.46 88.4699 218.332C88.3759 218.204 88.3479 218.039 88.3949 217.888L100.455 178.804C102.222 173.077 106.431 168.5 112.003 166.249C114.304 165.286 116.748 164.797 119.261 164.797L119.391 165.299L119.362 164.799H119.372C124.995 164.799 130.134 167.025 133.918 171.066C137.653 175.056 139.601 180.435 139.268 185.837L147.496 217.911C147.535 218.06 147.502 218.22 147.407 218.342C147.312 218.464 147.166 218.535 147.012 218.535V218.535Z" fill="black"/><path id="Fill 21" fill-rule="evenodd" clip-rule="evenodd" d="M125.157 226.099C125.157 227.647 123.902 228.902 122.354 228.902C120.806 228.902 119.552 227.647 119.552 226.099C119.552 224.551 120.806 223.296 122.354 223.296C123.902 223.296 125.157 224.551 125.157 226.099" fill="#EFF2F7"/><path id="Fill 23" fill-rule="evenodd" clip-rule="evenodd" d="M122.355 223.796C121.085 223.796 120.052 224.829 120.052 226.099C120.052 227.368 121.085 228.401 122.355 228.401C123.625 228.401 124.658 227.368 124.658 226.099C124.658 224.829 123.625 223.796 122.355 223.796M122.355 229.401C120.534 229.401 119.052 227.92 119.052 226.099C119.052 224.277 120.534 222.796 122.355 222.796C124.176 222.796 125.658 224.277 125.658 226.099C125.658 227.92 124.176 229.401 122.355 229.401" fill="black"/><path id="Fill 25" fill-rule="evenodd" clip-rule="evenodd" d="M144.272 226.099C144.272 227.647 143.017 228.902 141.469 228.902C139.921 228.902 138.667 227.647 138.667 226.099C138.667 224.551 139.921 223.296 141.469 223.296C143.017 223.296 144.272 224.551 144.272 226.099" fill="#EFF2F7"/><path id="Fill 27" fill-rule="evenodd" clip-rule="evenodd" d="M141.469 223.796C140.199 223.796 139.166 224.829 139.166 226.099C139.166 227.368 140.199 228.401 141.469 228.401C142.739 228.401 143.772 227.368 143.772 226.099C143.772 224.829 142.739 223.796 141.469 223.796M141.469 229.401C139.648 229.401 138.166 227.92 138.166 226.099C138.166 224.277 139.648 222.796 141.469 222.796C143.29 222.796 144.772 224.277 144.772 226.099C144.772 227.92 143.29 229.401 141.469 229.401" fill="black"/><path id="Fill 29" fill-rule="evenodd" clip-rule="evenodd" d="M130.826 237.977C130.55 237.977 130.326 237.753 130.326 237.477V218.535H88.8726C88.5966 218.535 88.3726 218.311 88.3726 218.035C88.3726 217.759 88.5966 217.535 88.8726 217.535H130.826C131.102 217.535 131.326 217.759 131.326 218.035V237.477C131.326 237.753 131.102 237.977 130.826 237.977" fill="black"/><path id="Fill 31" fill-rule="evenodd" clip-rule="evenodd" d="M130.826 218.535C130.784 218.535 130.743 218.53 130.701 218.519C130.433 218.45 130.272 218.178 130.341 217.91L137.701 189.371C137.771 189.104 138.044 188.944 138.311 189.012C138.578 189.081 138.739 189.354 138.67 189.621L131.31 218.16C131.251 218.386 131.049 218.535 130.826 218.535" fill="black"/><path id="Pants" fill-rule="evenodd" clip-rule="evenodd" d="M158.434 140.775L202.488 140.292H205.425C227.952 140.292 245.35 120.498 242.46 98.157L236.753 69.5H157.79L156.582 89.795L120.367 97.799C104.884 101.222 94.3066 115.551 95.5986 131.356L98.5186 167.077L85.0386 211.518L136.667 216.007L138.605 209.947H147.217L143.626 195.805L158.434 140.775Z" fill="#409B81"/><g id="Group 37"><path id="Fill 35" fill-rule="evenodd" clip-rule="evenodd" d="M85.6962 211.073L136.312 215.474L138.129 209.794C138.195 209.587 138.388 209.447 138.605 209.447H146.574L143.141 195.928C143.12 195.845 143.121 195.758 143.143 195.675L157.951 140.645C158.009 140.428 158.204 140.277 158.428 140.275L202.482 139.791H205.425C216.018 139.791 226.104 135.228 233.098 127.272C240.091 119.315 243.323 108.727 241.963 98.2214L236.313 70.0004H158.261L157.081 89.8244C157.067 90.0484 156.908 90.2354 156.689 90.2834L120.475 98.2874C105.312 101.639 94.8322 115.838 96.0972 131.315L99.0172 167.036C99.0222 167.099 99.0152 167.162 98.9972 167.222L85.6962 211.073ZM136.623 216.505L84.9952 212.016C84.8452 212.003 84.7092 211.923 84.6242 211.798C84.5402 211.673 84.5162 211.517 84.5602 211.373L98.0122 167.023L95.1002 131.396C93.7952 115.423 104.611 100.77 120.259 97.3114L156.105 89.3884L157.29 69.4704C157.306 69.2064 157.525 69.0004 157.79 69.0004H236.752C237.004 69.0004 237.216 69.1864 237.248 69.4364L242.956 98.0934C244.351 108.884 241.032 119.76 233.849 127.932C226.665 136.104 216.306 140.791 205.425 140.791H202.487L158.818 141.27L144.142 195.809L147.702 209.823C147.739 209.973 147.706 210.132 147.611 210.254C147.517 210.375 147.371 210.447 147.217 210.447H138.97L137.143 216.159C137.077 216.368 136.883 216.507 136.667 216.507C136.653 216.507 136.638 216.507 136.623 216.505Z" fill="black"/></g><path id="Fill 38" fill-rule="evenodd" clip-rule="evenodd" d="M98.5181 167.577C98.4641 167.577 98.4081 167.568 98.3531 167.549C98.0931 167.458 97.9551 167.173 98.0461 166.912L113.668 122.065C116.875 112.86 124.462 106.066 133.965 103.891L187.676 91.5983C187.942 91.5353 188.214 91.7043 188.275 91.9743C188.337 92.2443 188.169 92.5123 187.899 92.5733L134.187 104.866C125.023 106.963 117.705 113.516 114.613 122.394L98.9901 167.242C98.9181 167.448 98.7251 167.577 98.5181 167.577" fill="black"/><path id="Fill 40" fill-rule="evenodd" clip-rule="evenodd" d="M149.207 91.9248C148.979 91.9248 148.773 91.7678 148.72 91.5368C148.658 91.2678 148.826 90.9998 149.096 90.9378L159.191 88.6158C159.462 88.5548 159.729 88.7218 159.79 88.9908C159.853 89.2598 159.685 89.5288 159.415 89.5908L149.32 91.9118C149.282 91.9208 149.244 91.9248 149.207 91.9248" fill="black"/><path id="Fill 42" fill-rule="evenodd" clip-rule="evenodd" d="M136.667 216.508C136.617 216.508 136.565 216.501 136.515 216.484C136.251 216.4 136.106 216.119 136.191 215.856L145.795 185.821C145.879 185.558 146.159 185.411 146.424 185.497C146.687 185.581 146.832 185.862 146.748 186.126L137.143 216.16C137.075 216.373 136.879 216.508 136.667 216.508" fill="black"/><path id="Fill 44" fill-rule="evenodd" clip-rule="evenodd" d="M156.105 149.927C156.062 149.927 156.019 149.922 155.975 149.91C155.709 149.839 155.55 149.565 155.622 149.298L160.757 130.11C160.829 129.844 161.104 129.686 161.37 129.756C161.636 129.827 161.794 130.101 161.723 130.368L156.587 149.556C156.528 149.78 156.326 149.927 156.105 149.927" fill="black"/><path id="Fill 46" fill-rule="evenodd" clip-rule="evenodd" d="M56.6875 236.954L56.4995 237.476H76.0655C76.3855 236.076 76.5995 234.569 76.5995 233.001C76.5995 226.153 74.8825 223.647 74.8825 223.647L71.8565 224.18C64.8745 225.407 59.0845 230.282 56.6875 236.954" fill="#EFF2F7"/><path id="Fill 48" fill-rule="evenodd" clip-rule="evenodd" d="M57.2119 236.976H75.6639C75.9529 235.601 76.0999 234.266 76.0999 233.001C76.0999 227.648 75.0239 225.005 74.6199 224.201L71.9439 224.672C65.2059 225.856 59.5749 230.564 57.2119 236.976V236.976ZM76.0659 237.976H56.4999C56.3369 237.976 56.1849 237.897 56.0909 237.764C55.9979 237.631 55.9749 237.46 56.0299 237.308L56.2179 236.785C58.6689 229.961 64.6289 224.942 71.7709 223.687L74.7959 223.155C74.9899 223.122 75.1839 223.204 75.2949 223.365C75.3689 223.472 77.0999 226.078 77.0999 233.001C77.0999 234.459 76.9159 236.002 76.5529 237.588C76.5009 237.815 76.2989 237.976 76.0659 237.976V237.976Z" fill="black"/><path id="Fill 50" fill-rule="evenodd" clip-rule="evenodd" d="M137.868 212.752C137.853 212.752 137.837 212.752 137.822 212.75L86.2194 207.972C85.9444 207.946 85.7414 207.703 85.7674 207.428C85.7924 207.153 86.0344 206.946 86.3114 206.976L137.913 211.754C138.189 211.78 138.391 212.023 138.366 212.298C138.341 212.557 138.123 212.752 137.868 212.752" fill="black"/><path id="Fill 52" fill-rule="evenodd" clip-rule="evenodd" d="M146.242 207.38H139.833C139.557 207.38 139.333 207.156 139.333 206.88C139.333 206.604 139.557 206.38 139.833 206.38H146.242C146.518 206.38 146.742 206.604 146.742 206.88C146.742 207.156 146.518 207.38 146.242 207.38" fill="black"/><path id="Fill 54" fill-rule="evenodd" clip-rule="evenodd" d="M58.641 233.001C57.856 234.23 57.192 235.549 56.687 236.954L56.5 237.477H149.539V233.001H58.641Z" fill="#EFF2F7"/><path id="Fill 56" fill-rule="evenodd" clip-rule="evenodd" d="M57.2114 236.977H149.039V233.501H58.9174C58.2234 234.62 57.6504 235.787 57.2114 236.977M149.539 237.977H56.5004C56.3374 237.977 56.1844 237.898 56.0914 237.765C55.9974 237.632 55.9744 237.461 56.0294 237.308L56.2164 236.786C56.7174 235.392 57.3914 234.028 58.2194 232.732C58.3114 232.588 58.4704 232.501 58.6414 232.501H149.539C149.815 232.501 150.039 232.725 150.039 233.001V237.477C150.039 237.753 149.815 237.977 149.539 237.977" fill="black"/><path id="Fill 58" fill-rule="evenodd" clip-rule="evenodd" d="M86.2656 220.052L90.0376 222.933Z" fill="#EFF2F7"/><path id="Fill 60" fill-rule="evenodd" clip-rule="evenodd" d="M90.0371 223.433C89.9311 223.433 89.8241 223.4 89.7341 223.33L85.9621 220.45C85.7421 220.282 85.7001 219.968 85.8681 219.748C86.0361 219.53 86.3501 219.487 86.5691 219.655L90.3411 222.536C90.5601 222.703 90.6021 223.017 90.4351 223.237C90.3361 223.365 90.1871 223.433 90.0371 223.433" fill="black"/><path id="Fill 62" fill-rule="evenodd" clip-rule="evenodd" d="M82.1167 222.207L85.8887 225.088Z" fill="#EFF2F7"/><path id="Fill 64" fill-rule="evenodd" clip-rule="evenodd" d="M85.8884 225.588C85.7824 225.588 85.6754 225.555 85.5854 225.485L81.8134 222.605C81.5944 222.437 81.5524 222.123 81.7194 221.903C81.8874 221.684 82.2004 221.641 82.4204 221.81L86.1924 224.691C86.4114 224.859 86.4534 225.172 86.2864 225.392C86.1874 225.52 86.0384 225.588 85.8884 225.588" fill="black"/></g></g></g><g id="Head" transform="translate(193 182) scale(1 1)"><g id="Head/Relax"><path id="Path 2" fill-rule="evenodd" clip-rule="evenodd" d="M12.5 43.7363C12.5 43.7363 16.0343 41.1592 15.4058 30.5163C15.4058 30.5163 20.9953 33.4358 27.0934 28.4994L28.5 43.6134C28.5 43.6134 24.2721 48.9732 19.8389 48.4534C15.4058 47.9337 12.5 43.7363 12.5 43.7363Z" fill="#fbefe3"/><path id="Path 2 Copy" fill-rule="evenodd" clip-rule="evenodd" d="M15.6185 29.1575C19.1685 31.0897 22.873 30.4235 26.799 27.1117C27.1106 26.8489 27.5511 27.076 27.5907 27.5201L28.9973 43.2699C29.0117 43.4301 28.9677 43.5899 28.876 43.711C25.9592 47.5642 22.9235 49.332 19.7865 48.9487C16.6923 48.5707 14.1229 46.8497 12.1037 43.8105C11.9264 43.5435 11.9825 43.1583 12.2257 42.9735C14.3851 41.3327 15.3152 36.9233 14.9069 29.7193C14.882 29.2794 15.274 28.9699 15.6185 29.1575ZM27.8541 43.348L26.5503 29L26.2853 29.199C22.7217 31.8029 19.2465 32.4147 15.9004 31.0061L15.7525 30.9417L15.7761 31.5369C15.9754 37.6673 15.094 41.732 13.0614 43.7146L13 43.7713L13.1374 43.9575C14.8463 46.2141 16.9214 47.5258 19.3801 47.9095L19.7177 47.956C22.5083 48.2909 25.2631 46.7152 28 43.1638L27.8541 43.348Z" fill="black"/><g id="Relax"><path id="Skin" fill-rule="evenodd" clip-rule="evenodd" d="M19.7155 31.4076C12.9695 31.4076 7.50049 25.6076 7.50049 18.4536C7.50049 11.2996 12.9695 5.49963 19.7155 5.49963C26.4605 5.49963 31.9295 11.2996 31.9295 18.4536C31.9295 25.6076 26.4605 31.4076 19.7155 31.4076Z" fill="#fbefe3"/><path id="Fill 119" fill-rule="evenodd" clip-rule="evenodd" d="M19.715 6C13.256 6 8 11.586 8 18.454C8 25.321 13.256 30.907 19.715 30.907C26.174 30.907 31.429 25.321 31.429 18.454C31.429 11.586 26.174 6 19.715 6M19.715 31.907C12.704 31.907 7 25.872 7 18.454C7 11.035 12.704 5 19.715 5C26.726 5 32.429 11.035 32.429 18.454C32.429 25.872 26.726 31.907 19.715 31.907" fill="black"/><path id="Fill 125" fill-rule="evenodd" clip-rule="evenodd" d="M16.2932 22.6103C16.2732 22.6103 16.2532 22.6093 16.2322 22.6073L14.1902 22.3593C14.0462 22.3413 13.9182 22.2633 13.8362 22.1433C13.7552 22.0243 13.7302 21.8753 13.7672 21.7353L14.3852 19.3833C14.4562 19.1173 14.7312 18.9613 14.9962 19.0273C15.2632 19.0983 15.4222 19.3713 15.3522 19.6383L14.8792 21.4353L16.3532 21.6133C16.6272 21.6473 16.8222 21.8963 16.7892 22.1703C16.7582 22.4243 16.5432 22.6103 16.2932 22.6103" fill="black"/><path id="Fill 127" fill-rule="evenodd" clip-rule="evenodd" d="M19.9589 16.7226C19.4339 16.7226 18.7539 16.6316 18.0459 16.2916C17.7969 16.1726 17.6919 15.8746 17.8119 15.6246C17.9309 15.3766 18.2289 15.2696 18.4789 15.3906C19.6129 15.9336 20.6709 15.6446 20.6819 15.6416C20.9449 15.5706 21.2229 15.7196 21.2989 15.9846C21.3759 16.2486 21.2259 16.5246 20.9609 16.6016C20.9309 16.6116 20.5399 16.7226 19.9589 16.7226" fill="black"/><path id="Fill 129" fill-rule="evenodd" clip-rule="evenodd" d="M10.6998 16.9062C10.5728 16.9062 10.4458 16.8582 10.3488 16.7622C10.1518 16.5682 10.1498 16.2512 10.3438 16.0552C11.5068 14.8772 12.9228 14.7812 12.9828 14.7772C13.2578 14.7712 13.4938 14.9712 13.5108 15.2472C13.5268 15.5222 13.3178 15.7582 13.0438 15.7752C13.0258 15.7772 11.9368 15.8642 11.0558 16.7572C10.9578 16.8562 10.8288 16.9062 10.6998 16.9062" fill="black"/><path id="Fill 131" fill-rule="evenodd" clip-rule="evenodd" d="M15.8408 26.9321C14.9598 26.9321 14.3598 26.1921 14.2938 26.1061C14.1238 25.8891 14.1638 25.5741 14.3828 25.4051C14.5998 25.2361 14.9138 25.2761 15.0818 25.4921C15.1828 25.6181 15.5378 25.9551 15.8558 25.9321C16.1038 25.9261 16.3608 25.7391 16.6178 25.3771C16.7778 25.1521 17.0898 25.1001 17.3158 25.2601C17.5408 25.4201 17.5928 25.7331 17.4328 25.9571C16.9808 26.5921 16.4558 26.9201 15.8728 26.9321H15.8408Z" fill="black"/><path id="Fill 265" fill-rule="evenodd" clip-rule="evenodd" d="M19.6171 20.9062C18.9541 20.9062 18.3621 20.6222 18.0401 20.3772C17.8201 20.2102 17.7771 19.8962 17.9441 19.6772C18.1111 19.4582 18.4231 19.4132 18.6431 19.5792C18.7451 19.6552 19.6321 20.2712 20.4141 19.5992C20.6231 19.4202 20.9391 19.4432 21.1191 19.6532C21.2991 19.8632 21.2751 20.1782 21.0651 20.3582C20.5951 20.7622 20.0881 20.9062 19.6171 20.9062" fill="black"/><path id="Fill 267" fill-rule="evenodd" clip-rule="evenodd" d="M12.245 20.9062C11.582 20.9062 10.99 20.6222 10.668 20.3772C10.448 20.2102 10.405 19.8962 10.572 19.6772C10.739 19.4582 11.051 19.4132 11.271 19.5792C11.373 19.6552 12.26 20.2712 13.042 19.5992C13.251 19.4202 13.567 19.4432 13.747 19.6532C13.927 19.8632 13.903 20.1782 13.693 20.3582C13.223 20.7622 12.716 20.9062 12.245 20.9062" fill="black"/></g></g></g><g id="Upper Body" transform="translate(58 111) scale(1 1)"><g id="Upper Body/Phone"><g id="Phone"><path id="Skin" fill-rule="evenodd" clip-rule="evenodd" d="M223.817 153.607L197.084 161.31L198.783 165.292C198.783 165.292 180.904 153.211 175.427 148.541C169.951 143.87 166.085 131.467 163.508 127.601C160.931 123.735 155.454 124.057 154.005 125.709C152.555 127.36 153.682 128.567 153.682 128.567C153.682 128.567 144.823 123.252 141.602 127.118C138.38 130.983 144.018 134.849 144.018 134.849C144.018 134.849 134.837 130.822 133.375 135.171C131.913 139.521 137.414 141.937 137.414 141.937C136.528 141.715 135.631 142.115 134.919 142.613C133.825 143.378 133.072 144.592 133.011 145.925C132.828 150 138.326 151.128 139.99 151.376C136.376 150.993 135.481 154.902 135.481 154.902C134.918 160.46 141.28 160.138 141.28 160.138C154.73 158.93 163.025 165.775 163.025 165.775C163.025 165.775 183.481 200.406 209.092 197.185C234.702 193.963 223.817 153.607 223.817 153.607M97.3074 148.057C95.6964 154.661 95.5624 156.511 95.5624 156.511L85.4064 153.219C85.4064 153.219 61.5484 186.554 81.3604 198.957C101.172 211.359 116.474 161.749 116.474 161.749C116.474 161.749 119.842 158.848 122.83 154.907L126.974 138.433C126.515 137.26 125.978 136.782 125.978 136.782C125.978 136.782 126.488 137.105 127.218 137.461L129.314 129.128C127.312 127.781 124.264 126.552 119.696 125.668C104.716 122.769 98.9184 141.453 97.3074 148.057" fill="#fbefe3"/><path id="Tshirt" fill-rule="evenodd" clip-rule="evenodd" d="M118.419 159.919L118.032 162.811L113.938 186.791H180.941C170.02 177.603 163.024 165.776 163.024 165.776C163.024 165.776 154.729 158.93 141.279 160.138C141.279 160.138 134.917 160.461 135.481 154.902C135.481 154.902 136.375 150.993 139.99 151.377C138.325 151.128 132.827 150.001 133.011 145.925C133.071 144.592 133.825 143.378 134.918 142.613C135.63 142.115 136.527 141.715 137.414 141.937C137.414 141.937 131.912 139.521 133.375 135.172C134.836 130.823 144.018 134.85 144.018 134.85C144.018 134.85 138.38 130.984 141.602 127.118C144.823 123.252 153.682 128.568 153.682 128.568C153.682 128.568 152.554 127.361 154.004 125.71C155.454 124.058 160.93 123.736 163.507 127.602C166.085 131.467 169.95 143.87 175.427 148.541C178.761 151.385 186.686 156.971 192.381 160.909L190.736 148.617L196.019 161.617L197.083 161.31L223.816 153.607L226.045 152.966L216.474 139.007C205.527 123.043 187.415 113.5 168.057 113.5H163.36C162.102 116.149 158.988 118.029 155.334 118.041C151.679 118.029 148.565 116.149 147.308 113.5H142.61C123.253 113.5 103.098 122.751 92.1516 138.715L83.3066 152.539L94.1146 156.043L95.5616 156.511C95.5616 156.511 95.6946 154.662 97.3056 148.058C98.9166 141.454 104.715 122.769 119.695 125.669C134.675 128.568 133.375 135.172 132.098 137.517C130.822 139.861 125.977 136.783 125.977 136.783C125.977 136.783 128.715 139.199 127.105 146.599C125.969 151.815 121.163 157.191 118.419 159.919" fill="#EFF2F7"/><path id="Phone_2" fill-rule="evenodd" clip-rule="evenodd" d="M141.279 160.138C141.279 160.138 134.917 160.46 135.48 154.902C135.48 154.902 136.375 150.993 139.989 151.376C138.325 151.128 132.827 150 133.01 145.925C133.071 144.592 133.824 143.378 134.918 142.613C135.63 142.115 136.527 141.715 137.413 141.937C137.413 141.937 131.912 139.521 133.374 135.172C134.836 130.823 144.017 134.849 144.017 134.849C144.017 134.849 138.38 130.984 141.601 127.118C144.393 123.767 151.411 127.309 153.235 128.314L153.337 127.909C153.201 127.436 153.208 126.739 153.838 125.918L154.423 123.59C154.773 122.199 153.929 120.788 152.539 120.439L135.268 116.095C133.878 115.745 132.467 116.589 132.117 117.979L122.731 155.297C122.382 156.687 123.225 158.098 124.615 158.448L141.886 162.791C143.277 163.141 144.687 162.298 145.037 160.907L145.259 160.023C143.985 159.992 142.667 160.013 141.279 160.138" fill="#FF5613"/><path id="Fill 7" fill-rule="evenodd" clip-rule="evenodd" d="M134.21 120.503C134.009 121.301 134.493 122.11 135.291 122.311C136.088 122.511 136.898 122.027 137.098 121.23C137.299 120.432 136.815 119.623 136.017 119.422C135.22 119.222 134.411 119.706 134.21 120.503" fill="#EFF2F7"/><path id="Fill 9" fill-rule="evenodd" clip-rule="evenodd" d="M134.694 120.625C134.561 121.154 134.883 121.692 135.412 121.826C135.669 121.89 135.934 121.851 136.161 121.715C136.388 121.58 136.548 121.364 136.612 121.107C136.677 120.852 136.638 120.585 136.502 120.359C136.367 120.132 136.151 119.972 135.894 119.907C135.365 119.771 134.827 120.096 134.694 120.625M135.657 122.856C135.494 122.856 135.33 122.836 135.168 122.795C134.104 122.528 133.457 121.445 133.724 120.381C133.992 119.317 135.074 118.668 136.139 118.938C136.654 119.067 137.088 119.39 137.361 119.846C137.633 120.301 137.712 120.836 137.582 121.352C137.453 121.867 137.13 122.301 136.674 122.574C136.362 122.761 136.012 122.856 135.657 122.856" fill="black"/><path id="Fill 11" fill-rule="evenodd" clip-rule="evenodd" d="M180.356 186.291H114.531L118.528 162.877L119.003 159.328C118.577 159.765 118.181 160.16 117.839 160.489L117.54 162.727L113.445 186.707C113.42 186.852 113.461 187.001 113.556 187.113C113.651 187.226 113.791 187.291 113.938 187.291H181.534C181.134 186.962 180.746 186.626 180.356 186.291" fill="black"/><path id="Fill 13" fill-rule="evenodd" clip-rule="evenodd" d="M226.457 152.683L216.886 138.725C205.842 122.617 187.588 113 168.057 113H163.359C163.166 113 162.991 113.112 162.908 113.286C161.686 115.86 158.712 117.531 155.335 117.541C151.955 117.531 148.981 115.86 147.759 113.286C147.677 113.112 147.501 113 147.308 113H142.61C122.301 113 102.333 122.983 91.7303 138.446L82.8853 152.27C82.8023 152.4 82.7833 152.562 82.8363 152.708C82.8883 152.854 83.0053 152.967 83.1523 153.015L85.1073 153.649C85.2973 153.37 85.4053 153.22 85.4053 153.22L95.5613 156.512C95.5613 156.512 95.5733 156.359 95.6243 156.006L84.0773 152.264L92.5643 138.998C102.977 123.813 122.621 114 142.61 114H146.999C148.462 116.758 151.693 118.53 155.335 118.541C158.974 118.53 162.205 116.758 163.668 114H168.057C187.258 114 205.203 123.454 216.061 139.29L225.24 152.677L196.312 161.012L191.199 148.429C191.104 148.195 190.849 148.069 190.608 148.134C190.364 148.199 190.207 148.434 190.24 148.683L191.825 160.525C192.205 160.787 192.576 161.044 192.937 161.293L191.753 152.449L195.555 161.805C195.651 162.043 195.91 162.168 196.157 162.098L197.281 161.774L197.083 161.31L223.816 153.608C223.816 153.608 223.862 153.778 223.94 154.093L226.183 153.446C226.337 153.402 226.461 153.286 226.516 153.135C226.569 152.983 226.548 152.815 226.457 152.683" fill="black"/><path id="Fill 16" fill-rule="evenodd" clip-rule="evenodd" d="M96.821 147.939C96.113 150.842 95.689 152.828 95.436 154.151C95.321 154.726 95.205 155.288 95.087 155.832L85.56 152.744C85.352 152.676 85.126 152.751 85 152.928C84.963 152.979 81.324 158.091 78.096 164.949C75.103 171.309 71.857 180.522 73.395 188.301C74.332 193.041 76.923 196.769 81.095 199.381C83.293 200.757 85.531 201.446 87.787 201.446C89.164 201.446 90.548 201.189 91.932 200.674C98.079 198.387 104.161 191.153 110.011 179.171C114.037 170.924 116.554 163.153 116.909 162.034C117.497 161.519 120.128 159.146 122.663 155.953C122.661 155.736 122.677 155.517 122.732 155.297L123.16 153.597C120.088 157.943 116.208 161.319 116.149 161.37C116.077 161.431 116.025 161.512 115.997 161.602C115.895 161.93 105.708 194.483 91.583 199.737C88.238 200.98 84.888 200.575 81.626 198.533C77.697 196.073 75.258 192.566 74.376 188.109C71.717 174.659 83.85 156.364 85.604 153.809L94.868 156.812C91.868 169.967 88.013 173.564 87.956 173.616C87.75 173.797 87.729 174.112 87.91 174.32C88.009 174.433 88.148 174.491 88.287 174.491C88.404 174.491 88.521 174.45 88.616 174.367C88.797 174.209 92.789 170.574 95.879 156.885C95.98 156.799 96.05 156.682 96.06 156.548C96.061 156.537 96.124 155.794 96.547 153.691C96.55 153.677 96.552 153.663 96.555 153.648C96.813 152.368 97.204 150.591 97.793 148.176C99.63 140.643 105.437 123.418 119.601 126.159C123.796 126.971 127.026 128.156 129.183 129.65L129.444 128.611C127.186 127.136 123.965 125.985 119.791 125.178C104.779 122.272 98.726 140.127 96.821 147.939M126.244 136.36L122.414 133.915C122.354 133.876 122.289 133.854 122.222 133.843C118.525 130.862 112.823 130.429 112.481 130.406C112.202 130.402 111.968 130.596 111.949 130.871C111.93 131.147 112.138 131.385 112.414 131.404C112.526 131.411 123.607 132.252 124.312 139.469C124.983 146.325 123.77 148.174 122.988 148.666C122.336 149.076 121.403 148.918 120.216 148.202C120.429 145.942 119.799 143.019 118.308 139.437C116.08 134.081 108.545 135.484 108.224 135.547C107.954 135.6 107.777 135.862 107.83 136.133C107.883 136.404 108.142 136.581 108.416 136.528C108.486 136.516 115.47 135.219 117.391 139.836C120.189 146.561 119.836 150.716 116.384 152.172C115.765 152.366 114.012 152.705 113.349 151.938C113.347 151.936 113.344 151.935 113.342 151.933C114.155 149.522 114.26 146.367 113.949 144.197C113.227 139.158 105.531 139.663 105.203 139.685C104.928 139.705 104.721 139.944 104.741 140.219C104.761 140.495 105 140.71 105.276 140.682C105.346 140.675 112.369 140.219 112.96 144.338C113.411 147.487 112.891 152.776 110.771 154.103C109.954 154.613 108.919 154.452 107.695 153.624C104.196 151.255 107.514 145.222 107.549 145.161C107.683 144.92 107.597 144.616 107.356 144.481C107.116 144.346 106.811 144.431 106.676 144.672C106.623 144.768 106.169 145.601 105.758 146.762C105.323 146.567 105.185 145.462 105.228 144.768C105.246 144.493 105.037 144.255 104.761 144.237C104.486 144.212 104.249 144.427 104.23 144.703C104.214 144.954 104.106 147.173 105.392 147.696C105.414 147.705 105.437 147.703 105.459 147.709C104.851 149.919 104.691 152.798 107.134 154.452C108.167 155.151 109.038 155.394 109.75 155.394C110.398 155.394 110.914 155.193 111.301 154.951C111.995 154.517 112.537 153.791 112.956 152.902C113.484 153.28 114.156 153.41 114.794 153.41C115.767 153.41 116.641 153.138 116.729 153.109C118.509 152.36 119.615 151.069 120.05 149.25C120.828 149.668 121.541 149.891 122.176 149.891C122.669 149.891 123.118 149.765 123.52 149.512C125.258 148.42 125.859 145.008 125.307 139.372C125.195 138.224 124.86 137.227 124.374 136.352L125.664 137.176C125.763 137.277 126.345 137.922 126.742 139.356L127.343 136.965C126.885 136.738 126.491 136.516 126.246 136.36C126.245 136.36 126.245 136.36 126.244 136.36M221.33 189.445C218.558 193.574 214.42 196.011 209.029 196.689C184.042 199.826 163.658 165.865 163.455 165.522C163.426 165.472 163.388 165.427 163.343 165.39C163.027 165.129 156.052 159.492 144.502 159.492C143.457 159.492 142.373 159.539 141.256 159.639C141.225 159.644 138.382 159.758 136.88 158.174C136.143 157.398 135.841 156.314 135.968 155.014C136.002 154.869 136.779 151.675 139.736 151.847C140.121 151.908 140.374 151.933 140.428 151.939C140.474 151.943 140.517 151.933 140.561 151.925C142.976 152.338 146.964 153.087 149.429 153.909C149.482 153.926 149.535 153.935 149.588 153.935C149.797 153.935 149.992 153.802 150.062 153.593C150.149 153.331 150.008 153.047 149.746 152.96C146.047 151.727 139.28 150.696 138.699 150.609C136.579 150.087 133.382 148.823 133.511 145.948C133.562 144.823 134.195 143.73 135.205 143.023C135.99 142.474 136.693 142.273 137.293 142.422C137.309 142.426 137.325 142.422 137.342 142.425C137.358 142.427 137.371 142.436 137.387 142.437C137.415 142.438 138.551 142.51 140.415 142.876L148.921 145.535C149.945 145.974 151.003 146.47 152.09 147.041C152.164 147.08 152.243 147.099 152.322 147.099C152.502 147.099 152.675 147.002 152.764 146.831C152.893 146.587 152.799 146.285 152.554 146.156C144.748 142.052 138.379 141.501 137.538 141.444C136.899 141.145 132.621 138.985 133.849 135.331C134.059 134.705 134.465 134.267 135.088 133.991C137.901 132.744 143.759 135.282 143.817 135.308C143.829 135.313 143.842 135.312 143.854 135.316C143.865 135.32 143.873 135.328 143.884 135.332C143.923 135.342 146.076 135.948 148.716 137.064L151.609 138.427C152.808 139.058 153.991 139.776 155.028 140.579C155.119 140.649 155.227 140.683 155.334 140.683C155.483 140.683 155.631 140.616 155.73 140.489C155.899 140.271 155.859 139.957 155.64 139.788C151.387 136.497 145.026 134.617 144.239 134.393C143.835 134.099 141.438 132.271 141.138 130.092C141.009 129.147 141.286 128.279 141.986 127.439C144.897 123.943 153.341 128.945 153.426 128.997C153.433 129.002 153.443 129.002 153.451 129.006C153.458 129.01 153.463 129.017 153.471 129.021C153.505 129.037 156.919 130.651 160.079 133.607C160.175 133.698 160.298 133.742 160.42 133.742C160.553 133.742 160.687 133.689 160.785 133.584C160.974 133.382 160.964 133.066 160.761 132.877C157.747 130.056 154.602 128.459 154 128.166C153.84 127.949 153.397 127.16 154.381 126.039C154.976 125.361 156.461 124.955 157.999 125.06C160.135 125.201 161.992 126.229 163.092 127.879C163.927 129.132 164.92 131.348 166.069 133.913C168.429 139.179 171.366 145.733 175.103 148.921C179.715 152.855 193.215 162.108 197.309 164.896C197.382 164.947 197.469 165.006 197.576 165.078C198.143 165.463 198.48 165.69 198.503 165.707C198.562 165.747 198.632 165.75 198.698 165.761C200.282 166.65 202.86 167.794 205.629 167.794C205.882 167.794 206.137 167.784 206.393 167.764C206.668 167.742 206.874 167.501 206.852 167.226C206.83 166.951 206.591 166.752 206.314 166.767C205.798 166.808 205.283 166.797 204.776 166.751L199.399 164.996C199.308 164.947 199.223 164.899 199.138 164.851L197.765 161.634L223.459 154.231C224.299 157.674 228.867 178.218 221.33 189.445M226.44 166.921C225.907 159.5 224.316 153.537 224.3 153.477C224.265 153.348 224.179 153.238 224.063 153.172C223.945 153.106 223.807 153.088 223.678 153.127L196.945 160.83C196.807 160.869 196.694 160.966 196.632 161.096C196.571 161.225 196.568 161.375 196.624 161.506L197.654 163.921C193.325 160.971 180.248 151.995 175.752 148.161C172.186 145.119 169.301 138.679 166.982 133.503C165.814 130.897 164.806 128.647 163.924 127.324C162.65 125.413 160.514 124.224 158.065 124.062C156.186 123.94 154.441 124.455 153.629 125.379C152.952 126.15 152.744 126.884 152.766 127.496C150.165 126.158 143.97 123.498 141.218 126.798C140.339 127.853 139.979 129.008 140.148 130.231C140.324 131.506 141.053 132.642 141.808 133.51C139.691 132.852 136.653 132.205 134.683 133.076C133.801 133.466 133.202 134.118 132.901 135.013C131.899 137.995 133.884 140.304 135.772 141.588C135.401 141.727 135.02 141.932 134.632 142.204C133.369 143.086 132.577 144.47 132.512 145.903C132.369 149.065 135.19 150.601 137.506 151.326C136.012 152.127 135.231 153.746 134.984 154.852C134.815 156.519 135.21 157.869 136.157 158.866C137.98 160.783 141.17 160.643 141.325 160.636C153.791 159.516 161.851 165.496 162.643 166.111C163.732 167.908 182.301 197.894 205.754 197.894C206.875 197.894 208.011 197.825 209.154 197.681C214.845 196.965 219.221 194.381 222.162 190.001C226.593 183.397 226.934 173.805 226.44 166.921" fill="black"/><path id="Fill 19" fill-rule="evenodd" clip-rule="evenodd" d="M144.72 160.015L144.528 160.779C144.393 161.315 144.057 161.767 143.582 162.051C143.107 162.335 142.55 162.417 142.014 162.282L124.744 157.938C124.207 157.803 123.756 157.467 123.471 156.993C123.187 156.518 123.105 155.961 123.24 155.424L132.627 118.107C132.863 117.168 133.709 116.54 134.636 116.54C134.803 116.54 134.971 116.561 135.14 116.603L152.411 120.948C152.947 121.082 153.399 121.418 153.683 121.893C153.967 122.368 154.049 122.925 153.914 123.461L152.758 128.058C153.331 128.359 153.681 128.567 153.681 128.567C153.681 128.567 152.554 127.36 154.004 125.709C154.144 125.549 154.331 125.407 154.54 125.274L154.932 123.717C155.136 122.909 155.012 122.069 154.584 121.354C154.156 120.639 153.475 120.133 152.667 119.929L135.396 115.585C133.727 115.164 132.028 116.182 131.608 117.851L122.222 155.168C122.019 155.977 122.142 156.816 122.57 157.532C122.998 158.247 123.679 158.753 124.488 158.956L141.758 163.3C142.012 163.364 142.269 163.396 142.525 163.396C143.082 163.396 143.631 163.245 144.121 162.952C144.837 162.524 145.343 161.843 145.546 161.035L145.799 160.029C145.447 160.015 145.081 160.018 144.72 160.015" fill="black"/></g></g></g><g id="Accesories" transform="translate(193 182) scale(1 1)"><g id="Accesories/Glasses"><path id="Glasses" fill-rule="evenodd" clip-rule="evenodd" d="M19.8652 20.4009C18.3762 20.4009 17.1652 19.1899 17.1652 17.7009C17.1652 16.2119 18.3762 14.9999 19.8652 14.9999C21.3542 14.9999 22.5652 16.2119 22.5652 17.7009C22.5652 19.1899 21.3542 20.4009 19.8652 20.4009M12.0122 20.4009C10.5232 20.4009 9.31218 19.1899 9.31218 17.7009C9.31218 16.2119 10.5232 14.9999 12.0122 14.9999C13.5022 14.9999 14.7132 16.2119 14.7132 17.7009C14.7132 19.1899 13.5022 20.4009 12.0122 20.4009M25.6602 17.2009H23.5142C23.2672 15.3979 21.7342 13.9999 19.8652 13.9999C17.9962 13.9999 16.4632 15.3979 16.2162 17.2009H15.6622C15.4162 15.3979 13.8812 13.9999 12.0122 13.9999C10.1442 13.9999 8.60918 15.3979 8.36318 17.2009H7.50018C7.22318 17.2009 7.00018 17.4239 7.00018 17.7009C7.00018 17.9769 7.22318 18.2009 7.50018 18.2009H8.36318C8.60918 20.0039 10.1442 21.4009 12.0122 21.4009C13.8812 21.4009 15.4162 20.0039 15.6622 18.2009H16.2162C16.4632 20.0039 17.9962 21.4009 19.8652 21.4009C21.7342 21.4009 23.2672 20.0039 23.5142 18.2009H25.6602C25.9362 18.2009 26.1602 17.9769 26.1602 17.7009C26.1602 17.4239 25.9362 17.2009 25.6602 17.2009" fill="black"/></g></g><g id="Hair" transform="translate(143 149) scale(1 1)"><g id="Hair/Medium Top Bun"><g id="Medium Top Bun"><path id="Hair" fill-rule="evenodd" clip-rule="evenodd" d="M94.5121 52.0161C86.4701 50.9201 90.0431 33.7281 74.5651 33.7281H69.7871H67.0241C51.5461 33.7281 55.1881 50.9201 47.1461 52.0161C34.2611 53.7731 36.6881 66.7411 36.6881 66.7411H65.2571L66.1641 63.9111H66.1651C61.1881 62.2741 57.5731 57.3531 57.5731 51.5371C57.5731 48.7211 58.4291 46.1231 59.8681 43.9971H73.8531C75.0601 43.9971 76.0761 44.9031 76.2131 46.1031L76.8421 51.6121C77.4891 51.4901 78.2071 51.5681 79.0691 52.5791C79.3881 52.9541 79.6151 53.4291 79.6111 53.9211C79.6011 55.2031 78.5591 56.2391 77.2751 56.2391C77.1981 56.2391 77.1251 56.2241 77.0491 56.2161L77.1911 62.0281L77.2571 64.6891L77.3061 66.7411H104.97C104.97 66.7411 107.396 53.7731 94.5121 52.0161M78.4011 25.1141C78.4011 20.3561 74.5451 16.5001 69.7871 16.5001C65.0301 16.5001 61.1731 20.3561 61.1731 25.1141C61.1731 29.8711 65.0301 33.7281 69.7871 33.7281C74.5451 33.7281 78.4011 29.8711 78.4011 25.1141" fill="#4b2500"/><path id="Fill 3" fill-rule="evenodd" clip-rule="evenodd" d="M104.537 66.2412H77.7949L77.5619 56.7242C78.9809 56.5812 80.0999 55.3802 80.1109 53.9242C80.1149 53.3532 79.8799 52.7602 79.4499 52.2552C78.6359 51.2992 77.8799 51.0712 77.2829 51.0682L76.7089 46.0462C76.5439 44.5932 75.3159 43.4972 73.8529 43.4972H59.8689C59.7029 43.4972 59.5479 43.5802 59.4539 43.7172C57.8959 46.0182 57.0729 48.7222 57.0729 51.5372C57.0729 57.2902 60.4539 62.3232 65.5399 64.2212L64.8919 66.2412H37.1209C36.9539 64.8702 36.6399 60.3292 39.1629 56.8382C40.8809 54.4612 43.5899 53.0062 47.2139 52.5122C50.8079 52.0212 52.2369 48.6072 53.7489 44.9922C55.8589 39.9472 58.2509 34.2282 67.0239 34.2282H74.5649C83.3389 34.2282 85.7549 39.9492 87.8859 44.9952C89.4109 48.6092 90.8519 52.0212 94.4449 52.5122C98.0679 53.0062 100.777 54.4612 102.495 56.8382C105.018 60.3292 104.704 64.8702 104.537 66.2412M61.6729 25.1142C61.6729 20.6402 65.3129 17.0002 69.7869 17.0002C74.2619 17.0002 77.9019 20.6402 77.9019 25.1142C77.9019 29.5882 74.2619 33.2282 69.7869 33.2282C65.3129 33.2282 61.6729 29.5882 61.6729 25.1142M103.31 56.2592C101.426 53.6482 98.4879 52.0532 94.5789 51.5202C91.5519 51.1082 90.2799 48.0952 88.8069 44.6072C86.6659 39.5372 84.0029 33.2282 74.5649 33.2282H73.9169C76.8709 31.7192 78.9019 28.6522 78.9019 25.1142C78.9019 20.0892 74.8129 16.0002 69.7869 16.0002C64.7619 16.0002 60.6729 20.0892 60.6729 25.1142C60.6729 28.6962 62.7559 31.7932 65.7679 33.2822C57.3569 33.8242 54.8489 39.7722 52.8259 44.6062C51.3669 48.0952 50.1059 51.1082 47.0789 51.5202C43.1699 52.0532 40.2319 53.6482 38.3479 56.2592C35.1049 60.7512 36.1499 66.5872 36.1959 66.8332C36.2409 67.0702 36.4469 67.2412 36.6879 67.2412H65.2569C65.4739 67.2412 65.6659 67.1012 65.7329 66.8942L66.6409 64.0642C66.7249 63.8022 66.5819 63.5222 66.3219 63.4362C61.3879 61.8142 58.0729 57.0322 58.0729 51.5372C58.0729 49.0122 58.7859 46.5842 60.1369 44.4972H73.8529C74.8079 44.4972 75.6079 45.2122 75.7159 46.1592L76.3459 51.6682C76.3609 51.8062 76.4329 51.9312 76.5449 52.0142C76.6569 52.0962 76.7979 52.1302 76.9349 52.1032C77.3819 52.0192 77.9219 52.0042 78.6879 52.9042C78.9629 53.2262 79.1139 53.5862 79.1109 53.9172C79.1029 54.9222 78.2799 55.7392 77.2759 55.7392L77.0979 55.7192C76.9559 55.7062 76.8139 55.7532 76.7079 55.8502C76.6039 55.9482 76.5459 56.0852 76.5489 56.2282L76.8069 66.7532C76.8139 67.0252 77.0359 67.2412 77.3069 67.2412H104.97C105.211 67.2412 105.417 67.0702 105.462 66.8332C105.508 66.5872 106.553 60.7512 103.31 56.2592" fill="black"/></g></g></g><g id="Facial Hair" transform="translate(193 182) scale(39 49)"><g id="Facial Hair/No Facial Hair" stroke="none" stroke-width="1" fill="none" fill-rule="evenodd" fill-opacity="0"/></g></g></g><g id="Object" transform="translate(554 220) scale(1 1)"><g id="Object/Lamp"><g id="Lamp"><path id="Fill 1" fill-rule="evenodd" clip-rule="evenodd" d="M140.557 358.051H145.746V146.659H140.557V358.051Z" fill="#E96600"/><path id="Combined Shape" fill-rule="evenodd" clip-rule="evenodd" d="M153.878 229.19C153.878 229.466 154.102 229.69 154.378 229.69C154.654 229.69 154.878 229.466 154.878 229.19V179.346C154.878 179.07 154.654 178.846 154.378 178.846C154.102 178.846 153.878 179.07 153.878 179.346V229.19Z" fill="black"/><path id="Fill 3" fill-rule="evenodd" clip-rule="evenodd" d="M170.801 362.911L150.078 355.784C145.589 354.241 140.712 354.241 136.224 355.784L115.5 362.911V367.771H170.801V362.911Z" fill="#E96600"/><path id="Lamp_2" fill-rule="evenodd" clip-rule="evenodd" d="M165.804 179.346H120.497V100.5H165.804V179.346ZM152.762 229.972C152.762 230.873 153.493 231.604 154.394 231.604C155.295 231.604 156.026 230.873 156.026 229.972V222.9C156.026 221.999 155.295 221.268 154.394 221.268C153.493 221.268 152.762 221.999 152.762 222.9V229.972Z" fill="#FCBD21"/><path id="Fill 14" fill-rule="evenodd" clip-rule="evenodd" d="M120.997 178.846H165.304V101H120.997V178.846ZM119.997 179.846H166.304V100H119.997V179.846Z" fill="black"/><path id="Fill 18" fill-rule="evenodd" clip-rule="evenodd" d="M154.394 221.768C153.77 221.768 153.262 222.276 153.262 222.9V229.972C153.262 230.596 153.77 231.104 154.394 231.104C155.018 231.104 155.526 230.596 155.526 229.972V222.9C155.526 222.276 155.018 221.768 154.394 221.768M154.394 232.104C153.218 232.104 152.262 231.148 152.262 229.972V222.9C152.262 221.724 153.218 220.768 154.394 220.768C155.57 220.768 156.526 221.724 156.526 222.9V229.972C156.526 231.148 155.57 232.104 154.394 232.104" fill="black"/></g></g></g></g></svg>