<svg viewBox="133.125 116.53374233128841 426 409.20245398772994" fill="none" xmlns="http://www.w3.org/2000/svg" xmlns:xlink="http://www.w3.org/1999/xlink" overflow="visible" width="426px" height="409.20245398772994px"><g id="Master/Spot Illustration/Preparing your Food"><g id="Group 67"><path id="Fill 19" fill-rule="evenodd" clip-rule="evenodd" d="M186 395.674H523.771V394.674H186V395.674Z" fill="black"/><g id="Food Option" transform="translate(318.96 96) scale(1 1)"><g id="Food Option/Chicken"><g id="Chicken"><path id="Combined Shape" fill-rule="evenodd" clip-rule="evenodd" d="M40.7324 144.288H102.562C104.298 144.288 105.706 142.881 105.706 141.144C105.706 139.408 104.298 138 102.562 138H40.7324C38.9964 138 37.5884 139.408 37.5884 141.144C37.5884 142.881 38.9964 144.288 40.7324 144.288ZM40.733 155.826H127.539C129.275 155.826 130.683 154.418 130.683 152.682C130.683 150.946 129.275 149.538 127.539 149.538H40.733C38.997 149.538 37.589 150.946 37.589 152.682C37.589 154.418 38.997 155.826 40.733 155.826Z" fill="#EEF2F8"/><path id="Combined Shape_2" fill-rule="evenodd" clip-rule="evenodd" d="M30.7525 30.4499C30.7525 27.3299 33.2905 24.7919 36.4105 24.7919H182.862C185.982 24.7919 188.52 27.3299 188.52 30.4499V125.969H30.7525V30.4499ZM29.7525 126.479V159.085C29.7525 162.756 32.7395 165.743 36.4105 165.743H182.862C186.533 165.743 189.52 162.756 189.52 159.085V30.4499C189.52 26.7789 186.533 23.7919 182.862 23.7919H36.4105C32.7395 23.7919 29.7525 26.7789 29.7525 30.4499V126.459C29.7525 126.462 29.7524 126.465 29.7524 126.469C29.7524 126.472 29.7525 126.475 29.7525 126.479ZM30.7525 126.969H188.52V159.085C188.52 162.205 185.982 164.743 182.862 164.743H36.4105C33.2905 164.743 30.7525 162.205 30.7525 159.085V126.969Z" fill="black"/><g id="Chicken_2"><path id="Fill 1" fill-rule="evenodd" clip-rule="evenodd" d="M143.331 48.7783C142.667 48.1133 141.786 47.8223 140.915 47.8583C140.952 46.9883 140.661 46.1083 139.997 45.4433C138.736 44.1833 136.693 44.1833 135.434 45.4433C134.951 45.9253 134.664 46.5173 134.563 47.1353C134.231 49.1633 133.561 51.1183 132.108 52.5703L126.019 58.6603C126.775 59.1133 127.331 59.7713 127.707 60.5253C127.896 60.3833 128.101 60.2573 128.317 60.1443C129.119 59.3093 130.267 58.7593 131.769 58.7593C131.806 58.7593 131.839 58.7643 131.875 58.7643C132.571 58.3433 133.426 58.0913 134.443 58.0913C134.554 58.0913 134.656 58.1013 134.763 58.1073L136.204 56.6663C137.656 55.2133 139.612 54.5433 141.64 54.2113C142.257 54.1103 142.849 53.8233 143.331 53.3403C144.592 52.0813 144.592 50.0383 143.331 48.7783M161.202 49.9363C160.537 49.2713 159.657 48.9803 158.786 49.0173C158.823 48.1463 158.532 47.2663 157.867 46.6013C156.607 45.3413 154.564 45.3413 153.305 46.6013C152.822 47.0843 152.535 47.6753 152.435 48.2943C152.102 50.3213 151.433 52.2763 149.979 53.7293L144.191 59.5163C144.817 59.7333 145.338 60.0773 145.774 60.4933C146.433 60.7303 146.976 61.1063 147.422 61.5633C148.011 61.9633 148.477 62.4843 148.814 63.0853L154.075 57.8243C155.527 56.3723 157.482 55.7013 159.51 55.3703C160.128 55.2683 160.72 54.9813 161.202 54.4993C162.462 53.2393 162.462 51.1963 161.202 49.9363" fill="#FDEEE1"/><path id="Fill 3" fill-rule="evenodd" clip-rule="evenodd" d="M145.85 87.373C153.014 79.884 154.402 69.289 148.751 62.88C144.005 57.498 135.713 56.688 128.245 60.216C121.886 55.017 111.297 56.007 103.472 62.907C102.082 64.132 100.885 65.475 99.8501 66.88C97.0321 67.517 94.2931 68.531 91.7151 69.926L89.0301 71.379C79.9711 76.279 73.8461 85.263 72.5921 95.484L71.6821 102.902H149.754L147.742 93.342C147.309 91.29 146.671 89.292 145.85 87.373" fill="#E96600"/><path id="Fill 5" fill-rule="evenodd" clip-rule="evenodd" d="M149.754 102.902H71.6831L72.5921 95.4843C73.8461 85.2623 79.9711 76.2793 89.0291 71.3793L91.7151 69.9253C98.2831 66.3733 105.892 65.2433 113.208 66.7353L122.97 68.7263C131.239 70.4133 138.498 75.3163 143.151 82.3563C145.359 85.6963 146.916 89.4233 147.741 93.3413L149.754 102.902Z" fill="#E96600"/><path id="Fill 7" fill-rule="evenodd" clip-rule="evenodd" d="M84.4991 85.6553C84.4991 86.2953 83.9811 86.8133 83.3421 86.8133C82.7021 86.8133 82.1851 86.2953 82.1851 85.6553C82.1851 85.0163 82.7021 84.4983 83.3421 84.4983C83.9811 84.4983 84.4991 85.0163 84.4991 85.6553" fill="#954000"/><path id="Fill 9" fill-rule="evenodd" clip-rule="evenodd" d="M86.814 82.457C86.814 83.097 86.296 83.614 85.657 83.614C85.018 83.614 84.5 83.097 84.5 82.457C84.5 81.818 85.018 81.3 85.657 81.3C86.296 81.3 86.814 81.818 86.814 82.457" fill="#954000"/><path id="Fill 11" fill-rule="evenodd" clip-rule="evenodd" d="M87.9722 86.8135C87.9722 87.4525 87.4532 87.9705 86.8142 87.9705C86.1752 87.9705 85.6572 87.4525 85.6572 86.8135C85.6572 86.1735 86.1752 85.6555 86.8142 85.6555C87.4532 85.6555 87.9722 86.1735 87.9722 86.8135" fill="#954000"/><path id="Fill 13" fill-rule="evenodd" clip-rule="evenodd" d="M149.36 109.454H71.5258C67.4568 109.454 63.8648 106.795 62.6758 102.902H158.21C157.021 106.795 153.429 109.454 149.36 109.454" fill="#FDEEE1"/><path id="Fill 15" fill-rule="evenodd" clip-rule="evenodd" d="M160.848 54.1455C160.458 54.5355 159.967 54.7885 159.428 54.8765C156.924 55.2855 155.058 56.1335 153.721 57.4705L148.884 62.3065C147.765 61.0985 146.475 60.1115 145.046 59.3695L150.332 54.0835C151.669 52.7455 152.518 50.8775 152.926 48.3745C153.015 47.8355 153.268 47.3445 153.658 46.9555C154.72 45.8925 156.451 45.8925 157.513 46.9555C158.045 47.4875 158.32 48.2115 158.285 48.9965L158.263 49.5405L158.807 49.5175C159.585 49.4865 160.316 49.7575 160.848 50.2905C161.91 51.3525 161.91 53.0835 160.848 54.1455V54.1455ZM143.942 88.5155C139.908 92.0725 135.006 94.1525 130.14 94.3715C125.31 94.5945 121.102 92.9455 118.282 89.7455C115.46 86.5455 114.358 82.1625 115.177 77.4015C116.003 72.6005 118.681 67.9975 122.715 64.4405C127.128 60.5485 132.451 58.5725 137.347 58.5725C141.657 58.5725 145.637 60.1035 148.376 63.2105C154.229 69.8485 152.24 81.2005 143.942 88.5155V88.5155ZM147.252 93.4445L149.138 102.403H72.248L73.088 95.5445C74.321 85.5015 80.369 76.6325 89.268 71.8185L91.953 70.3655C98.406 66.8745 105.918 65.7555 113.109 67.2255L117.991 68.2215C116.047 70.9925 114.737 74.0685 114.192 77.2315C113.32 82.2955 114.506 86.9755 117.532 90.4075C120.381 93.6385 124.533 95.3895 129.295 95.3895C129.589 95.3895 129.886 95.3825 130.185 95.3705C135.278 95.1405 140.399 92.9725 144.604 89.2655C144.975 88.9385 145.318 88.5925 145.664 88.2495C146.337 89.9255 146.875 91.6575 147.252 93.4445V93.4445ZM157.507 103.403C156.199 106.75 153.005 108.955 149.36 108.955H71.526C67.88 108.955 64.687 106.75 63.378 103.403H157.507ZM103.803 63.2825C107.837 59.7255 112.739 57.6455 117.605 57.4265C117.888 57.4145 118.169 57.4085 118.448 57.4085C121.825 57.4085 124.848 58.3635 127.278 60.1175C125.456 61.0525 123.694 62.2445 122.053 63.6905C120.784 64.8105 119.66 66.0405 118.661 67.3365L113.308 66.2455C109.254 65.4175 105.1 65.3935 101.077 66.1245C101.892 65.1275 102.793 64.1725 103.803 63.2825V63.2825ZM132.461 52.9235C133.798 51.5875 134.648 49.7205 135.056 47.2155C135.144 46.6775 135.397 46.1865 135.786 45.7965C136.849 44.7345 138.578 44.7345 139.643 45.7965C140.174 46.3285 140.449 47.0535 140.415 47.8385L140.393 48.3815L140.937 48.3595C141.708 48.3175 142.446 48.5995 142.977 49.1315C143.493 49.6465 143.776 50.3315 143.776 51.0595C143.776 51.7885 143.493 52.4725 142.977 52.9875C142.587 53.3765 142.097 53.6295 141.558 53.7175C139.052 54.1275 137.185 54.9765 135.85 56.3125L134.344 57.8195C132.327 58.1225 130.291 58.7365 128.307 59.6405C127.823 59.2615 127.313 58.9165 126.783 58.6025L132.461 52.9235ZM161.555 49.5835C160.941 48.9685 160.145 48.6035 159.274 48.5295C159.2 47.6585 158.834 46.8625 158.22 46.2485C156.767 44.7945 154.404 44.7945 152.951 46.2485C152.411 46.7875 152.062 47.4655 151.94 48.2125C151.566 50.5025 150.809 52.1915 149.625 53.3755L144.071 58.9305C141.602 57.8665 138.815 57.4405 135.928 57.6485L136.557 57.0195C137.739 55.8365 139.427 55.0805 141.719 54.7045C142.467 54.5825 143.146 54.2335 143.684 53.6945C144.388 52.9915 144.776 52.0545 144.776 51.0595C144.776 50.0645 144.388 49.1275 143.684 48.4245C143.071 47.8105 142.275 47.4455 141.404 47.3705C141.328 46.4995 140.963 45.7045 140.35 45.0895C138.897 43.6365 136.533 43.6365 135.079 45.0895C134.54 45.6285 134.191 46.3085 134.07 47.0545C133.696 49.3455 132.938 51.0335 131.754 52.2165L125.869 58.1025C123.444 56.8895 120.626 56.2995 117.56 56.4275C112.467 56.6575 107.346 58.8255 103.141 62.5325C101.774 63.7375 100.583 65.0545 99.551 66.4365C96.753 67.0845 94.035 68.1035 91.477 69.4865L88.791 70.9395C79.609 75.9075 73.368 85.0595 72.096 95.4235L71.241 102.403H62L62.198 103.049C63.459 107.179 67.207 109.955 71.526 109.955H149.36C153.678 109.955 157.426 107.179 158.688 103.049L158.885 102.403H150.16L148.231 93.2385C147.813 91.2495 147.2 89.3295 146.426 87.4745C153.375 80.0175 154.786 69.6375 149.533 63.0725L154.428 58.1775C155.612 56.9945 157.3 56.2375 159.59 55.8635C160.337 55.7415 161.016 55.3915 161.555 54.8525C163.008 53.3995 163.008 51.0365 161.555 49.5835V49.5835Z" fill="black"/></g></g></g></g><g id="Food Option" transform="translate(139.936 157.676) scale(1 1)"><g id="Food Option/Tacos"><g id="Tacos"><path id="Combined Shape" fill-rule="evenodd" clip-rule="evenodd" d="M40.7324 144.288H102.562C104.298 144.288 105.706 142.881 105.706 141.144C105.706 139.408 104.298 138 102.562 138H40.7324C38.9964 138 37.5884 139.408 37.5884 141.144C37.5884 142.881 38.9964 144.288 40.7324 144.288ZM40.733 155.826H127.539C129.275 155.826 130.683 154.418 130.683 152.682C130.683 150.946 129.275 149.538 127.539 149.538H40.733C38.997 149.538 37.589 150.946 37.589 152.682C37.589 154.418 38.997 155.826 40.733 155.826Z" fill="#EEF2F8"/><g id="Tacos_2"><path id="Fill 1" fill-rule="evenodd" clip-rule="evenodd" d="M161.055 84.0664H82.813L85.421 74.7844C90.006 58.4624 104.888 47.1854 121.841 47.1854C138.543 47.1854 153.269 58.1384 158.073 74.1344L161.055 84.0664Z" fill="#FFBA00"/><path id="Fill 3" fill-rule="evenodd" clip-rule="evenodd" d="M83.4725 83.5664H160.382L157.593 74.2784C152.817 58.3724 138.449 47.6854 121.84 47.6854C105.184 47.6854 90.4065 58.8844 85.9025 74.9194L83.4725 83.5664ZM161.055 84.5664H82.8125C82.6565 84.5664 82.5085 84.4934 82.4145 84.3684C82.3195 84.2434 82.2885 84.0824 82.3315 83.9314L84.9395 74.6494C89.5645 58.1844 104.739 46.6854 121.84 46.6854C138.893 46.6854 153.646 57.6594 158.551 73.9914L161.534 83.9224C161.579 84.0744 161.55 84.2384 161.456 84.3654C161.361 84.4914 161.213 84.5664 161.055 84.5664V84.5664Z" fill="black"/><path id="Fill 5" fill-rule="evenodd" clip-rule="evenodd" d="M124.314 61.5312C124.314 67.0652 119.828 71.5512 114.294 71.5512C108.761 71.5512 104.275 67.0652 104.275 61.5312C104.275 55.9982 108.761 51.5112 114.294 51.5112C119.828 51.5112 124.314 55.9982 124.314 61.5312" fill="#FF4200"/><path id="Fill 7" fill-rule="evenodd" clip-rule="evenodd" d="M114.294 52.0117C109.045 52.0117 104.775 56.2827 104.775 61.5317C104.775 66.7807 109.045 71.0507 114.294 71.0507C119.543 71.0507 123.814 66.7807 123.814 61.5317C123.814 56.2827 119.543 52.0117 114.294 52.0117M114.294 72.0507C108.494 72.0507 103.775 67.3317 103.775 61.5317C103.775 55.7307 108.494 51.0117 114.294 51.0117C120.094 51.0117 124.814 55.7307 124.814 61.5317C124.814 67.3317 120.094 72.0507 114.294 72.0507" fill="black"/><path id="Fill 9" fill-rule="evenodd" clip-rule="evenodd" d="M137.711 56.5195C137.711 62.0525 133.225 66.5395 127.692 66.5395C122.158 66.5395 117.672 62.0525 117.672 56.5195C117.672 50.9865 122.158 46.4995 127.692 46.4995C133.225 46.4995 137.711 50.9865 137.711 56.5195" fill="#FF4200"/><g id="Group 13"><mask id="mask0e627fda1-638a-4142-ad08-14012b6f284b" mask-type="alpha" maskUnits="userSpaceOnUse" x="117" y="46" width="22" height="22" fill="#ffffff"><path id="Clip 12" fill-rule="evenodd" clip-rule="evenodd" d="M117.172 46.0004H138.211V67.039H117.172V46.0004Z" fill="#ffffff"/></mask><g mask="url(#mask0e627fda1-638a-4142-ad08-14012b6f284b)"><path id="Fill 11" fill-rule="evenodd" clip-rule="evenodd" d="M127.692 47C122.443 47 118.172 51.271 118.172 56.52C118.172 61.769 122.443 66.039 127.692 66.039C132.941 66.039 137.211 61.769 137.211 56.52C137.211 51.271 132.941 47 127.692 47M127.692 67.039C121.892 67.039 117.172 62.32 117.172 56.52C117.172 50.719 121.892 46 127.692 46C133.492 46 138.211 50.719 138.211 56.52C138.211 62.32 133.492 67.039 127.692 67.039" fill="black"/></g></g><path id="Fill 14" fill-rule="evenodd" clip-rule="evenodd" d="M156.446 78.1825C156.1 78.1825 155.769 78.2325 155.438 78.2845C155.659 77.5315 155.815 76.7505 155.815 75.9275C155.815 71.2905 152.056 67.5315 147.419 67.5315C146.355 67.5315 145.346 67.7495 144.409 68.1115C144.86 67.3875 145.131 66.5405 145.131 65.6255C145.131 63.0185 143.018 60.9045 140.41 60.9045C137.802 60.9045 135.688 63.0185 135.688 65.6255C135.688 68.2335 137.802 70.3475 140.41 70.3475C140.701 70.3475 140.982 70.3125 141.258 70.2615C139.884 71.7565 139.024 73.7355 139.024 75.9275C139.024 80.5645 142.782 84.3235 147.419 84.3235C148.331 84.3235 149.193 84.1405 150.015 83.8715C149.979 84.1455 149.931 84.4145 149.931 84.6975C149.931 88.2945 152.848 91.2115 156.446 91.2115C160.044 91.2115 162.961 88.2945 162.961 84.6975C162.961 81.0995 160.044 78.1825 156.446 78.1825" fill="#954000"/><path id="Fill 16" fill-rule="evenodd" clip-rule="evenodd" d="M150.015 83.3721C150.13 83.3721 150.243 83.4121 150.334 83.4871C150.466 83.5971 150.533 83.7671 150.511 83.9361L150.487 84.1121C150.46 84.3061 150.431 84.4981 150.431 84.6971C150.431 88.0141 153.129 90.7121 156.446 90.7121C159.763 90.7121 162.461 88.0141 162.461 84.6971C162.461 81.3811 159.763 78.6831 156.446 78.6831C156.15 78.6831 155.861 78.7241 155.515 78.7781C155.346 78.8041 155.175 78.7421 155.062 78.6141C154.949 78.4851 154.91 78.3081 154.958 78.1431C155.202 77.3141 155.315 76.6111 155.315 75.9281C155.315 71.5731 151.773 68.0311 147.419 68.0311C146.482 68.0311 145.53 68.2151 144.589 68.5781C144.389 68.6541 144.161 68.5951 144.024 68.4301C143.887 68.2651 143.871 68.0291 143.985 67.8471C144.408 67.1681 144.631 66.3991 144.631 65.6261C144.631 63.2981 142.738 61.4041 140.41 61.4041C138.082 61.4041 136.188 63.2981 136.188 65.6261C136.188 67.9541 138.082 69.8481 140.41 69.8481C140.639 69.8481 140.88 69.8231 141.168 69.7691C141.38 69.7341 141.592 69.8311 141.696 70.0191C141.8 70.2081 141.772 70.4411 141.626 70.6011C140.27 72.0751 139.524 73.9671 139.524 75.9281C139.524 80.2811 143.066 83.8231 147.419 83.8231C148.183 83.8231 148.981 83.6841 149.86 83.3961C149.911 83.3801 149.963 83.3721 150.015 83.3721M156.446 91.7121C152.578 91.7121 149.431 88.5651 149.431 84.6971C149.431 84.6511 149.432 84.6051 149.434 84.5601C148.732 84.7371 148.068 84.8231 147.419 84.8231C142.515 84.8231 138.524 80.8331 138.524 75.9281C138.524 74.1041 139.095 72.3361 140.149 70.8411C137.39 70.7051 135.188 68.4181 135.188 65.6261C135.188 62.7471 137.531 60.4041 140.41 60.4041C143.289 60.4041 145.631 62.7471 145.631 65.6261C145.631 66.1901 145.536 66.7521 145.351 67.2891C146.04 67.1181 146.733 67.0311 147.419 67.0311C152.324 67.0311 156.315 71.0221 156.315 75.9281C156.315 76.4961 156.248 77.0701 156.108 77.6951C156.218 77.6871 156.331 77.6831 156.446 77.6831C160.314 77.6831 163.461 80.8291 163.461 84.6971C163.461 88.5651 160.314 91.7121 156.446 91.7121" fill="black"/><path id="Fill 18" fill-rule="evenodd" clip-rule="evenodd" d="M93.0328 63.1094C93.0328 62.5984 90.5178 59.1054 90.8578 59.0664C95.3458 58.5574 95.5118 65.1174 100.012 65.1174C104.514 65.1174 104.514 59.0584 109.015 59.0584C113.515 59.0584 113.515 65.1174 118.015 65.1174C122.516 65.1174 122.516 59.0584 127.016 59.0584C131.521 59.0584 131.521 65.1174 136.026 65.1174C140.533 65.1174 140.533 59.0584 145.041 59.0584C149.548 59.0584 156.079 67.1224 156.079 67.1224C156.079 67.6324 152.005 68.0784 152.054 68.5834C152.256 70.6324 154.549 72.1464 154.209 72.1844C149.721 72.6944 149.554 66.1334 145.054 66.1334C140.552 66.1344 140.552 72.1934 136.051 72.1934C131.551 72.1934 131.551 66.1334 127.051 66.1334C122.551 66.1344 122.551 72.1934 118.05 72.1934C113.545 72.1934 113.545 66.1334 109.041 66.1334C104.533 66.1344 104.533 72.1934 100.026 72.1934C95.5178 72.1934 95.6558 66.6424 91.1598 66.1424L93.0328 63.1094Z" fill="#009E80"/><path id="Fill 20" fill-rule="evenodd" clip-rule="evenodd" d="M127.051 65.6334C129.553 65.6334 130.827 67.3504 131.952 68.8654C133.033 70.3194 134.053 71.6934 136.051 71.6934C138.05 71.6934 139.071 70.3204 140.151 68.8654C141.276 67.3504 142.552 65.6344 145.054 65.6334C147.513 65.6334 148.818 67.4014 149.97 68.9614C150.922 70.2504 151.769 71.3964 153.128 71.6574C152.503 70.9704 151.681 69.9014 151.557 68.6314C151.49 67.9434 152.361 67.7384 153.942 67.3664C154.37 67.2654 154.95 67.1294 155.329 67.0074C153.917 65.3624 148.679 59.5584 145.041 59.5584C143.038 59.5584 142.016 60.9324 140.934 62.3864C139.807 63.9004 138.531 65.6174 136.026 65.6174C133.522 65.6174 132.245 63.9004 131.119 62.3854C130.038 60.9314 129.017 59.5584 127.016 59.5584C125.017 59.5584 123.997 60.9314 122.917 62.3854C121.792 63.9004 120.517 65.6174 118.015 65.6174C115.514 65.6174 114.239 63.9004 113.114 62.3854C112.034 60.9314 111.014 59.5584 109.015 59.5584C107.016 59.5584 105.996 60.9314 104.915 62.3854C103.79 63.9004 102.514 65.6174 100.012 65.6174C97.5537 65.6174 96.2477 63.8494 95.0957 62.2904C94.0617 60.8894 93.1517 59.6574 91.5737 59.5464C91.7777 59.9004 92.0657 60.3644 92.3017 60.7434C93.2557 62.2744 93.5327 62.7704 93.5327 63.1094C93.5327 63.2024 93.5067 63.2934 93.4577 63.3724L91.9707 65.7814C93.8927 66.2674 94.9597 67.6874 95.9137 68.9574C97.0177 70.4254 97.9707 71.6934 100.026 71.6934C102.028 71.6934 103.05 70.3194 104.132 68.8654C105.259 67.3504 106.535 65.6344 109.041 65.6334C111.544 65.6334 112.821 67.3504 113.947 68.8654C115.028 70.3194 116.049 71.6934 118.05 71.6934C120.049 71.6934 121.069 70.3194 122.149 68.8654C123.274 67.3504 124.55 65.6344 127.051 65.6334V65.6334ZM153.726 72.7134C151.497 72.7134 150.264 71.0424 149.166 69.5554C148.056 68.0524 147.008 66.6334 145.054 66.6334C143.054 66.6334 142.034 68.0074 140.953 69.4624C139.828 70.9764 138.553 72.6934 136.051 72.6934C133.55 72.6934 132.275 70.9764 131.15 69.4624C130.07 68.0074 129.05 66.6334 127.051 66.6334C125.053 66.6334 124.032 68.0074 122.952 69.4624C121.827 70.9764 120.552 72.6934 118.05 72.6934C115.546 72.6934 114.27 70.9764 113.144 69.4624C112.063 68.0074 111.042 66.6334 109.041 66.6334C107.038 66.6334 106.016 68.0074 104.934 69.4624C103.807 70.9764 102.531 72.6934 100.026 72.6934C97.4707 72.6934 96.2727 71.0994 95.1147 69.5574C94.0717 68.1714 93.0867 66.8604 91.1047 66.6394C90.9337 66.6204 90.7847 66.5154 90.7097 66.3614C90.6357 66.2074 90.6437 66.0254 90.7347 65.8804L92.4907 63.0364C92.3267 62.6744 91.8097 61.8444 91.4527 61.2714C90.3687 59.5314 90.2077 59.2254 90.3807 58.8674C90.4557 58.7134 90.6297 58.5884 90.8007 58.5694C93.3677 58.2824 94.7167 60.0934 95.8997 61.6954C97.0097 63.1984 98.0577 64.6174 100.012 64.6174C102.012 64.6174 103.032 63.2444 104.113 61.7904C105.238 60.2754 106.513 58.5584 109.015 58.5584C111.517 58.5584 112.792 60.2754 113.917 61.7904C114.997 63.2444 116.017 64.6174 118.015 64.6174C120.014 64.6174 121.034 63.2444 122.115 61.7904C123.24 60.2754 124.515 58.5584 127.016 58.5584C129.52 58.5584 130.796 60.2754 131.922 61.7894C133.003 63.2434 134.025 64.6174 136.026 64.6174C138.028 64.6174 139.05 63.2444 140.132 61.7904C141.259 60.2754 142.535 58.5584 145.041 58.5584C149.733 58.5584 156.195 66.4704 156.468 66.8074C156.539 66.8964 156.579 67.0074 156.579 67.1224C156.579 67.7724 155.774 67.9624 154.171 68.3394C153.656 68.4614 152.918 68.6344 152.586 68.7684C152.803 69.8984 153.737 70.8594 154.254 71.3914C154.617 71.7644 154.836 71.9904 154.712 72.3344C154.648 72.5134 154.454 72.6604 154.264 72.6814C154.079 72.7024 153.899 72.7134 153.726 72.7134V72.7134Z" fill="black"/><path id="Fill 22" fill-rule="evenodd" clip-rule="evenodd" d="M81.6182 60.5918C81.6182 60.0808 79.1022 56.5868 79.4422 56.5478C83.9312 56.0378 84.0972 62.6018 88.5972 62.6018C93.0992 62.6018 93.0992 56.5388 97.6002 56.5388C102.1 56.5388 102.1 62.6018 106.6 62.6018C111.1 62.6018 111.1 56.5388 115.601 56.5388C120.106 56.5388 120.106 62.6018 124.61 62.6018C129.118 62.6018 129.118 56.5388 133.625 56.5388C138.133 56.5388 144.663 64.6068 144.663 64.6068C144.663 65.1168 140.59 65.5638 140.639 66.0688C140.84 68.1198 143.133 69.6338 142.793 69.6728C138.305 70.1818 138.139 63.6188 133.639 63.6188C129.137 63.6188 129.137 69.6808 124.636 69.6808C120.136 69.6808 120.136 63.6188 115.636 63.6188C111.135 63.6188 111.135 69.6808 106.635 69.6808C102.13 69.6808 102.13 63.6188 97.6252 63.6188C93.1182 63.6188 93.1182 69.6808 88.6102 69.6808C84.1032 69.6808 84.2402 64.1278 79.7452 63.6268L81.6182 60.5918Z" fill="#009E80"/><path id="Fill 24" fill-rule="evenodd" clip-rule="evenodd" d="M115.636 63.1188C118.138 63.1188 119.412 64.8368 120.537 66.3518C121.617 67.8068 122.637 69.1808 124.636 69.1808C126.635 69.1808 127.655 67.8068 128.736 66.3518C129.861 64.8368 131.136 63.1188 133.639 63.1188C136.098 63.1188 137.403 64.8878 138.555 66.4478C139.507 67.7378 140.354 68.8838 141.713 69.1458C141.088 68.4578 140.266 67.3888 140.142 66.1168C140.074 65.4288 140.945 65.2238 142.527 64.8508C142.955 64.7498 143.535 64.6128 143.914 64.4918C142.503 62.8468 137.264 57.0388 133.625 57.0388C131.623 57.0388 130.601 58.4128 129.519 59.8678C128.392 61.3838 127.116 63.1018 124.61 63.1018C122.107 63.1018 120.83 61.3838 119.704 59.8678C118.623 58.4128 117.602 57.0388 115.601 57.0388C113.602 57.0388 112.582 58.4128 111.502 59.8678C110.377 61.3838 109.102 63.1018 106.6 63.1018C104.098 63.1018 102.824 61.3838 101.699 59.8678C100.618 58.4128 99.5982 57.0388 97.6002 57.0388C95.6012 57.0388 94.5812 58.4128 93.5002 59.8678C92.3752 61.3838 91.1002 63.1018 88.5972 63.1018C86.1392 63.1018 84.8332 61.3328 83.6812 59.7728C82.6462 58.3708 81.7362 57.1388 80.1582 57.0288C80.3622 57.3818 80.6512 57.8458 80.8872 58.2248C81.8412 59.7568 82.1182 60.2528 82.1182 60.5918C82.1182 60.6848 82.0922 60.7758 82.0432 60.8548L80.5562 63.2658C82.4782 63.7528 83.5452 65.1738 84.4992 66.4438C85.6022 67.9118 86.5552 69.1808 88.6102 69.1808C90.6132 69.1808 91.6352 67.8068 92.7172 66.3518C93.8442 64.8358 95.1202 63.1188 97.6252 63.1188C100.129 63.1188 101.406 64.8368 102.532 66.3518C103.613 67.8068 104.634 69.1808 106.635 69.1808C108.633 69.1808 109.654 67.8068 110.734 66.3518C111.859 64.8368 113.134 63.1188 115.636 63.1188V63.1188ZM142.312 70.2008C140.082 70.2008 138.848 68.5288 137.751 67.0418C136.641 65.5388 135.593 64.1188 133.639 64.1188C131.639 64.1188 130.619 65.4928 129.538 66.9478C128.413 68.4628 127.138 70.1808 124.636 70.1808C122.134 70.1808 120.859 68.4628 119.734 66.9478C118.654 65.4928 117.634 64.1188 115.636 64.1188C113.637 64.1188 112.617 65.4928 111.536 66.9478C110.411 68.4628 109.136 70.1808 106.635 70.1808C104.131 70.1808 102.855 68.4638 101.729 66.9478C100.648 65.4928 99.6262 64.1188 97.6252 64.1188C95.6232 64.1188 94.6012 65.4928 93.5192 66.9478C92.3922 68.4628 91.1162 70.1808 88.6102 70.1808C86.0562 70.1808 84.8582 68.5858 83.7002 67.0438C82.6572 65.6558 81.6722 64.3448 79.6902 64.1238C79.5192 64.1048 79.3702 63.9998 79.2952 63.8458C79.2212 63.6928 79.2292 63.5098 79.3202 63.3638L81.0762 60.5188C80.9122 60.1568 80.3952 59.3268 80.0382 58.7528C78.9542 57.0128 78.7932 56.7068 78.9662 56.3488C79.0402 56.1948 79.2152 56.0708 79.3852 56.0508C81.9632 55.7648 83.3022 57.5748 84.4852 59.1788C85.5952 60.6818 86.6432 62.1018 88.5972 62.1018C90.5972 62.1018 91.6172 60.7278 92.6982 59.2728C93.8232 57.7568 95.0982 56.0388 97.6002 56.0388C100.101 56.0388 101.376 57.7568 102.501 59.2728C103.581 60.7278 104.601 62.1018 106.6 62.1018C108.598 62.1018 109.619 60.7278 110.699 59.2728C111.824 57.7568 113.099 56.0388 115.601 56.0388C118.105 56.0388 119.381 57.7568 120.507 59.2728C121.588 60.7278 122.609 62.1018 124.61 62.1018C126.613 62.1018 127.635 60.7278 128.717 59.2718C129.844 57.7568 131.12 56.0388 133.625 56.0388C138.318 56.0388 144.779 63.9548 145.052 64.2918C145.124 64.3808 145.163 64.4918 145.163 64.6068C145.163 65.2568 144.359 65.4458 142.756 65.8238C142.241 65.9458 141.503 66.1188 141.171 66.2538C141.388 67.3858 142.321 68.3468 142.838 68.8788C143.201 69.2518 143.42 69.4778 143.297 69.8218C143.233 70.0008 143.04 70.1478 142.85 70.1698C142.665 70.1908 142.486 70.2008 142.312 70.2008V70.2008Z" fill="black"/><path id="Fill 26" fill-rule="evenodd" clip-rule="evenodd" d="M155.815 92.8604H77.5728L80.1808 83.5784C84.7658 67.2574 99.6478 55.9794 116.601 55.9794C133.303 55.9794 148.029 66.9324 152.833 82.9294L155.815 92.8604Z" fill="#FFBA00"/><path id="Fill 28" fill-rule="evenodd" clip-rule="evenodd" d="M78.2327 92.3604H155.143L152.354 83.0734C147.577 67.1674 133.209 56.4794 116.601 56.4794C99.9447 56.4794 85.1667 67.6784 80.6617 83.7134L78.2327 92.3604ZM155.815 93.3604H77.5727C77.4167 93.3604 77.2687 93.2874 77.1747 93.1624C77.0797 93.0384 77.0487 92.8764 77.0917 92.7254L79.6987 83.4434C84.3247 66.9784 99.4997 55.4794 116.601 55.4794C133.654 55.4794 148.407 66.4534 153.312 82.7864L156.294 92.7164C156.339 92.8684 156.311 93.0324 156.216 93.1594C156.122 93.2854 155.973 93.3604 155.815 93.3604V93.3604Z" fill="black"/><path id="Fill 30" fill-rule="evenodd" clip-rule="evenodd" d="M135.982 103.313H57.7402L60.3482 94.0315C64.9332 77.7105 79.8152 66.4325 96.7682 66.4325C113.47 66.4325 128.196 77.3855 133 93.3825L135.982 103.313Z" fill="#FFBA00"/><path id="Fill 32" fill-rule="evenodd" clip-rule="evenodd" d="M58.4002 102.813H135.31L132.521 93.5265C127.744 77.6205 113.376 66.9325 96.7682 66.9325C80.1122 66.9325 65.3342 78.1315 60.8292 94.1665L58.4002 102.813ZM135.982 103.813H57.7402C57.5842 103.813 57.4362 103.74 57.3422 103.615C57.2472 103.491 57.2162 103.329 57.2592 103.178L59.8662 93.8965C64.4922 77.4315 79.6672 65.9325 96.7682 65.9325C113.821 65.9325 128.574 76.9065 133.479 93.2395L136.461 103.169C136.506 103.321 136.478 103.485 136.383 103.612C136.289 103.738 136.14 103.813 135.982 103.813V103.813Z" fill="black"/><path id="Fill 34" fill-rule="evenodd" clip-rule="evenodd" d="M99.2421 80.7783C99.2421 86.3123 94.7561 90.7983 89.2221 90.7983C83.6891 90.7983 79.2031 86.3123 79.2031 80.7783C79.2031 75.2453 83.6891 70.7593 89.2221 70.7593C94.7561 70.7593 99.2421 75.2453 99.2421 80.7783" fill="#FF4200"/><path id="Fill 36" fill-rule="evenodd" clip-rule="evenodd" d="M89.2221 71.2598C83.9731 71.2598 79.7021 75.5298 79.7021 80.7788C79.7021 86.0278 83.9731 90.2978 89.2221 90.2978C94.4711 90.2978 98.7421 86.0278 98.7421 80.7788C98.7421 75.5298 94.4711 71.2598 89.2221 71.2598M89.2221 91.2978C83.4221 91.2978 78.7021 86.5788 78.7021 80.7788C78.7021 74.9788 83.4221 70.2598 89.2221 70.2598C95.0221 70.2598 99.7421 74.9788 99.7421 80.7788C99.7421 86.5788 95.0221 91.2978 89.2221 91.2978" fill="black"/><path id="Fill 38" fill-rule="evenodd" clip-rule="evenodd" d="M112.639 75.7666C112.639 81.3006 108.153 85.7866 102.619 85.7866C97.0861 85.7866 92.6001 81.3006 92.6001 75.7666C92.6001 70.2336 97.0861 65.7476 102.619 65.7476C108.153 65.7476 112.639 70.2336 112.639 75.7666" fill="#FF4200"/><path id="Fill 40" fill-rule="evenodd" clip-rule="evenodd" d="M102.62 66.2479C97.3706 66.2479 93.1006 70.5179 93.1006 75.7669C93.1006 81.0159 97.3706 85.2859 102.62 85.2859C107.869 85.2859 112.14 81.0159 112.14 75.7669C112.14 70.5179 107.869 66.2479 102.62 66.2479M102.62 86.2859C96.8196 86.2859 92.1006 81.5669 92.1006 75.7669C92.1006 69.9669 96.8196 65.2479 102.62 65.2479C108.42 65.2479 113.14 69.9669 113.14 75.7669C113.14 81.5669 108.42 86.2859 102.62 86.2859" fill="black"/><path id="Fill 42" fill-rule="evenodd" clip-rule="evenodd" d="M131.373 97.4307C131.027 97.4307 130.696 97.4807 130.365 97.5317C130.586 96.7797 130.742 95.9977 130.742 95.1747C130.742 90.5377 126.983 86.7787 122.346 86.7787C121.282 86.7787 120.273 86.9967 119.336 87.3587C119.787 86.6347 120.058 85.7877 120.058 84.8727C120.058 82.2657 117.945 80.1527 115.337 80.1527C112.73 80.1527 110.616 82.2657 110.616 84.8727C110.616 87.4807 112.73 89.5947 115.337 89.5947C115.628 89.5947 115.91 89.5597 116.185 89.5087C114.81 91.0037 113.951 92.9827 113.951 95.1747C113.951 99.8117 117.709 103.571 122.346 103.571C123.258 103.571 124.12 103.389 124.942 103.119C124.907 103.393 124.858 103.662 124.858 103.945C124.858 107.543 127.775 110.459 131.373 110.459C134.971 110.459 137.888 107.543 137.888 103.945C137.888 100.347 134.971 97.4307 131.373 97.4307" fill="#954000"/><path id="Fill 44" fill-rule="evenodd" clip-rule="evenodd" d="M124.942 102.619C125.057 102.619 125.17 102.658 125.261 102.733C125.393 102.843 125.46 103.013 125.438 103.182L125.413 103.364C125.387 103.556 125.359 103.746 125.359 103.944C125.359 107.261 128.057 109.959 131.373 109.959C134.69 109.959 137.388 107.261 137.388 103.944C137.388 100.628 134.69 97.9311 131.373 97.9311C131.058 97.9311 130.745 97.9781 130.441 98.0251C130.275 98.0521 130.102 97.9891 129.989 97.8601C129.877 97.7311 129.838 97.5551 129.885 97.3901C130.129 96.5611 130.242 95.8571 130.242 95.1751C130.242 90.8201 126.7 87.2781 122.346 87.2781C121.409 87.2781 120.457 87.4621 119.516 87.8251C119.317 87.9021 119.088 87.8431 118.951 87.6771C118.814 87.5121 118.798 87.2761 118.912 87.0951C119.335 86.4151 119.558 85.6461 119.558 84.8731C119.558 82.5461 117.665 80.6521 115.337 80.6521C113.009 80.6521 111.116 82.5461 111.116 84.8731C111.116 87.2011 113.009 89.0951 115.337 89.0951C115.566 89.0951 115.807 89.0701 116.095 89.0161C116.305 88.9811 116.519 89.0781 116.623 89.2661C116.727 89.4551 116.699 89.6881 116.554 89.8481C115.197 91.3221 114.451 93.2141 114.451 95.1751C114.451 99.5281 117.993 103.07 122.346 103.07C123.113 103.07 123.911 102.931 124.786 102.643C124.837 102.627 124.89 102.619 124.942 102.619M131.373 110.959C127.505 110.959 124.359 107.812 124.359 103.944C124.359 103.898 124.359 103.853 124.361 103.807C123.661 103.984 122.997 104.07 122.346 104.07C117.442 104.07 113.451 100.08 113.451 95.1751C113.451 93.3511 114.022 91.5831 115.076 90.0881C112.318 89.9521 110.116 87.6651 110.116 84.8731C110.116 81.9941 112.458 79.6521 115.337 79.6521C118.216 79.6521 120.558 81.9941 120.558 84.8731C120.558 85.4371 120.463 85.9991 120.278 86.5361C120.967 86.3651 121.659 86.2781 122.346 86.2781C127.252 86.2781 131.242 90.2691 131.242 95.1751C131.242 95.7421 131.175 96.3171 131.035 96.9431C131.145 96.9351 131.258 96.9311 131.373 96.9311C135.241 96.9311 138.388 100.077 138.388 103.944C138.388 107.812 135.241 110.959 131.373 110.959" fill="black"/><path id="Fill 46" fill-rule="evenodd" clip-rule="evenodd" d="M67.9605 82.3564C67.9605 81.8454 65.4445 78.3524 65.7845 78.3144C70.2735 77.8044 70.4385 84.3654 74.9395 84.3654C79.4405 84.3654 79.4405 78.3054 83.9425 78.3054C88.4425 78.3054 88.4425 84.3654 92.9425 84.3654C97.4425 84.3654 97.4425 78.3054 101.944 78.3054C106.449 78.3054 106.449 84.3654 110.953 84.3654C115.461 84.3654 115.461 78.3054 119.968 78.3054C124.476 78.3054 131.006 86.3694 131.006 86.3694C131.006 86.8794 126.933 87.3254 126.982 87.8304C127.183 89.8794 129.476 91.3934 129.136 91.4324C124.648 91.9414 124.482 85.3814 119.982 85.3814C115.48 85.3814 115.48 91.4404 110.979 91.4404C106.479 91.4404 106.479 85.3814 101.979 85.3814C97.4775 85.3814 97.4775 91.4404 92.9775 91.4404C88.4725 91.4404 88.4725 85.3814 83.9675 85.3814C79.4605 85.3814 79.4605 91.4404 74.9525 91.4404C70.4455 91.4404 70.5825 85.8894 66.0875 85.3894L67.9605 82.3564Z" fill="#009E80"/><path id="Fill 48" fill-rule="evenodd" clip-rule="evenodd" d="M101.978 84.8814C104.479 84.8814 105.754 86.5984 106.879 88.1134C107.959 89.5674 108.979 90.9404 110.978 90.9404C112.977 90.9404 113.997 89.5674 115.078 88.1134C116.203 86.5984 117.479 84.8814 119.981 84.8814C122.44 84.8814 123.745 86.6494 124.897 88.2094C125.849 89.4984 126.695 90.6444 128.055 90.9054C127.43 90.2184 126.608 89.1494 126.484 87.8784C126.416 87.1904 127.287 86.9854 128.869 86.6134C129.297 86.5124 129.877 86.3764 130.255 86.2544C128.844 84.6094 123.606 78.8054 119.967 78.8054C117.965 78.8054 116.943 80.1794 115.861 81.6334C114.734 83.1484 113.458 84.8654 110.952 84.8654C108.449 84.8654 107.172 83.1484 106.046 81.6334C104.965 80.1794 103.944 78.8054 101.943 78.8054C99.9445 78.8054 98.9245 80.1794 97.8445 81.6334C96.7195 83.1484 95.4435 84.8654 92.9425 84.8654C90.4405 84.8654 89.1665 83.1484 88.0415 81.6334C86.9605 80.1794 85.9405 78.8054 83.9425 78.8054C81.9425 78.8054 80.9225 80.1794 79.8425 81.6334C78.7175 83.1484 77.4415 84.8654 74.9395 84.8654C72.4805 84.8654 71.1745 83.0974 70.0235 81.5374C68.9885 80.1364 68.0795 78.9054 66.5015 78.7944C66.7055 79.1484 66.9935 79.6104 67.2285 79.9884C68.1835 81.5214 68.4605 82.0174 68.4605 82.3564C68.4605 82.4494 68.4345 82.5404 68.3855 82.6194L66.8985 85.0284C68.8205 85.5144 69.8875 86.9344 70.8415 88.2044C71.9445 89.6724 72.8975 90.9404 74.9525 90.9404C76.9555 90.9404 77.9775 89.5664 79.0595 88.1124C80.1865 86.5984 81.4625 84.8814 83.9675 84.8814C86.4715 84.8814 87.7485 86.5984 88.8745 88.1134C89.9555 89.5674 90.9765 90.9404 92.9775 90.9404C94.9765 90.9404 95.9965 89.5674 97.0765 88.1134C98.2015 86.5984 99.4765 84.8814 101.978 84.8814V84.8814ZM128.654 91.9604C126.424 91.9604 125.19 90.2904 124.093 88.8034C122.983 87.3004 121.935 85.8814 119.981 85.8814C117.981 85.8814 116.961 87.2544 115.88 88.7094C114.755 90.2234 113.48 91.9404 110.978 91.9404C108.476 91.9404 107.201 90.2234 106.076 88.7094C104.996 87.2544 103.976 85.8814 101.978 85.8814C99.9795 85.8814 98.9595 87.2544 97.8785 88.7094C96.7535 90.2234 95.4785 91.9404 92.9775 91.9404C90.4735 91.9404 89.1975 90.2234 88.0715 88.7104C86.9905 87.2554 85.9685 85.8814 83.9675 85.8814C81.9655 85.8814 80.9435 87.2544 79.8615 88.7094C78.7345 90.2234 77.4585 91.9404 74.9525 91.9404C72.3985 91.9404 71.2005 90.3464 70.0425 88.8044C68.9995 87.4184 68.0145 86.1074 66.0325 85.8864C65.8615 85.8674 65.7125 85.7624 65.6375 85.6084C65.5635 85.4544 65.5715 85.2724 65.6625 85.1274L67.4185 82.2834C67.2545 81.9214 66.7375 81.0904 66.3795 80.5164C65.2965 78.7774 65.1355 78.4724 65.3085 78.1144C65.3835 77.9604 65.5585 77.8364 65.7295 77.8174C68.2975 77.5344 69.6445 79.3404 70.8275 80.9434C71.9375 82.4464 72.9855 83.8654 74.9395 83.8654C76.9395 83.8654 77.9595 82.4914 79.0395 81.0374C80.1645 79.5224 81.4395 77.8054 83.9425 77.8054C86.4435 77.8054 87.7185 79.5224 88.8435 81.0374C89.9235 82.4914 90.9435 83.8654 92.9425 83.8654C94.9405 83.8654 95.9615 82.4914 97.0415 81.0374C98.1665 79.5224 99.4415 77.8054 101.943 77.8054C104.447 77.8054 105.723 79.5224 106.849 81.0374C107.93 82.4914 108.951 83.8654 110.952 83.8654C112.955 83.8654 113.977 82.4914 115.059 81.0374C116.186 79.5224 117.462 77.8054 119.967 77.8054C124.66 77.8054 131.121 85.7174 131.394 86.0544C131.466 86.1434 131.505 86.2544 131.505 86.3694C131.505 87.0194 130.701 87.2094 129.098 87.5864C128.583 87.7084 127.845 87.8814 127.513 88.0154C127.73 89.1454 128.663 90.1064 129.18 90.6384C129.543 91.0114 129.762 91.2374 129.639 91.5824C129.575 91.7604 129.382 91.9074 129.192 91.9294C129.007 91.9504 128.827 91.9604 128.654 91.9604V91.9604Z" fill="black"/><path id="Fill 50" fill-rule="evenodd" clip-rule="evenodd" d="M56.5455 79.8389C56.5455 79.3279 54.0305 75.8339 54.3705 75.7949C58.8585 75.2859 59.0245 81.8489 63.5245 81.8489C68.0265 81.8489 68.0265 75.7859 72.5275 75.7859C77.0275 75.7859 77.0275 81.8489 81.5275 81.8489C86.0285 81.8489 86.0285 75.7859 90.5285 75.7859C95.0335 75.7859 95.0335 81.8489 99.5385 81.8489C104.045 81.8489 104.045 75.7859 108.553 75.7859C113.06 75.7859 119.591 83.8539 119.591 83.8539C119.591 84.3649 115.517 84.8109 115.566 85.3169C115.768 87.3669 118.061 88.8809 117.721 88.9199C113.233 89.4289 113.067 82.8659 108.566 82.8659C104.065 82.8659 104.065 88.9289 99.5635 88.9289C95.0635 88.9289 95.0635 82.8659 90.5635 82.8659C86.0635 82.8659 86.0635 88.9289 81.5625 88.9289C77.0575 88.9289 77.0575 82.8659 72.5535 82.8659C68.0455 82.8659 68.0455 88.9289 63.5385 88.9289C59.0305 88.9289 59.1685 83.3749 54.6725 82.8739L56.5455 79.8389Z" fill="#009E80"/><path id="Fill 52" fill-rule="evenodd" clip-rule="evenodd" d="M90.5634 82.3659C93.0654 82.3659 94.3394 84.0839 95.4644 85.5999C96.5454 87.0549 97.5654 88.4289 99.5634 88.4289C101.563 88.4289 102.583 87.0549 103.663 85.5999C104.788 84.0839 106.064 82.3659 108.566 82.3659C111.025 82.3659 112.331 84.1349 113.483 85.6949C114.435 86.9849 115.281 88.1309 116.64 88.3929C116.016 87.7049 115.193 86.6359 115.069 85.3649C115.002 84.6769 115.873 84.4709 117.454 84.0989C117.882 83.9969 118.462 83.8599 118.842 83.7389C117.431 82.0949 112.191 76.2859 108.553 76.2859C106.55 76.2859 105.528 77.6599 104.446 79.1159C103.319 80.6309 102.043 82.3489 99.5384 82.3489C97.0344 82.3489 95.7574 80.6309 94.6314 79.1149C93.5504 77.6599 92.5294 76.2859 90.5284 76.2859C88.5304 76.2859 87.5094 77.6599 86.4294 79.1149C85.3044 80.6309 84.0294 82.3489 81.5274 82.3489C79.0264 82.3489 77.7514 80.6309 76.6264 79.1149C75.5464 77.6599 74.5264 76.2859 72.5274 76.2859C70.5284 76.2859 69.5084 77.6599 68.4274 79.1149C67.3024 80.6309 66.0274 82.3489 63.5244 82.3489C61.0654 82.3489 59.7604 80.5799 58.6084 79.0199C57.5744 77.6189 56.6644 76.3869 55.0864 76.2759C55.2904 76.6289 55.5784 77.0929 55.8144 77.4719C56.7684 79.0039 57.0454 79.4999 57.0454 79.8389C57.0454 79.9319 57.0194 80.0229 56.9704 80.1019L55.4834 82.5129C57.4054 82.9999 58.4724 84.4209 59.4264 85.6909C60.5304 87.1599 61.4824 88.4289 63.5384 88.4289C65.5404 88.4289 66.5624 87.0549 67.6444 85.5999C68.7714 84.0839 70.0474 82.3659 72.5534 82.3659C75.0564 82.3659 76.3334 84.0839 77.4594 85.5999C78.5404 87.0549 79.5614 88.4289 81.5624 88.4289C83.5614 88.4289 84.5814 87.0549 85.6614 85.5999C86.7864 84.0839 88.0614 82.3659 90.5634 82.3659V82.3659ZM117.24 89.4479C115.01 89.4479 113.776 87.7759 112.678 86.2889C111.568 84.7859 110.52 83.3659 108.566 83.3659C106.566 83.3659 105.546 84.7399 104.466 86.1949C103.341 87.7109 102.066 89.4289 99.5634 89.4289C97.0624 89.4289 95.7874 87.7109 94.6624 86.1949C93.5824 84.7399 92.5624 83.3659 90.5634 83.3659C88.5654 83.3659 87.5444 84.7399 86.4644 86.1949C85.3394 87.7109 84.0644 89.4289 81.5624 89.4289C79.0584 89.4289 77.7824 87.7109 76.6564 86.1949C75.5754 84.7399 74.5544 83.3659 72.5534 83.3659C70.5504 83.3659 69.5284 84.7399 68.4464 86.1959C67.3194 87.7109 66.0434 89.4289 63.5384 89.4289C60.9834 89.4289 59.7854 87.8339 58.6274 86.2909C57.5844 84.9029 56.5994 83.5919 54.6174 83.3709C54.4474 83.3519 54.2984 83.2469 54.2234 83.0929C54.1484 82.9399 54.1574 82.7569 54.2474 82.6109L56.0034 79.7659C55.8394 79.4049 55.3224 78.5739 54.9654 77.9999C53.8814 76.2599 53.7204 75.9539 53.8934 75.5959C53.9684 75.4419 54.1424 75.3179 54.3134 75.2979C56.8824 75.0159 58.2294 76.8219 59.4124 78.4259C60.5224 79.9289 61.5704 81.3489 63.5244 81.3489C65.5244 81.3489 66.5444 79.9749 67.6254 78.5199C68.7504 77.0039 70.0254 75.2859 72.5274 75.2859C75.0294 75.2859 76.3044 77.0039 77.4294 78.5199C78.5094 79.9749 79.5294 81.3489 81.5274 81.3489C83.5264 81.3489 84.5464 79.9749 85.6274 78.5199C86.7524 77.0039 88.0264 75.2859 90.5284 75.2859C93.0324 75.2859 94.3084 77.0039 95.4344 78.5199C96.5154 79.9749 97.5374 81.3489 99.5384 81.3489C101.54 81.3489 102.562 79.9749 103.644 78.5199C104.771 77.0039 106.047 75.2859 108.553 75.2859C113.245 75.2859 119.707 83.2019 119.98 83.5389C120.051 83.6279 120.091 83.7389 120.091 83.8539C120.091 84.5049 119.286 84.6939 117.683 85.0719C117.168 85.1929 116.43 85.3669 116.098 85.5019C116.315 86.6319 117.248 87.5939 117.765 88.1259C118.128 88.4989 118.347 88.7249 118.225 89.0689C118.16 89.2479 117.967 89.3949 117.778 89.4169C117.592 89.4379 117.413 89.4479 117.24 89.4479V89.4479Z" fill="black"/><path id="Fill 54" fill-rule="evenodd" clip-rule="evenodd" d="M130.742 112.108H52.5005L55.1085 102.825C59.6935 86.5043 74.5755 75.2263 91.5285 75.2263V75.2263C108.23 75.2263 122.956 86.1793 127.76 102.176L130.742 112.108Z" fill="#FFBA00"/><g id="Group 58"><mask id="mask1e627fda1-638a-4142-ad08-14012b6f284b" mask-type="alpha" maskUnits="userSpaceOnUse" x="52" y="74" width="80" height="39" fill="#ffffff"><path id="Clip 57" fill-rule="evenodd" clip-rule="evenodd" d="M52 74.7263H131.243V112.608H52V74.7263Z" fill="#ffffff"/></mask><g mask="url(#mask1e627fda1-638a-4142-ad08-14012b6f284b)"><path id="Fill 56" fill-rule="evenodd" clip-rule="evenodd" d="M53.16 111.608H130.07L127.281 102.32C122.505 86.4143 108.137 75.7263 91.529 75.7263C74.873 75.7263 60.095 86.9253 55.59 102.96L53.16 111.608ZM130.743 112.608H52.5C52.344 112.608 52.196 112.535 52.102 112.41C52.007 112.286 51.976 112.124 52.019 111.973L54.627 102.69C59.252 86.2253 74.427 74.7263 91.528 74.7263C108.581 74.7263 123.334 85.7003 128.239 102.033L131.222 111.964C131.267 112.116 131.238 112.28 131.144 112.407C131.049 112.533 130.901 112.608 130.743 112.608V112.608Z" fill="black"/></g></g></g><path id="Combined Shape_2" fill-rule="evenodd" clip-rule="evenodd" d="M30.7525 30.4499C30.7525 27.3299 33.2905 24.7919 36.4105 24.7919H182.862C185.982 24.7919 188.52 27.3299 188.52 30.4499V125.969H30.7525V30.4499ZM29.7525 126.479V159.085C29.7525 162.756 32.7395 165.743 36.4105 165.743H182.862C186.533 165.743 189.52 162.756 189.52 159.085V30.4499C189.52 26.7789 186.533 23.7919 182.862 23.7919H36.4105C32.7395 23.7919 29.7525 26.7789 29.7525 30.4499V126.459C29.7525 126.462 29.7524 126.465 29.7524 126.469C29.7524 126.472 29.7525 126.475 29.7525 126.479ZM30.7525 126.969H188.52V159.085C188.52 162.205 185.982 164.743 182.862 164.743H36.4105C33.2905 164.743 30.7525 162.205 30.7525 159.085V126.969Z" fill="black"/></g></g></g></g><g id="Master/Character/Torso" transform="translate(134 100) scale(1 1)"><g id="Master/Character/Torso"><g id="Head 2" transform="translate(189.79 120) scale(1 1)"><g id="Head 2/Calm"><path id="Path 2" fill-rule="evenodd" clip-rule="evenodd" d="M16 65.8324C16 65.8324 21.5224 62.2244 20.5403 47.3243C20.5403 47.3243 29.274 51.4116 38.8022 44.5006L41 65.6603C41 65.6603 34.3939 73.164 27.4671 72.4363C20.5403 71.7086 16 65.8324 16 65.8324Z" fill="#fbefe3"/><path id="Path 2 Copy" fill-rule="evenodd" clip-rule="evenodd" d="M20.7523 46.8715C26.3989 49.514 32.2957 48.6023 38.5087 44.0959C38.8203 43.8698 39.2598 44.066 39.2996 44.449L41.4974 65.6086C41.5118 65.7474 41.4675 65.886 41.3753 65.9907C36.8731 71.1047 32.2136 73.4377 27.4149 72.9336C22.6587 72.4339 18.7133 70.1617 15.6044 66.1381C15.426 65.9072 15.4824 65.5733 15.7266 65.4138C19.2108 63.1374 20.6854 57.1264 20.0414 47.3572C20.0164 46.9776 20.4077 46.7102 20.7523 46.8715ZM40.479 65.492L38.392 45.4L37.9797 45.6795C32.2505 49.4704 26.6918 50.3258 21.3497 48.2176L21.088 48.111L21.1011 48.3404C21.5662 57.3108 20.1823 63.1431 16.8667 65.8193L16.719 65.934L16.9567 66.2216C19.711 69.4853 23.0863 71.3695 27.1017 71.89L27.5194 71.939C31.9564 72.4051 36.3189 70.2208 40.6248 65.3299L40.479 65.492Z" fill="black"/><g id="Head"><path id="Combined Shape" fill-rule="evenodd" clip-rule="evenodd" d="M27.485 48.7008C17.392 48.7008 9.20996 40.0248 9.20996 29.3208C9.20996 18.6168 17.392 9.93982 27.485 9.93982C37.578 9.93982 45.76 18.6168 45.76 29.3208C45.76 40.0248 37.578 48.7008 27.485 48.7008Z" fill="#fbefe3"/><path id="Fill 18" fill-rule="evenodd" clip-rule="evenodd" d="M27.485 10.4399C17.684 10.4399 9.70996 18.9099 9.70996 29.3209C9.70996 39.7319 17.684 48.2009 27.485 48.2009C37.286 48.2009 45.26 39.7319 45.26 29.3209C45.26 18.9099 37.286 10.4399 27.485 10.4399M27.485 49.2009C17.132 49.2009 8.70996 40.2829 8.70996 29.3209C8.70996 18.3579 17.132 9.43992 27.485 9.43992C37.838 9.43992 46.26 18.3579 46.26 29.3209C46.26 40.2829 37.838 49.2009 27.485 49.2009" fill="black"/><g id="Group 3"><path id="Fill 1" fill-rule="evenodd" clip-rule="evenodd" d="M26.9498 36.1839C26.6718 36.1379 26.4078 36.3299 26.3638 36.6089C26.1288 38.0679 24.6198 38.0119 24.4478 37.9969C24.1648 37.9609 23.9228 38.1879 23.9008 38.4689C23.8798 38.7509 24.0908 38.9969 24.3718 39.0199C24.4358 39.0239 24.5038 39.0269 24.5748 39.0269C25.5188 39.0269 27.0858 38.5709 27.3738 36.7709C27.4188 36.4929 27.2298 36.2289 26.9498 36.1839M17.2088 21.9999C17.1188 21.9999 15.0328 21.9689 13.1788 23.5619C12.9638 23.7459 12.9398 24.0689 13.1228 24.2839C13.2248 24.4019 13.3678 24.4619 13.5118 24.4619C13.6298 24.4619 13.7488 24.4209 13.8458 24.3379C15.3948 23.0079 17.1718 23.0269 17.1858 23.0239C17.4618 23.0049 17.7008 22.8049 17.7068 22.5239C17.7128 22.2409 17.4908 22.0069 17.2088 21.9999M29.3398 23.5619C27.4858 21.9689 25.3968 21.9969 25.3098 21.9999C25.0278 22.0069 24.8038 22.2429 24.8098 22.5249C24.8178 22.8089 25.0498 23.0009 25.3348 23.0239C25.3448 23.0199 27.1108 22.9959 28.6728 24.3379C28.7688 24.4209 28.8878 24.4619 29.0058 24.4619C29.1498 24.4619 29.2928 24.4019 29.3948 24.2839C29.5778 24.0689 29.5538 23.7459 29.3398 23.5619M16.1418 26.7769C15.5588 26.7769 15.0868 27.5269 15.0868 28.4539C15.0868 29.3789 15.5588 30.1299 16.1418 30.1299C16.7238 30.1299 17.1958 29.3789 17.1958 28.4539C17.1958 27.5269 16.7238 26.7769 16.1418 26.7769M26.3768 26.7769C25.7938 26.7769 25.3228 27.5269 25.3228 28.4539C25.3228 29.3789 25.7938 30.1299 26.3768 30.1299C26.9588 30.1299 27.4308 29.3789 27.4308 28.4539C27.4308 27.5269 26.9588 26.7769 26.3768 26.7769M22.2328 33.9989L19.6788 33.6889L20.4798 30.6429C20.5518 30.3699 20.3888 30.0899 20.1158 30.0179C19.8438 29.9419 19.5618 30.1089 19.4898 30.3829L18.5388 33.9959C18.5008 34.1389 18.5278 34.2909 18.6108 34.4139C18.6938 34.5369 18.8248 34.6169 18.9718 34.6339L22.1108 35.0149C22.1308 35.0179 22.1518 35.0189 22.1718 35.0189C22.4278 35.0189 22.6478 34.8289 22.6798 34.5699C22.7138 34.2879 22.5138 34.0339 22.2328 33.9989" fill="black"/></g></g></g></g><g id="Hair 2" transform="translate(107.79 57) scale(1 1)"><g id="Hair 2/Short Elegant"><g id="Group 6"><path id="Hair" fill-rule="evenodd" clip-rule="evenodd" d="M132.294 99.2495C129.998 103.508 126.395 106.523 121.668 106.523L121.273 97.7215C121.389 97.7315 121.501 97.7565 121.62 97.7565C123.594 97.7565 125.194 96.1635 125.209 94.1935C125.215 93.4375 124.866 92.7075 124.376 92.1325C123.052 90.5775 121.947 90.4575 120.954 90.6455L119.987 82.1805C119.776 80.3365 118.217 78.9435 116.361 78.9435H98.3385C94.2635 78.9435 91.1015 75.4005 91.5545 71.3525C92.4995 62.8885 97.0335 51.8475 115.952 63.6715C125.452 69.6075 131.411 75.8215 133.489 82.1375C135.348 87.7855 135.116 94.0165 132.294 99.2495" fill="#040226"/><path id="Fill 3" fill-rule="evenodd" clip-rule="evenodd" d="M121.81 98.264L122.158 105.999C126.08 105.81 129.504 103.345 131.843 99.006C134.47 94.134 134.893 88.044 133.003 82.297C130.978 76.145 125.15 70.024 115.682 64.105C108.059 59.341 102.151 57.914 98.1274 59.864C93.9554 61.882 92.5274 67.256 92.0634 71.41C91.8634 73.197 92.4354 74.99 93.6324 76.328C94.8294 77.665 96.5434 78.432 98.3374 78.432H116.362C118.479 78.432 120.256 80.018 120.496 82.121L121.404 90.071C122.332 90.01 123.474 90.283 124.766 91.8C125.388 92.53 125.727 93.381 125.721 94.198C125.705 96.378 123.968 98.164 121.81 98.264M121.668 107.035C121.395 107.035 121.169 106.82 121.158 106.546L120.762 97.743C120.755 97.596 120.813 97.452 120.919 97.35C121.028 97.247 121.178 97.202 121.321 97.21L121.462 97.228C121.515 97.235 121.567 97.243 121.621 97.243C123.305 97.243 124.685 95.874 124.697 94.189C124.703 93.619 124.45 93.006 123.987 92.463C122.78 91.047 121.862 90.995 121.049 91.148C120.913 91.175 120.765 91.142 120.65 91.057C120.536 90.973 120.461 90.844 120.445 90.702L119.478 82.238C119.298 80.652 117.958 79.455 116.362 79.455H98.3374C96.2524 79.455 94.2594 78.565 92.8704 77.011C91.4784 75.455 90.8134 73.372 91.0454 71.295C91.7504 64.972 94.0464 60.701 97.6824 58.942C102.047 56.829 108.285 58.275 116.224 63.237C125.902 69.285 131.873 75.591 133.976 81.978C135.954 87.991 135.505 94.374 132.745 99.493C130.123 104.357 126.189 107.035 121.668 107.035" fill="black"/></g></g></g><g id="Torso Upper Body" transform="translate(1 41.7684) scale(1 1)"><g id="Torso Upper Body/Computer"><g id="Computer"><path id="Tshirt" fill-rule="evenodd" clip-rule="evenodd" d="M325.225 200.068L311.977 180.748C295.156 156.214 267.322 141.55 237.575 141.55H230.356L230.97 135.739C231.091 134.598 230.196 133.605 229.049 133.605H211.448C211.07 134.332 210.636 134.94 210.233 135.403C208.865 136.974 206.582 136.139 204.664 134.938C204.566 135.239 204.532 135.566 204.597 135.903L205.689 141.55H201.795C201.386 143.242 200.741 145.168 199.725 147.371C194.85 157.939 178.742 166.572 178.742 166.572C178.742 166.572 172.767 194.906 160.589 217.976L154.409 254.178H281.636L275.344 217.325L272.426 195.515L275.392 201.446C275.622 201.907 276.093 202.198 276.609 202.198H324.103C325.198 202.198 325.844 200.97 325.225 200.068" fill="#409B81"/><path id="Fill 3" fill-rule="evenodd" clip-rule="evenodd" d="M325.648 199.778L312.4 180.458C295.475 155.775 267.504 141.039 237.575 141.039H230.925L231.479 135.793C231.552 135.105 231.328 134.416 230.866 133.902C230.403 133.387 229.741 133.092 229.049 133.092H206.493C205.761 133.092 205.074 133.417 204.609 133.98C204.143 134.546 203.956 135.281 204.094 136L205.069 141.039H201.573C201.581 141.381 201.56 141.724 201.507 142.062H205.689C205.842 142.062 205.987 141.994 206.084 141.877C206.181 141.758 206.22 141.603 206.191 141.453L205.099 135.806C205.019 135.388 205.127 134.961 205.398 134.632C205.669 134.304 206.068 134.117 206.493 134.117H229.049C229.457 134.117 229.832 134.283 230.104 134.587C230.377 134.889 230.503 135.281 230.461 135.685L229.847 141.496C229.832 141.641 229.879 141.785 229.976 141.892C230.073 142 230.211 142.062 230.356 142.062H237.575C267.166 142.062 294.822 156.632 311.555 181.037L324.803 200.357C324.984 200.622 325.003 200.949 324.854 201.233C324.705 201.517 324.424 201.685 324.103 201.685H276.609C276.285 201.685 275.995 201.506 275.85 201.216L272.884 195.286C272.773 195.062 272.514 194.949 272.276 195.026C272.037 195.099 271.886 195.335 271.919 195.583L274.84 217.411L281.029 253.666H155.016L160.593 220.996C160.247 221.011 159.903 220.99 159.566 220.929L153.905 254.091C153.879 254.241 153.92 254.392 154.018 254.507C154.115 254.623 154.258 254.689 154.409 254.689H281.636C281.788 254.689 281.93 254.623 282.028 254.507C282.125 254.392 282.167 254.241 282.141 254.091L275.852 217.257L273.341 198.488L274.934 201.674C275.253 202.312 275.895 202.71 276.609 202.71H324.103C324.8 202.71 325.435 202.327 325.76 201.71C326.085 201.093 326.042 200.353 325.648 199.778" fill="black"/><path id="Fill 5" fill-rule="evenodd" clip-rule="evenodd" d="M208.942 141.325C208.659 141.325 208.43 141.096 208.43 140.813V136.176C208.43 135.892 208.659 135.664 208.942 135.664C209.225 135.664 209.454 135.892 209.454 136.176V140.813C209.454 141.096 209.225 141.325 208.942 141.325" fill="black"/><path id="Fill 7" fill-rule="evenodd" clip-rule="evenodd" d="M212.399 141.325C212.116 141.325 211.887 141.096 211.887 140.813V136.176C211.887 135.892 212.116 135.664 212.399 135.664C212.682 135.664 212.911 135.892 212.911 136.176V140.813C212.911 141.096 212.682 141.325 212.399 141.325" fill="black"/><path id="Fill 9" fill-rule="evenodd" clip-rule="evenodd" d="M215.858 141.325C215.575 141.325 215.346 141.096 215.346 140.813V136.176C215.346 135.892 215.575 135.664 215.858 135.664C216.141 135.664 216.37 135.892 216.37 136.176V140.813C216.37 141.096 216.141 141.325 215.858 141.325" fill="black"/><path id="Fill 11" fill-rule="evenodd" clip-rule="evenodd" d="M219.317 141.325C219.034 141.325 218.805 141.096 218.805 140.813V136.176C218.805 135.892 219.034 135.664 219.317 135.664C219.6 135.664 219.829 135.892 219.829 136.176V140.813C219.829 141.096 219.6 141.325 219.317 141.325" fill="black"/><path id="Fill 13" fill-rule="evenodd" clip-rule="evenodd" d="M222.774 141.325C222.491 141.325 222.262 141.096 222.262 140.813V136.176C222.262 135.892 222.491 135.664 222.774 135.664C223.057 135.664 223.286 135.892 223.286 136.176V140.813C223.286 141.096 223.057 141.325 222.774 141.325" fill="black"/><path id="Fill 15" fill-rule="evenodd" clip-rule="evenodd" d="M226.233 141.325C225.95 141.325 225.721 141.096 225.721 140.813V136.176C225.721 135.892 225.95 135.664 226.233 135.664C226.516 135.664 226.745 135.892 226.745 136.176V140.813C226.745 141.096 226.516 141.325 226.233 141.325" fill="black"/><path id="Skin" fill-rule="evenodd" clip-rule="evenodd" d="M319.631 202.198H277.799C277.799 202.198 293.189 227.336 277.842 236C262.496 244.663 193.146 221.753 193.146 221.753C193.146 221.753 174.334 215.564 172.849 223.485C172.685 224.36 172.69 225.144 172.829 225.847C172.829 225.847 167.218 224.568 164.526 221.226H158.81C172.186 197.664 178.742 166.572 178.742 166.572C178.742 166.572 194.85 157.939 199.724 147.371C204.599 136.803 201.293 132.269 201.293 132.269C201.293 132.269 207.539 138.497 210.233 135.403C212.926 132.308 217.071 122.832 195.559 113.508C174.046 104.181 159.14 130.291 154.53 139.664C149.92 149.038 124.993 202.198 124.993 202.198H112.184C112.184 202.198 96.0322 236.169 116.268 244.894C129.673 250.674 140.867 244.844 149.906 234.215C155.347 237.317 163.491 240.705 175.664 244.06C175.664 244.06 190.609 248.98 196.921 252.322C203.233 255.664 273.529 289.017 308.987 262.842C344.445 236.666 319.631 202.198 319.631 202.198" fill="#fbefe3"/><path id="Fill 19" fill-rule="evenodd" clip-rule="evenodd" d="M129.826 191.901C129.826 191.901 123.322 203.124 120.723 215.005Z" fill="#E5AB78"/><path id="Fill 21" fill-rule="evenodd" clip-rule="evenodd" d="M120.723 215.517C120.687 215.517 120.65 215.513 120.613 215.505C120.337 215.445 120.162 215.172 120.223 214.896C122.809 203.074 129.317 191.757 129.382 191.644C129.524 191.399 129.838 191.315 130.081 191.458C130.327 191.6 130.41 191.913 130.268 192.159C130.203 192.269 123.774 203.453 121.223 215.115C121.171 215.354 120.959 215.517 120.723 215.517" fill="black"/><path id="Fill 23" fill-rule="evenodd" clip-rule="evenodd" d="M308.684 262.429C272.083 289.452 197.894 252.257 197.161 251.868C190.883 248.546 175.975 243.623 175.801 243.566C149.648 236.359 142.453 228.988 140.492 225.236C139.603 223.534 139.614 222.296 139.689 221.738H147.215C147.186 221.913 147.178 222.113 147.209 222.339C147.469 224.234 150.159 226.45 155.205 228.925C165.152 233.808 177.528 237.551 177.652 237.588C177.702 237.603 177.751 237.611 177.8 237.611C178.02 237.611 178.223 237.467 178.29 237.245C178.372 236.976 178.218 236.689 177.947 236.609C177.825 236.572 165.528 232.852 155.655 228.006C149.546 225.008 148.381 223.111 148.231 222.245C148.189 222.004 148.228 221.843 148.274 221.738H164.286C166.772 224.647 171.243 225.965 172.425 226.273C173.905 231.941 183.311 232.396 183.696 232.409L190.75 233.029C190.765 233.031 190.78 233.031 190.795 233.031C191.058 233.031 191.281 232.829 191.305 232.564C191.33 232.283 191.121 232.034 190.839 232.009L183.761 231.388C183.667 231.385 174.357 230.948 173.331 225.747C173.2 225.081 173.207 224.353 173.352 223.578C173.562 222.456 174.159 221.62 175.174 221.02C180.156 218.072 192.858 222.196 192.986 222.238C193.159 222.296 210.564 228.026 229.62 232.622C255.305 238.817 271.615 240.102 278.094 236.446C281.466 234.542 283.659 231.713 284.612 228.036C287.103 218.433 280.542 205.954 278.693 202.709H319.363C320.308 204.101 325.518 212.162 327.1 222.779C329.421 238.354 323.225 251.695 308.684 262.429M320.046 201.898C319.951 201.765 319.795 201.685 319.631 201.685H277.799C277.614 201.685 277.444 201.785 277.353 201.948C277.263 202.109 277.266 202.306 277.363 202.464C277.453 202.613 286.338 217.308 283.621 227.781C282.74 231.177 280.711 233.792 277.591 235.554C262.616 244.011 193.998 221.493 193.306 221.266C192.766 221.088 180.033 216.956 174.653 220.138C173.387 220.887 172.61 221.981 172.346 223.391C172.232 223.999 172.192 224.589 172.226 225.153C170.66 224.691 166.914 223.375 164.924 220.906C164.828 220.784 164.681 220.714 164.526 220.714H139.279C139.066 220.714 138.874 220.846 138.8 221.046C138.772 221.118 138.14 222.874 139.534 225.611C140.763 228.026 143.469 231.047 149.092 234.344C145.571 238.41 141.735 241.738 137.574 243.893C130.841 247.379 123.742 247.56 116.471 244.424C112.385 242.662 109.531 239.689 107.987 235.585C103.455 223.55 111.369 205.239 112.512 202.709H124.993C125.192 202.709 125.372 202.594 125.456 202.414C125.706 201.883 150.434 149.152 154.989 139.889C160.282 129.131 174.805 105.066 195.355 113.977C204.96 118.14 210.623 122.927 211.731 127.82C212.555 131.46 210.688 134.1 209.847 135.066C209.464 135.505 208.983 135.729 208.377 135.751C205.659 135.801 201.694 131.945 201.654 131.906L196.717 126.962C196.627 126.872 196.512 126.829 196.395 126.821C191.785 121.093 183.212 118.501 183.088 118.465C182.817 118.384 182.533 118.542 182.454 118.812C182.373 119.083 182.529 119.367 182.8 119.447C182.967 119.495 199.521 124.497 198.156 135.777C197.202 143.667 195.352 148.486 192.946 149.345C191.726 149.782 190.278 149.21 188.645 147.646C188.619 147.62 188.587 147.609 188.558 147.59C189.675 144.302 189.709 139.681 188.651 133.748C187.123 125.177 175.18 124.778 175.06 124.775C174.771 124.758 174.542 124.992 174.536 125.274C174.528 125.556 174.751 125.79 175.034 125.798C175.146 125.802 186.262 126.179 187.648 133.952C189.642 145.138 187.663 151.357 181.809 152.427C180.767 152.516 177.895 152.435 177.086 150.937C177.063 150.894 177.029 150.862 176.997 150.828C179.046 147.522 180.271 142.765 180.527 139.379C181.099 131.813 169.611 130.048 169.122 129.976C168.841 129.936 168.583 130.129 168.541 130.408C168.5 130.689 168.694 130.949 168.974 130.99C169.084 131.005 180.006 132.685 179.506 139.301C179.133 144.244 176.533 152.125 172.809 153.447C171.31 153.984 169.719 153.372 168.081 151.64C163.455 146.754 170.595 138.629 170.667 138.548C170.855 138.337 170.836 138.013 170.626 137.825C170.414 137.638 170.091 137.657 169.903 137.866C169.787 137.997 168.726 139.205 167.671 140.953C167.634 140.876 167.584 140.804 167.509 140.752C166.658 140.164 167.056 137.998 167.262 137.286C167.341 137.015 167.184 136.731 166.913 136.653C166.642 136.576 166.358 136.729 166.279 137.001C166.176 137.354 165.32 140.486 166.927 141.594C167.016 141.656 167.117 141.685 167.217 141.685C167.23 141.685 167.241 141.677 167.254 141.676C165.567 144.741 164.229 149.06 167.337 152.344C168.799 153.889 170.268 154.664 171.722 154.664C172.201 154.664 172.678 154.58 173.152 154.411C174.377 153.977 175.459 152.997 176.398 151.716C177.497 153.241 179.906 153.471 181.164 153.471C181.597 153.471 181.892 153.446 181.947 153.441C184.884 152.905 186.952 151.276 188.158 148.585C189.556 149.865 190.881 150.515 192.116 150.515C192.517 150.515 192.909 150.447 193.291 150.31C196.161 149.283 198.14 144.435 199.173 135.899C199.435 133.733 199.09 131.79 198.356 130.054L200.896 132.596C201.08 132.87 203.826 137.258 199.26 147.158C194.514 157.445 178.66 166.034 178.5 166.12C178.367 166.192 178.272 166.319 178.241 166.466C178.158 166.862 172.824 191.623 162.219 213.522C162.478 213.822 162.698 214.14 162.865 214.482C173.196 193.38 178.617 169.527 179.193 166.909C181.186 165.814 195.544 157.656 200.189 147.585C203.322 140.796 203.151 136.419 202.57 134.074C204.102 135.297 206.422 136.866 208.413 136.774C209.306 136.742 210.048 136.394 210.619 135.738C211.562 134.654 213.658 131.692 212.73 127.593C211.53 122.295 205.822 117.397 195.762 113.036C186.33 108.948 177.109 111.021 168.356 119.199C161.382 125.716 156.412 134.676 154.071 139.437C149.689 148.347 126.677 197.402 124.667 201.685H112.184C111.986 201.685 111.806 201.799 111.721 201.978C111.323 202.816 102.024 222.649 107.028 235.945C108.673 240.319 111.714 243.488 116.066 245.364C119.642 246.907 123.181 247.677 126.661 247.677C130.539 247.677 134.345 246.718 138.045 244.802C142.369 242.562 146.344 239.094 149.983 234.856C155.502 237.951 163.62 241.271 175.505 244.546C175.654 244.595 190.48 249.491 196.682 252.775C197.223 253.06 237.516 273.259 273.61 273.258C286.772 273.257 299.379 270.571 309.292 263.253C344.747 237.079 320.297 202.247 320.046 201.898" fill="black"/><path id="Laptop" fill-rule="evenodd" clip-rule="evenodd" d="M194.602 214.224L176.732 157.946H91.5127L111.605 221.226H208.942V214.224H194.602Z" fill="#EFF2F7"/><path id="Fill 28" fill-rule="evenodd" clip-rule="evenodd" d="M111.979 220.714H208.43V214.736H194.602C194.378 214.736 194.181 214.592 194.114 214.379L176.357 158.458H92.2117L111.979 220.714ZM208.941 221.737H111.604C111.381 221.737 111.184 221.594 111.117 221.381L91.0237 158.101C90.9747 157.944 91.0027 157.775 91.0997 157.644C91.1947 157.512 91.3487 157.434 91.5117 157.434H176.732C176.955 157.434 177.152 157.578 177.22 157.791L194.976 213.712H208.941C209.225 213.712 209.454 213.942 209.454 214.224V221.226C209.454 221.509 209.225 221.737 208.941 221.737V221.737Z" fill="black"/><path id="Fill 31" fill-rule="evenodd" clip-rule="evenodd" d="M196.572 221.738C196.353 221.738 196.15 221.597 196.082 221.377L188.732 197.428C188.649 197.159 188.801 196.873 189.072 196.79C189.343 196.702 189.628 196.857 189.711 197.129L197.061 221.077C197.144 221.346 196.992 221.633 196.722 221.716C196.672 221.731 196.621 221.738 196.572 221.738" fill="black"/></g></g></g></g></g></g></svg>